<svg xmlns="http://www.w3.org/2000/svg" xmlns:xlink="http://www.w3.org/1999/xlink" width="777" height="1494.27"><symbol id="icn-wave" viewBox="0 0 35 35"><title>icn-wave</title><title>👋</title><g id="simplxr" fill="none" fill-rule="evenodd" font-family="AppleColorEmoji, Apple Color Emoji" font-size="35"><g id="vacatures" transform="translate(-1564 -2604)" fill="#0C0C0C"><text id="👋"><tspan x="1564" y="2625">👋</tspan></text></g></g></symbol><symbol id="icn-twitter" viewBox="0 0 19 15"><title>icn-twitter</title><path d="M19 1.775a7.96 7.96 0 0 1-2.238.596A3.825 3.825 0 0 0 18.475.277a7.997 7.997 0 0 1-2.476.92A3.94 3.94 0 0 0 13.154 0C11 0 9.256 1.696 9.256 3.787c0 .297.034.586.1.863A11.175 11.175 0 0 1 1.325.692a3.679 3.679 0 0 0-.527 1.904c0 1.315.688 2.474 1.733 3.153a3.984 3.984 0 0 1-1.765-.476v.048c0 1.835 1.344 3.366 3.126 3.714-.327.086-.671.133-1.027.133-.252 0-.495-.024-.734-.07.496 1.505 1.935 2.6 3.64 2.63a7.965 7.965 0 0 1-4.84 1.62 8.52 8.52 0 0 1-.93-.052A11.25 11.25 0 0 0 5.974 15c7.17 0 11.09-5.772 11.09-10.778l-.013-.49A7.667 7.667 0 0 0 19 1.775z"/></symbol><symbol id="icn-training" viewBox="0 0 102 76"><title>icn-training</title><path d="M100.825 24.586L51.95.224a2.131 2.131 0 0 0-1.9 0L1.175 24.586a2.117 2.117 0 0 0 0 3.79l16.18 8.064v16.188c0 9.998 14.778 17.83 33.645 17.83 18.867 0 33.646-7.831 33.646-17.83V36.44l5.647-2.815v15.45c-2.604.884-4.482 3.344-4.482 6.235 0 2.62 1.544 4.888 3.772 5.948L85.069 73.13a2.113 2.113 0 0 0 .238 1.954c.397.573 1.05.915 1.75.915H97.78c.698 0 1.351-.342 1.748-.915a2.114 2.114 0 0 0 .239-1.954l-4.514-11.873c2.228-1.06 3.771-3.327 3.771-5.948 0-2.89-1.879-5.35-4.482-6.235V31.506l6.282-3.13A2.118 2.118 0 0 0 102 26.48a2.12 2.12 0 0 0-1.175-1.894zM72.338 61.844C66.674 64.667 59.096 66.222 51 66.222s-15.674-1.555-21.338-4.378c-5.12-2.553-8.058-5.911-8.058-9.215v-14.07L50.05 52.736a2.13 2.13 0 0 0 1.9 0l28.445-14.179v14.07c0 3.305-2.936 6.663-8.057 9.216zm17.796 9.92l2.284-6.009 2.284 6.009h-4.568zm4.64-16.454a2.355 2.355 0 0 1-2.356 2.35 2.356 2.356 0 0 1-2.357-2.35 2.355 2.355 0 0 1 2.346-2.349h.02a2.355 2.355 0 0 1 2.347 2.35zm-2.788-27.266L51.19 24.37a2.123 2.123 0 0 0-2.307 1.92 2.12 2.12 0 0 0 1.925 2.3l33.95 3.056L51 48.474 6.877 26.48 51 4.487 95.123 26.48l-3.137 1.564z"/></symbol><symbol id="icn-software" viewBox="0 0 93 79"><title>icn-software</title><path d="M87.856 0H5.144C2.308 0 0 2.317 0 5.165v54.468c0 2.848 2.308 5.165 5.144 5.165h31.203v.317c0 5.356-4.34 9.714-9.675 9.714-1.136 0-2.057.925-2.057 2.066s.92 2.066 2.057 2.066c.05 0 .101-.004.152-.004.135.028.276.043.42.043h38.513c.143 0 .283-.015.419-.043.05 0 .1.004.152.004 1.136 0 2.057-.925 2.057-2.066s-.92-2.066-2.057-2.066c-5.335 0-9.675-4.358-9.675-9.714v-.317h31.203c2.836 0 5.144-2.317 5.144-5.165V5.165C93 2.317 90.692 0 87.856 0zM36.45 74.868a13.829 13.829 0 0 0 4.012-9.75v-.32h12.076v.32c.001 3.8 1.535 7.246 4.013 9.75H36.45zm52.435-15.235c0 .57-.462 1.033-1.03 1.033h-32.84a2.054 2.054 0 0 0-.84 0h-15.35a2.054 2.054 0 0 0-.84 0H5.144a1.032 1.032 0 0 1-1.029-1.033V47.83h84.77v11.803zm0-15.935H4.115V5.165c0-.57.462-1.033 1.029-1.033h82.712c.567 0 1.029.463 1.029 1.033v38.533z"/><path d="M55.997 22.8a2.076 2.076 0 0 0-1.294-1.822l-16.816-6.814h-.001l-.03-.013c-.017-.007-.035-.011-.052-.018a2.136 2.136 0 0 0-.13-.045l-.08-.021c-.039-.01-.078-.02-.117-.028-.03-.006-.06-.01-.089-.014a2.268 2.268 0 0 0-.112-.015l-.09-.006c-.038-.002-.075-.004-.112-.004l-.09.003a1.938 1.938 0 0 0-.113.007l-.09.013c-.036.005-.073.01-.11.017l-.095.023c-.034.008-.067.016-.101.027-.036.01-.071.024-.107.037-.023.008-.048.015-.071.024l-.015.007c-.036.015-.071.033-.106.05-.028.012-.056.025-.082.039-.029.015-.056.033-.083.05-.031.018-.063.035-.093.055-.016.01-.031.024-.047.035-.094.067-.183.14-.264.22-.03.03-.058.063-.086.095l-.049.054c-.026.032-.05.067-.075.1l-.045.062c-.019.028-.035.058-.053.088-.018.029-.036.058-.052.088l-.04.08c-.016.035-.034.07-.049.107l-.007.015c-.01.023-.016.047-.025.071-.013.036-.026.07-.037.107-.01.033-.017.066-.026.098-.008.033-.017.066-.023.1-.007.034-.012.068-.017.103-.005.032-.01.064-.013.097a2.19 2.19 0 0 0-.007.104c-.001.033-.003.066-.003.1a3.036 3.036 0 0 0 .01.204l.013.097c.006.034.01.069.017.104l.024.099c.008.032.016.065.026.097.01.036.024.072.037.107.009.024.015.048.025.072l6.826 16.847a2.076 2.076 0 0 0 1.821 1.294 1.974 1.974 0 0 0 .104.003c.768 0 1.477-.425 1.838-1.109l2.143-4.07 3.349 3.349a2.07 2.07 0 0 0 1.468.608 2.077 2.077 0 0 0 1.469-3.546l-3.348-3.348 4.07-2.144a2.076 2.076 0 0 0 1.105-1.94zm-9.595 1.718l-.019.01c-.026.014-.05.03-.076.045-.032.019-.064.036-.095.056l-.004.003a2.101 2.101 0 0 0-.165.122c-.023.019-.044.04-.066.06-.028.025-.058.05-.085.077a2.085 2.085 0 0 0-.263.321c-.02.03-.037.061-.055.092-.016.027-.033.052-.047.08l-.011.02L44.149 28l-3.305-8.156L49 23.149l-2.598 1.369z"/><circle cx="47" cy="54" r="3"/></symbol><symbol id="icn-search" viewBox="0 0 18 19"><title>icn-search</title><path fill-rule="evenodd" d="M9.778 12.526c-3.437 0-6.222-2.804-6.222-6.263S6.34 0 9.778 0C13.214 0 16 2.804 16 6.263c0 3.46-2.786 6.263-6.222 6.263zM.25 16.748l5.082-5.116-5.082 5.116z" transform="matrix(-1 0 0 1 17 1)"/></symbol><symbol id="icn-sdrive" viewBox="0 0 51.15 44.27"><title>icn-sdrive</title><title>sdrive</title><path d="M13.47 25.74l10.18 1.4a.68.68 0 0 1 .57.88l-2.62 8.74a.7.7 0 0 1-.71.49L10 36.52a.69.69 0 0 0-.71.49l-2 6.77a.69.69 0 0 1-1.29.08L.06 30.55a.69.69 0 0 1 .18-.8l13.35-11.63a.69.69 0 0 1 1.12.72l-1.81 6a.7.7 0 0 0 .57.9zM37 19.12l-10.85-1.34a.68.68 0 0 1-.57-.88l2.7-9a.68.68 0 0 1 .7-.49l11.64.64a.68.68 0 0 0 .7-.49L43.44.49a.7.7 0 0 1 1.3-.09l6.35 13.67a.68.68 0 0 1-.18.81L36.8 27a.69.69 0 0 1-1.11-.72L37.57 20a.69.69 0 0 0-.57-.88z"/></symbol><symbol id="icn-quote" viewBox="0 0 98 77"><title>icn-quote</title><title>icon-quote</title><g id="simplxr" fill="none" fill-rule="evenodd"><g id="blogpost" transform="translate(-468 -4067)" fill="#CBDFF1"><path d="M509.636 4070.5l-8.233-3.5c-15.2 14.318-31.982 38.818-33.249 57.91-1.266 11.772 5.383 19.09 15.516 19.09 11.083 0 21.533-9.227 22.8-20.682.633-9.227-5.384-15.909-13.933-16.863 3.483-13.046 8.866-24.5 17.099-35.955zm56.364 0l-8.233-3.5c-15.2 14.318-31.982 38.818-33.248 57.91-1.267 11.772 5.383 19.09 15.515 19.09 11.083 0 21.533-9.227 22.8-20.682.633-9.227-5.384-15.909-13.933-16.863 3.483-13.046 8.866-24.5 17.099-35.955z" id="icon-quote"/></g></g></symbol><symbol id="icn-phone" viewBox="0 0 15 15"><title>icn-phone</title><path d="M14.664 11.864l-2.317-2.322c-.461-.46-1.225-.446-1.703.032l-1.167 1.17a34.12 34.12 0 0 1-.23-.129c-.737-.409-1.746-.97-2.807-2.034C5.375 7.514 4.815 6.5 4.405 5.762c-.043-.078-.084-.154-.125-.226l.783-.783.385-.387c.478-.48.492-1.245.031-1.707L3.163.337C2.703-.124 1.938-.11 1.46.369l-.653.658.018.018c-.22.28-.402.603-.538.951a3.95 3.95 0 0 0-.24.965C-.259 5.502.9 7.825 4.045 10.977c4.347 4.357 7.85 4.028 8.002 4.011.329-.039.644-.118.965-.243a3.76 3.76 0 0 0 .945-.536l.014.012.662-.649c.477-.48.49-1.245.03-1.708z"/></symbol><symbol id="icn-mail" viewBox="0 0 18 11"><title>icn-mail</title><path d="M17.988.926A.926.926 0 0 0 17.066 0h-.002L.921.022A.924.924 0 0 0 0 .951l.011 9.123A.924.924 0 0 0 .934 11h.002l16.143-.022a.926.926 0 0 0 .921-.929L17.988.926zM16 1L9.007 6 2 1.02 16 1zm-4.046 5.613l4.142 3.367L1.891 10 6.06 6.613a.494.494 0 0 0 .081-.67.443.443 0 0 0-.64-.086L1.01 9.505 1 1.023l7.742 5.606a.442.442 0 0 0 .52 0L16.988 1 17 9.503l-4.487-3.646a.443.443 0 0 0-.64.085.494.494 0 0 0 .08.671z"/></symbol><symbol id="icn-linkedin" viewBox="0 0 16 15"><title>icn-linkedin</title><path d="M16 9.196V15h-3.43V9.585c0-1.36-.495-2.288-1.737-2.288-.947 0-1.511.625-1.76 1.23-.09.217-.113.518-.113.82V15H5.53s.046-9.17 0-10.121h3.43v1.435l-.023.032h.023v-.032c.455-.69 1.27-1.673 3.091-1.673C14.308 4.641 16 6.088 16 9.196zM1.941 0C.768 0 0 .755 0 1.748c0 .972.745 1.75 1.896 1.75h.023c1.196 0 1.94-.778 1.94-1.75C3.836.755 3.115 0 1.94 0zM.204 15h3.429V4.879H.203V15z"/></symbol><symbol id="icn-consulting" viewBox="0 0 91 68"><title>icn-consulting</title><path d="M75.73 0H48.503c-8.42 0-15.27 6.854-15.27 15.279v1.63H15.27C6.85 16.91 0 23.763 0 32.188v10.378c0 7.706 5.733 14.099 13.156 15.132v8.186a2.116 2.116 0 0 0 3.378 1.696l13.051-9.736h12.912c8.42 0 15.27-6.854 15.27-15.278v-1.63h3.648l13.051 9.735a2.112 2.112 0 0 0 2.212.195 2.116 2.116 0 0 0 1.166-1.89v-8.187C85.267 39.756 91 33.363 91 25.657V15.279C91 6.854 84.15 0 75.73 0zM53.54 42.566c0 6.091-4.954 11.047-11.042 11.047H28.884c-.456 0-.899.147-1.264.42l-10.236 7.635v-5.94a2.115 2.115 0 0 0-2.114-2.115c-6.088 0-11.041-4.956-11.041-11.047V32.188c0-6.092 4.953-11.048 11.041-11.048h17.962v4.516c0 8.425 6.85 15.28 15.27 15.28h5.037v1.63zm0-5.862h-5.037c-6.089 0-11.042-4.956-11.042-11.048V21.14h5.036c6.089 0 11.042 4.956 11.042 11.048v4.516zm33.232-11.048c0 6.092-4.954 11.048-11.042 11.048a2.115 2.115 0 0 0-2.114 2.116v5.94L63.38 37.124a2.114 2.114 0 0 0-1.264-.42h-4.348v-4.516c0-8.425-6.85-15.28-15.27-15.28H37.46v-1.63c0-6.091 4.953-11.047 11.042-11.047H75.73c6.089 0 11.042 4.956 11.042 11.048v10.377z"/></symbol><symbol id="icn-bell" viewBox="0 0 20 23"><title>icn-bell</title><path d="M15.814 9.568C12.964 3.193 11.482.772 6.824.872 5.165.907 5.564-.377 4.299.11c-1.264.488-.18 1.2-1.472 2.303C-.802 5.51-.467 8.373 1.215 15.197 1.925 18.072-.494 18.213.463 21c.699 2.031 5.849 2.882 11.282.786 5.434-2.095 8.863-6.254 8.165-8.286-.957-2.786-2.895-1.248-4.096-3.932zM10.97 19.94c-4.816 1.888-8.774.777-8.941.284-.289-.851 1.554-3.691 7.06-5.85 5.507-2.158 8.58-1.358 8.9-.407.19.562-2.203 4.085-7.019 5.973zm-1.134-4.602c-2.721.94-4.613 2.016-5.836 2.985.861.728 2.475.906 4.084.35 2.047-.707 3.305-2.332 2.807-3.628-.005-.016-.014-.03-.02-.045-.336.103-.68.215-1.035.338z"/></symbol><symbol id="icn-arrow-right" viewBox="0 0 27 12"><title>icn-arrow-right</title><path d="M151.448.18a.599.599 0 0 0-.857 0 .609.609 0 0 0 0 .852l4.344 4.361H130.6c-.334 0-.6.267-.6.603 0 .335.266.61.6.61h24.335l-4.344 4.353a.62.62 0 0 0 0 .86c.24.241.626.241.857 0l5.372-5.393a.594.594 0 0 0 0-.851L151.448.18z" transform="translate(-130)"/></symbol><symbol id="icn-arrow-left" viewBox="0 0 27 12"><title>icn-arrow-left</title><path d="M21.448.18a.599.599 0 0 0-.857 0 .609.609 0 0 0 0 .852l4.344 4.361H.6c-.334 0-.6.267-.6.603 0 .335.266.61.6.61h24.335l-4.344 4.353a.62.62 0 0 0 0 .86c.24.241.626.241.857 0l5.372-5.393a.594.594 0 0 0 0-.851L21.448.18z" transform="matrix(-1 0 0 1 27 0)"/></symbol><symbol id="bg-stripes" viewBox="0 0 777 694"><title>bg-stripes</title><g fill-rule="evenodd" stroke="#010101" stroke-width="30" opacity=".01"><path d="M333 624.199L425.238 646 550 122.838 457.726 101zM248.227 20L22.01 501.453 20 505.789 104.773 546 330.918 64.691 333 60.392zM683 679h95V140h-95z"/></g></symbol><symbol id="bg-dots" viewBox="0 0 205 269"><title>bg-dots</title><g fill="none" fill-rule="evenodd"><g transform="translate(-1)" id="vis-dots" fill="#CBDFF1"><path d="M149.272 95.38c-3.98-4.874-11.115-5.81-16.233-2.155-.233.16-.45.312-.66.494-5.119 4.198-5.851 11.783-1.66 16.917 4.168 5.055 11.767 5.874 16.907 1.64 5.112-4.207 5.851-11.799 1.646-16.897" id="Fill-1"/><path d="M156.037 132.232a8.359 8.359 0 0 0-.652.48c-2.479 2.045-4.022 4.917-4.327 8.123a11.868 11.868 0 0 0 2.674 8.777c4.175 5.078 11.762 5.898 16.886 1.676 2.478-2.053 4-4.933 4.326-8.117a12 12 0 0 0-2.66-8.784c-4.007-4.875-11.138-5.825-16.247-2.155" id="Fill-3"/><path d="M109.846 181.431a12.447 12.447 0 0 0 9.67 4.569c2.872 0 5.68-1.01 7.906-2.825 2.575-2.114 4.178-5.106 4.52-8.455.318-3.32-.668-6.58-2.786-9.166a12.469 12.469 0 0 0-9.67-4.554c-2.618 0-5.12.799-7.239 2.317-.225.167-.45.341-.682.523-2.575 2.099-4.17 5.106-4.504 8.454a12.377 12.377 0 0 0 2.785 9.137" id="Fill-5"/><path d="M90.484 112c-2.613 0-5.11.792-7.222 2.297-.217.16-.435.313-.682.53a12.439 12.439 0 0 0-4.521 8.463 12.507 12.507 0 0 0 2.787 9.16c2.373 2.907 5.9 4.55 9.689 4.55a12.47 12.47 0 0 0 7.911-2.82c5.313-4.377 6.097-12.286 1.72-17.622-2.373-2.908-5.915-4.558-9.682-4.558" id="Fill-7"/><path d="M75.987 192c-2.725 0-5.318.822-7.498 2.386-.261.175-.494.371-.733.553a12.997 12.997 0 0 0-4.694 8.78c-.334 3.47.683 6.868 2.892 9.552C68.438 216.283 72.1 218 76.03 218a13.04 13.04 0 0 0 8.232-2.924c2.68-2.234 4.322-5.34 4.678-8.81a13.037 13.037 0 0 0-2.891-9.523c-2.47-3.026-6.146-4.743-10.062-4.743" id="Fill-9"/><path d="M203.389 184.458c1.999-2.509 2.89-5.634 2.535-8.824a11.892 11.892 0 0 0-4.462-8.028c-4.919-3.923-12.097-3.357-16.327 1.291-.181.21-.355.42-.536.631a12.005 12.005 0 0 0-2.52 8.84c.369 3.175 1.97 6.032 4.468 8.034 5.129 4.09 12.727 3.284 16.842-1.944" id="Fill-11"/><path d="M165.278 206.708a12.555 12.555 0 0 0-7.764-2.708c-3.52 0-6.893 1.489-9.23 4.066-.21.218-.399.429-.58.654a12.48 12.48 0 0 0-2.62 9.207c.385 3.318 2.025 6.295 4.63 8.365a12.531 12.531 0 0 0 7.771 2.708 12.46 12.46 0 0 0 9.803-4.72 12.4 12.4 0 0 0 2.627-9.207c-.385-3.318-2.024-6.295-4.637-8.365" id="Fill-13"/><path d="M130.578 246.03a13.485 13.485 0 0 0-8.184-2.79c-3.698 0-7.257 1.52-9.713 4.194-.214.217-.397.44-.589.663a12.581 12.581 0 0 0-2.772 9.499 12.805 12.805 0 0 0 4.89 8.633c2.309 1.802 5.206 2.775 8.184 2.775 4.037 0 7.787-1.78 10.287-4.858a12.512 12.512 0 0 0 2.772-9.505c-.397-3.401-2.132-6.471-4.875-8.612" id="Fill-15"/><path d="M41.972 133c-2.71 0-5.318.822-7.52 2.4-.239.175-.479.343-.711.539a13.013 13.013 0 0 0-4.679 8.78c-.334 3.47.69 6.868 2.899 9.538C34.43 157.283 38.1 159 42.016 159c2.993 0 5.914-1.033 8.231-2.954a12.874 12.874 0 0 0 4.693-8.766c.327-3.484-.697-6.86-2.891-9.551-2.485-3.012-6.154-4.729-10.077-4.729" id="Fill-18"/><path d="M33.938 82.272a13 13 0 0 0-2.89-9.532A12.973 12.973 0 0 0 20.986 68c-2.717 0-5.324.836-7.518 2.414-.254.16-.487.342-.712.523a13.058 13.058 0 0 0-4.7 8.79c-.319 3.469.698 6.85 2.913 9.533A12.962 12.962 0 0 0 21.03 94a13.05 13.05 0 0 0 8.223-2.937c2.688-2.218 4.351-5.323 4.685-8.79" id="Fill-20"/><path d="M73.522 82a12.46 12.46 0 0 0 7.914-2.826c2.585-2.129 4.19-5.122 4.502-8.443.327-3.334-.653-6.596-2.766-9.176C80.79 58.656 77.262 57 73.47 57c-2.607 0-5.105.792-7.232 2.325-.225.152-.45.327-.675.508-2.578 2.1-4.176 5.108-4.502 8.443a12.417 12.417 0 0 0 2.78 9.169C66.21 80.35 69.74 82 73.523 82" id="Fill-22"/><path d="M119.038 49.223c-.225.152-.442.326-.653.493-2.478 2.032-4.008 4.92-4.327 8.114a11.91 11.91 0 0 0 2.675 8.795c4.153 5.08 11.75 5.871 16.888 1.662 5.117-4.209 5.856-11.778 1.653-16.909-3.994-4.862-11.126-5.813-16.236-2.155" id="Fill-24"/><path d="M22.064 22.884c2.666-2.198 4.324-5.29 4.655-8.713a12.865 12.865 0 0 0-2.868-9.447A12.901 12.901 0 0 0 13.863.025c-2.71 0-5.282.829-7.466 2.378-.238.173-.461.353-.7.533C.208 7.47-.585 15.62 3.926 21.096a12.854 12.854 0 0 0 9.96 4.685c2.983 0 5.887-1.038 8.179-2.897" id="Fill-26"/><path d="M75.432 23.16a12.493 12.493 0 0 0 4.505-8.44c.333-3.32-.66-6.566-2.786-9.151C74.786 2.663 71.261 1 67.488 1c-2.619 0-5.115.813-7.211 2.302a8.533 8.533 0 0 0-.711.523 12.467 12.467 0 0 0-4.505 8.455c-.327 3.32.667 6.58 2.778 9.151A12.453 12.453 0 0 0 67.517 26c2.873 0 5.695-1.01 7.915-2.84" id="Fill-29"/><path d="M114.03 3.22c-.21.152-.442.326-.652.508-5.111 4.191-5.858 11.754-1.653 16.881 4.176 5.09 11.753 5.896 16.908 1.675 5.097-4.191 5.843-11.783 1.653-16.896C126.29.515 119.142-.435 114.03 3.22" id="Fill-31"/></g></g></symbol><use xlink:href="#bg-dots" width="205" height="269"/><use xlink:href="#bg-stripes" y="271" width="777" height="694"/><use xlink:href="#icn-arrow-left" y="967" width="27" height="12"/><use xlink:href="#icn-arrow-right" y="981" width="27" height="12"/><use xlink:href="#icn-bell" y="995" width="20" height="23"/><use xlink:href="#icn-consulting" y="1020" width="91" height="68"/><use xlink:href="#icn-linkedin" y="1090" width="16" height="15"/><use xlink:href="#icn-mail" y="1107" width="18" height="11"/><use xlink:href="#icn-phone" y="1120" width="15" height="15"/><use xlink:href="#icn-quote" y="1137" width="98" height="77"/><use xlink:href="#icn-sdrive" y="1216" width="51.15" height="44.27"/><use xlink:href="#icn-search" y="1262.27" width="18" height="19"/><use xlink:href="#icn-software" y="1283.27" width="93" height="79"/><use xlink:href="#icn-training" y="1364.27" width="102" height="76"/><use xlink:href="#icn-twitter" y="1442.27" width="19" height="15"/><use xlink:href="#icn-wave" y="1459.27" width="35" height="35"/></svg>