<svg xmlns="http://www.w3.org/2000/svg" width="120" height="108" viewBox="0 0 120 108">
    <g fill="none" fill-rule="nonzero">
        <g fill="#DEDEDD">
            <path d="M109.43 37.679l2.922 2.922 1.617-.995zM110.176 41.907l-4.228-4.228-2.984 6.03-4.477-10.756-1.927-.808 7.647 18.404 2.985-6.03 4.414 4.414 1.803-1.741-4.539-4.54z"/>
        </g>
        <path fill="#5FE0ED" d="M95.316 25.306l3.233 1.368V19.46H20.207v21.762H98.55v-8.145z"/>
        <g fill="#475059">
            <path d="M116.58 69.824H85.74l-6.714-3.109 6.715-3.109h30.84a3.079 3.079 0 0 1 3.108 3.109 3.079 3.079 0 0 1-3.109 3.109zM85.99 68.58h30.59a1.832 1.832 0 0 0 1.866-1.865 1.832 1.832 0 0 0-1.866-1.865H85.99l-4.042 1.865 4.042 1.865z"/>
            <path d="M111.855 64.477h1.244v4.725h-1.244z"/>
            <path d="M86.363 66.094h26.114v1.244H86.363z"/>
        </g>
        <path fill="#DEDEDD" d="M16.477.808h85.803v7.088H16.477z"/>
        <path fill="#475059" d="M102.902 105.886H15.855V65.472h1.243v39.17h84.56v-2.487h1.244zM21.016 6.777a2.097 2.097 0 0 1-2.114-2.114c0-1.181.932-2.114 2.114-2.114 1.18 0 2.114.933 2.114 2.114 0 1.182-.995 2.114-2.114 2.114zm0-2.984a.85.85 0 0 0-.87.87c0 .498.372.87.87.87a.85.85 0 0 0 .87-.87c0-.497-.435-.87-.87-.87zM26.984 6.777a2.097 2.097 0 0 1-2.114-2.114c0-1.181.933-2.114 2.114-2.114 1.182 0 2.114.933 2.114 2.114a2.097 2.097 0 0 1-2.114 2.114zm0-2.984a.85.85 0 0 0-.87.87c0 .498.373.87.87.87a.85.85 0 0 0 .87-.87.85.85 0 0 0-.87-.87zM32.953 6.777a2.097 2.097 0 0 1-2.114-2.114c0-1.181.933-2.114 2.114-2.114 1.182 0 2.114.933 2.114 2.114a2.097 2.097 0 0 1-2.114 2.114zm0-2.984a.85.85 0 0 0-.87.87c0 .498.373.87.87.87a.85.85 0 0 0 .87-.87.85.85 0 0 0-.87-.87z"/>
        <g fill="#475059">
            <path d="M22.302 58.806l14.245-14.244.88.88-14.245 14.244z"/>
            <path d="M22.756 62.363v-1.244h13.617V45.575H22.694v-1.243h14.923v18.03z"/>
            <path d="M22.277 47.92l.88-.88 14.288 14.288-.88.88zM20.207 64.228h9.948v1.244h-9.948zM20.207 66.715h8.083v1.244h-8.083z"/>
        </g>
        <g fill="#475059">
            <path d="M40.104 62.363V44.332h18.03v18.03h-18.03zm1.243-16.788V61.12h15.544V45.575H41.347z"/>
            <path d="M40.277 45.399l.88-.88 16.795 16.795-.88.88z"/>
            <path d="M40.278 61.315l16.794-16.794.88.88-16.795 16.794zM40.726 64.228h9.948v1.244h-9.948zM40.726 66.715h8.083v1.244h-8.083z"/>
        </g>
        <g fill="#475059">
            <path d="M60.622 62.363V44.332h18.03v18.03h-18.03zm1.243-16.788V61.12H77.41V45.575H61.865z"/>
            <path d="M60.795 45.4l.88-.88 16.794 16.794-.88.88z"/>
            <path d="M60.795 61.316L77.589 44.52l.88.88-16.794 16.794zM61.306 64.228h9.948v1.244h-9.948zM61.306 66.715h8.083v1.244h-8.083z"/>
        </g>
        <g fill="#475059">
            <path d="M81.14 62.363V44.332H99.17v18.03H81.14zm1.243-16.788V61.12h15.544V45.575H82.383z"/>
            <path d="M81.313 45.399l.88-.88 16.794 16.795-.88.88z"/>
            <path d="M81.313 61.316L98.107 44.52l.88.88-16.794 16.794z"/>
        </g>
        <path fill="#475059" d="M99.171 16.352H19.585v-6.217h79.586v6.217zM20.829 15.11h77.098v-3.73H20.83v3.73z"/>
        <g fill="#475059">
            <path d="M22.073 39.358V21.326h18.03v18.032h-18.03zm1.243-16.788v15.544H38.86V22.57H23.316z"/>
            <path d="M22.242 22.396l.88-.88 16.794 16.795-.88.88z"/>
            <path d="M22.243 38.311l16.794-16.794.88.88L23.122 39.19z"/>
        </g>
        <g fill="#475059">
            <path d="M56.27 25.057h23.627v1.244H56.27zM56.27 27.544h16.166v1.244H56.27zM56.27 31.274h23.627v1.244H56.27zM56.27 33.761h16.166v1.244H56.27z"/>
        </g>
        <path fill="#475059" d="M82.383 12.622h14.301v1.244H82.383z"/>
        <g fill="#475059">
            <path d="M19.585 89.098v-18.03h18.032v18.03H19.585zm1.244-16.787v15.544h15.544V72.31H20.83z"/>
            <path d="M19.791 72.183l.88-.88 16.795 16.795-.88.88z"/>
            <path d="M19.748 88.055l16.794-16.794.88.88-16.795 16.794zM20.208 90.964h9.948v1.244h-9.948zM20.208 93.45h8.083v1.245h-8.083z"/>
        </g>
        <g fill="#475059">
            <path d="M40.104 89.098v-18.03h18.03v18.03h-18.03zm1.243-16.787v15.544h15.544V72.31H41.347z"/>
            <path d="M40.31 72.183l.879-.88 16.795 16.795-.88.88z"/>
            <path d="M40.265 88.055L57.06 71.261l.88.88-16.795 16.794zM40.726 90.964h9.948v1.244h-9.948zM40.726 93.45h8.083v1.245h-8.083z"/>
        </g>
        <g fill="#475059">
            <path d="M60.622 89.098v-18.03h18.03v18.03h-18.03zm1.243-16.787v15.544H77.41V72.31H61.865z"/>
            <path d="M60.828 72.183l.88-.88 16.794 16.794-.88.88z"/>
            <path d="M60.783 88.055l16.795-16.794.88.88-16.795 16.794zM61.306 90.964h9.948v1.244h-9.948zM61.306 93.45h8.083v1.245h-8.083z"/>
        </g>
        <g fill="#475059">
            <path d="M96.995 87.855H83.254l6.901-6.902 6.84 6.902v-.622h2.176V71.067H81.14v18.031h15.855v-1.243zm.932-.87l-6.901-6.902 6.901-6.902v13.803zm-.87-14.674l-6.902 6.901-6.901-6.901h13.803zm-14.674.933l6.902 6.901-6.902 6.902V73.244zM81.824 90.964h9.948v1.244h-9.948zM81.824 93.45h8.083v1.245h-8.083z"/>
        </g>
        <path fill="#5FE0ED" d="M46.321 97.803h26.114v3.731H46.321z"/>
        <g fill="#475059">
            <path d="M101.658 28.041l1.244.498V.187H15.855v41.658h1.243V1.43h84.56zM101.658 40.663V82.26h1.244V43.648z"/>
        </g>
        <path fill="#48515A" d="M102.902 45.202l-8.705-21.078 19.958 8.518-5.471 3.296 4.974 4.974-2.611 2.611-4.85-4.85-3.295 6.53zm-6.405-18.715l6.529 15.73 2.798-5.595 5.223 5.223.87-.87-5.223-5.224 4.788-2.86-14.985-6.404z"/>
        <path fill="#475059" d="M22.321 57.016l-1.181-.374.186-.621-.808-.249a2.278 2.278 0 0 1-1.554-2.176c0-.995.621-1.865 1.554-2.176l.808-.249-.435-1.368-.808.249c-.933.31-1.99 0-2.55-.808-.621-.809-.559-1.866 0-2.674l.498-.684-1.12-.808-.496.684c-.622.808-1.617 1.119-2.55.808a2.278 2.278 0 0 1-1.554-2.176v-.809h-1.43v.809c0 .995-.622 1.865-1.555 2.176-.932.31-1.99 0-2.549-.808l-.497-.684-1.12.808.498.684c.622.808.56 1.865 0 2.674-.622.808-1.617 1.119-2.55.808l-.807-.249-.187.622-1.181-.373.56-1.803 1.989.621c.497.187.933-.062 1.181-.373.187-.31.311-.746 0-1.243L3.42 45.575l3.17-2.3 1.244 1.678c.311.436.808.498 1.182.373.373-.124.746-.435.746-.994V42.28h3.917v2.052c0 .56.373.87.746.994.373.125.808.063 1.181-.373l1.244-1.678 3.17 2.3-1.243 1.679c-.31.435-.186.933 0 1.243.187.311.622.56 1.182.373l1.99-.621 1.18 3.73-1.99.622c-.559.187-.745.622-.745.995s.186.808.746.995l1.99.621-.809 1.804z"/>
        <path fill="#F58E70" d="M16.601 55.212l-1.181-.373c.31-.994.248-2.114-.249-3.046-.497-.933-1.306-1.679-2.363-1.99-2.114-.684-4.414.498-5.098 2.55l-1.182-.374c.871-2.735 3.855-4.29 6.653-3.357a5.088 5.088 0 0 1 3.047 2.611c.746 1.182.808 2.612.373 3.98z"/>
        <path fill="#F58E70" d="M11.627 58.819c-.56 0-1.12-.063-1.617-.25a5.088 5.088 0 0 1-3.046-2.61 5.35 5.35 0 0 1-.311-4.042l1.181.373c-.31.995-.249 2.114.249 3.047.497.932 1.306 1.679 2.363 1.99.994.31 2.114.248 3.046-.25.933-.497 1.679-1.305 1.99-2.362l1.181.373a5.088 5.088 0 0 1-2.611 3.047c-.808.435-1.617.684-2.425.684z"/>
        <path fill="#475059" d="M13.554 64.788H9.637v-2.052c0-.56-.373-.87-.746-.995-.373-.124-.808-.062-1.181.373l-1.244 1.679-3.17-2.3 1.243-1.68c.31-.435.186-.932 0-1.243-.187-.31-.622-.56-1.181-.373l-1.99.622-1.181-3.73 1.99-.623c.559-.186.745-.621.745-.994 0-.374-.186-.809-.746-.995l-1.99-.622.684-2.052 1.182.373-.187.933.809.249a2.278 2.278 0 0 1 1.554 2.176c0 .994-.622 1.865-1.554 2.176l-.809.249.436 1.367.808-.248c.932-.311 1.99 0 2.549.808.622.808.56 1.865 0 2.674l-.497.684 1.119.808.497-.684c.622-.808 1.617-1.12 2.55-.808a2.278 2.278 0 0 1 1.554 2.176v.808h1.43v-.808c0-.995.622-1.866 1.554-2.176.933-.311 1.99 0 2.55.808l.497.684 1.12-.808-.498-.684c-.622-.809-.56-1.866 0-2.674.621-.808 1.616-1.12 2.549-.808l.808.248.311-.932 1.181.373-.684 2.114-1.99-.622c-.497-.186-.932.062-1.18.373-.187.311-.311.746 0 1.244l1.243 1.678-3.171 2.3-1.243-1.678c-.311-.435-.809-.497-1.182-.373-.373.124-.746.435-.746.995l.124 1.99z"/>
        <g fill="#FFD15D" transform="translate(8.705 50.363)">
            <circle cx="2.86" cy="3.233" r="2.487"/>
            <path d="M2.86 6.031A2.786 2.786 0 0 1 .062 3.233 2.786 2.786 0 0 1 2.86.435a2.786 2.786 0 0 1 2.798 2.798A2.786 2.786 0 0 1 2.86 6.031zm0-4.974c-1.181 0-2.176.995-2.176 2.176 0 1.182.995 2.176 2.176 2.176s2.176-.994 2.176-2.176A2.163 2.163 0 0 0 2.86 1.057z"/>
        </g>
        <path fill="#475059" d="M101.036 91.275h-4.663V86.61h4.663v4.664zm-3.42-1.244h2.177v-2.176h-2.176v2.176z"/>
        <g fill="#475059">
            <path d="M99.975 86.822l8.089-8.09.88.88-8.09 8.09z"/>
            <path d="M109.74 80.394a2.494 2.494 0 0 1-2.486-2.487 2.494 2.494 0 0 1 2.487-2.487 2.494 2.494 0 0 1 2.487 2.487 2.494 2.494 0 0 1-2.487 2.487zm0-3.73c-.683 0-1.243.559-1.243 1.243s.56 1.243 1.244 1.243c.684 0 1.243-.56 1.243-1.243 0-.684-.56-1.244-1.243-1.244z"/>
        </g>
        <g fill="#475059">
            <path d="M88.537 98.289l8.09-8.09.88.88-8.09 8.09z"/>
            <path d="M87.73 102.466c-.683 0-1.305-.248-1.74-.746-.498-.497-.746-1.119-.746-1.74a2.494 2.494 0 0 1 2.487-2.488c.684 0 1.305.249 1.74.746.436.498.747 1.12.747 1.741a2.494 2.494 0 0 1-2.487 2.487zm0-3.73c-.683 0-1.243.56-1.243 1.243 0 .311.124.622.373.87.249.25.56.374.87.374.685 0 1.244-.56 1.244-1.244 0-.31-.124-.621-.373-.87-.186-.249-.497-.373-.87-.373z"/>
        </g>
        <g fill="#475059">
            <path d="M99.487 90.496l.88-.88 7.913 7.915-.88.88z"/>
            <path d="M107.876 99.233c-.311 0-.622-.124-.87-.373-.063-.062-.125-.124-.125-.186-.062-.063-.062-.125-.125-.187 0-.062-.062-.124-.062-.249v-.248c0-.311.125-.622.373-.87.498-.436 1.306-.436 1.741 0 .249.248.373.559.373.87 0 .31-.124.621-.373.87-.31.249-.621.373-.932.373zM109.803 107.378l-1.679-1.679 7.213-7.212 1.679 1.679-.87.87-.81-.808-5.47 5.471.87.809z"/>
            <path d="M110.55 104.58l-6.218-1.119-5.534-13.119 1.368-1.368 13.181 5.534 1.12 6.217-1.244.25-.995-5.597-11.751-4.974-.187.249 4.974 11.751 5.534.995z"/>
        </g>
        <g fill="#48515A">
            <path d="M110.985 15.731h1.244v2.487h-1.244zM110.985 21.948h1.244v2.487h-1.244z"/>
            <g>
                <path d="M113.471 19.462h2.487v1.244h-2.487zM107.254 19.462h2.487v1.244h-2.487z"/>
            </g>
        </g>
        <g fill="#48515A">
            <path d="M7.088 84.187h1.244v2.487H7.088zM7.088 90.404h1.244v2.487H7.088z"/>
            <g>
                <path d="M9.575 87.917h2.487v1.244H9.575zM3.358 87.917h2.487v1.244H3.358z"/>
            </g>
        </g>
        <circle cx="108.995" cy="54.777" r="1.741" fill="#FFD15D"/>
        <circle cx="11.067" cy="20.269" r="1.741" fill="#FFD15D"/>
        <circle cx="11.067" cy="74.984" r="1.741" fill="#5FE0ED"/>
    </g>
</svg>
