<svg xmlns="http://www.w3.org/2000/svg" width="200" height="180" viewBox="0 0 200 180">
    <g fill="none" fill-rule="evenodd">
        <path fill="#FFF" d="M22.644 1.913h153.365v103.876H22.644z"/>
        <g fill-rule="nonzero" transform="translate(57.972 12.899)">
            <path fill="#475059" d="M74.898 33.724C74.06 16.93 60.703 3.545 43.995 2.704l.044-.887c17.149.842 30.859 14.624 31.74 31.819l-.881.088zM9.742 33.769l-.881-.045C9.742 16.485 23.452 2.704 40.6 1.817l.044.886c-16.708.798-30.11 14.27-30.903 31.066zM11.858 49.5a33.245 33.245 0 0 1-2.997-12.186l.881-.045a32.65 32.65 0 0 0 2.91 11.877l-.794.355zM40.6 69.088A33.016 33.016 0 0 1 20.764 61.2l.573-.665a32.338 32.338 0 0 0 19.353 7.667l-.088.886zM43.995 69.088l-.044-.886a32.83 32.83 0 0 0 20.146-8.332l.573.665a33.533 33.533 0 0 1-20.675 8.553zM69.387 55.306l-.705-.532a32.865 32.865 0 0 0 6.216-17.505l.881.045c-.352 6.514-2.556 12.763-6.392 17.992z"/>
            <path fill="#475059" d="M42.32 4.432a2.189 2.189 0 0 1-2.204-2.216C40.116.975 41.086 0 42.32 0c1.234 0 2.204.975 2.204 2.216 0 1.24-.97 2.216-2.204 2.216zm0-3.546c-.75 0-1.322.576-1.322 1.33 0 .753.573 1.33 1.322 1.33.75 0 1.323-.577 1.323-1.33 0-.754-.574-1.33-1.323-1.33zM42.32 70.95a2.189 2.189 0 0 1-2.204-2.216c0-1.241.97-2.216 2.204-2.216 1.234 0 2.204.975 2.204 2.216 0 1.196-.97 2.215-2.204 2.215zm0-3.546c-.75 0-1.322.576-1.322 1.33 0 .753.573 1.329 1.322 1.329.75 0 1.323-.576 1.323-1.33 0-.753-.574-1.329-1.323-1.329z"/>
            <g fill="#475059">
                <path d="M75.427 37.668a2.189 2.189 0 0 1-2.204-2.215c0-1.241.97-2.216 2.204-2.216 1.234 0 2.204.975 2.204 2.216a2.216 2.216 0 0 1-2.204 2.215zm0-3.545c-.75 0-1.323.576-1.323 1.33 0 .753.573 1.329 1.323 1.329s1.322-.576 1.322-1.33c0-.709-.617-1.329-1.322-1.329zM9.258 37.668a2.189 2.189 0 0 1-2.205-2.215c0-1.241.97-2.216 2.205-2.216 1.234 0 2.204.975 2.204 2.216a2.216 2.216 0 0 1-2.204 2.215zm0-3.545c-.75 0-1.323.576-1.323 1.33 0 .753.573 1.329 1.323 1.329.749 0 1.322-.576 1.322-1.33 0-.709-.617-1.329-1.322-1.329z"/>
            </g>
            <path fill="#475059" d="M28.522 17.992l-.838-.266c2.822-8.863 7.45-14.624 12.696-15.732l.177.887C35.707 3.9 31.21 9.572 28.522 17.992zM26.097 32.306l-.881-.044a60.68 60.68 0 0 1 .97-8.464l.881.177a58.817 58.817 0 0 0-.97 8.331zM26.274 47.506a70.088 70.088 0 0 1-1.058-8.641l.881-.044a61.383 61.383 0 0 0 1.014 8.508l-.837.177zM40.645 68.955c-5.29-1.02-9.963-6.603-12.828-15.377l.837-.266c2.733 8.331 7.23 13.87 12.123 14.801l-.132.842zM44.04 68.955l-.177-.886c4.893-.93 9.39-6.47 12.123-14.757l.837.266c-2.865 8.774-7.494 14.358-12.784 15.377zM58.322 47.728l-.881-.177c.573-2.97.925-5.939 1.102-8.952l.881.044c-.132 3.058-.484 6.116-1.102 9.085zM58.543 32.306c-.133-2.836-.485-5.672-.97-8.464l.882-.177a62.649 62.649 0 0 1 1.014 8.597l-.926.044zM56.118 17.992c-2.689-8.508-7.23-14.18-12.167-15.156l.176-.886c5.335 1.063 10.007 6.824 12.829 15.776l-.838.266zM30.109 20.252l-.176-.886a55.425 55.425 0 0 1 8.993-1.108l.044.886c-2.998.133-5.952.532-8.861 1.108zM9.875 33.857l-.882-.177c1.014-5.274 6.524-9.927 15.165-12.763l.264.842c-8.287 2.748-13.622 7.18-14.547 12.098zM24.158 49.988c-8.685-2.88-14.195-7.578-15.165-12.851l.882-.178c.925 4.964 6.26 9.395 14.591 12.187l-.308.842zM39.234 52.647a56.574 56.574 0 0 1-9.037-1.108l.176-.886c2.954.576 5.908.93 8.905 1.063l-.044.931zM45.714 52.647l-.044-.886a58.445 58.445 0 0 0 8.376-1.02l.177.887a60.286 60.286 0 0 1-8.509 1.019zM60.218 50.077l-.265-.842c8.288-2.704 13.843-7.224 14.857-12.143l.881.177c-1.102 5.318-6.745 9.971-15.473 12.808zM74.765 33.813c-.97-4.92-6.303-9.306-14.591-12.054l.264-.842c8.597 2.836 14.107 7.49 15.165 12.719l-.838.177zM54.355 20.208a60.882 60.882 0 0 0-8.95-1.064l.045-.886c3.042.133 6.083.488 9.081 1.108l-.176.842zM41.879 55.395h1v11.566h-1zM41.879 39.795h1v9.439h-1zM41.879 21.626h1v9.395h-1zM41.879 3.988h1V15.51h-1zM62.246 35.009h11.418v1H62.246zM46.728 35.009h9.39v1h-9.39zM28.61 35.009h9.61v1h-9.61zM11.021 35.009h11.55v1h-11.55z"/>
            <path fill="#475059" d="M42.32 40.327a4.848 4.848 0 0 1-4.85-4.874 4.848 4.848 0 0 1 4.85-4.875c2.69 0 4.85 2.171 4.85 4.875a4.848 4.848 0 0 1-4.85 4.874zm0-8.863a3.961 3.961 0 0 0-3.967 3.989 3.961 3.961 0 0 0 3.967 3.988 3.961 3.961 0 0 0 3.968-3.988 3.961 3.961 0 0 0-3.968-3.989zM42.32 22.158c-1.94 0-3.527-1.596-3.527-3.545 0-1.95 1.587-3.546 3.527-3.546 1.94 0 3.527 1.596 3.527 3.546 0 1.95-1.587 3.545-3.527 3.545zm0-6.204a2.66 2.66 0 0 0 0 5.318 2.66 2.66 0 0 0 0-5.318zM42.32 55.838c-1.94 0-3.527-1.596-3.527-3.546 0-1.95 1.587-3.545 3.527-3.545 1.94 0 3.527 1.596 3.527 3.545 0 1.95-1.587 3.546-3.527 3.546zm0-6.204a2.66 2.66 0 0 0 0 5.317 2.66 2.66 0 0 0 0-5.317zM59.072 38.998c-1.94 0-3.527-1.596-3.527-3.545 0-1.95 1.587-3.546 3.527-3.546 1.94 0 3.526 1.596 3.526 3.546 0 1.95-1.587 3.545-3.526 3.545zm0-6.204a2.66 2.66 0 0 0 0 5.317 2.66 2.66 0 0 0 0-5.317zM25.568 38.998c-1.94 0-3.526-1.596-3.526-3.545 0-1.95 1.587-3.546 3.526-3.546 1.94 0 3.527 1.596 3.527 3.546 0 1.95-1.587 3.545-3.527 3.545zm0-6.204a2.66 2.66 0 0 0 0 5.317 2.66 2.66 0 0 0 0-5.317zM27.332 24.374c-1.94 0-3.527-1.596-3.527-3.546 0-1.95 1.587-3.545 3.527-3.545 1.94 0 3.526 1.595 3.526 3.545s-1.587 3.546-3.526 3.546zm0-6.205a2.66 2.66 0 0 0 0 5.318 2.66 2.66 0 0 0 0-5.318zM57.308 24.374c-1.94 0-3.526-1.596-3.526-3.546 0-1.95 1.587-3.545 3.526-3.545 1.94 0 3.527 1.595 3.527 3.545s-1.543 3.546-3.527 3.546zm0-6.205a2.66 2.66 0 0 0 0 5.318 2.66 2.66 0 0 0 2.645-2.659c0-1.462-1.146-2.659-2.645-2.659zM27.332 54.065c-1.94 0-3.527-1.595-3.527-3.545s1.587-3.545 3.527-3.545c1.94 0 3.526 1.595 3.526 3.545a3.518 3.518 0 0 1-3.526 3.545zm0-6.204a2.66 2.66 0 0 0 0 5.318 2.66 2.66 0 0 0 0-5.318zM57.308 54.065c-1.94 0-3.526-1.595-3.526-3.545s1.587-3.545 3.526-3.545c1.94 0 3.527 1.595 3.527 3.545 0 1.994-1.543 3.545-3.527 3.545zm0-6.204a2.66 2.66 0 0 0 0 5.318 2.66 2.66 0 0 0 2.645-2.66c0-1.462-1.146-2.658-2.645-2.658z"/>
            <path fill="#FFD45C" d="M46.464 50.83a64.5 64.5 0 0 0 6.48-.753c.22-2.039 1.852-3.679 3.88-3.9.396-2.172.617-4.343.749-6.514-1.279-.444-2.292-1.507-2.733-2.837h-7.01c-.529 2.127-2.16 3.767-4.232 4.255v7.001a4.249 4.249 0 0 1 2.866 2.748zM46.552 17.416a56.13 56.13 0 0 1 7.142.886 4.233 4.233 0 0 1 1.19-1.152c-2.38-6.957-6.04-11.743-10.051-13.162a2.945 2.945 0 0 1-1.19 1.02v9.35c1.41.488 2.512 1.64 2.91 3.058zM30.947 18.302c2.38-.443 4.76-.709 7.141-.886.397-1.462 1.499-2.57 2.91-3.058v-9.35a2.945 2.945 0 0 1-1.19-1.02c-4.012 1.419-7.671 6.205-10.052 13.118.441.31.882.709 1.19 1.196zM27.023 31.287c1.323.487 2.337 1.507 2.733 2.88h6.965c.485-2.127 2.16-3.766 4.232-4.298v-7.046c-1.322-.444-2.38-1.463-2.82-2.748-2.16.133-4.321.399-6.437.753 0 2.305-1.763 4.166-4.012 4.388a70.955 70.955 0 0 0-.66 6.07zM47.919 34.123h6.965a4.435 4.435 0 0 1 2.733-2.88 54.817 54.817 0 0 0-.705-6.027c-2.249-.222-3.968-2.128-4.012-4.388a62.197 62.197 0 0 0-6.436-.753c-.485 1.33-1.499 2.349-2.821 2.748v7.001c2.116.532 3.747 2.216 4.276 4.3zM31.696 50.032c2.16.355 4.276.62 6.48.754a4.273 4.273 0 0 1 2.822-2.748v-7.002a5.624 5.624 0 0 1-4.232-4.254h-7.01a4.578 4.578 0 0 1-2.733 2.836c.132 2.172.397 4.343.75 6.515a4.419 4.419 0 0 1 3.923 3.9zM53.473 52.647a72.792 72.792 0 0 1-6.877.842c-.397 1.462-1.499 2.57-2.91 3.058v9.395c.486.221.882.576 1.19.975 3.924-1.374 7.54-6.027 9.964-12.763a4.03 4.03 0 0 1-1.367-1.507zM61.717 50.52c0 2.437-1.984 4.431-4.409 4.431h-.044c-1.719 4.875-4.011 8.686-6.656 11.3 10.932-2.924 19.44-11.521 22.35-22.467-2.557 2.703-6.392 5.008-11.241 6.736zM61.717 20.385c4.849 1.729 8.684 4.033 11.285 6.736-2.91-10.99-11.462-19.543-22.35-22.468 2.733 2.66 5.113 6.692 6.833 11.744a4.42 4.42 0 0 1 4.232 3.988zM72.605 36.782H63.26a4.399 4.399 0 0 1-3.042 2.925c-.132 2.304-.397 4.653-.838 6.913.573.31 1.102.798 1.5 1.33 6.7-2.394 11.329-6.027 12.695-9.971-.397-.31-.705-.71-.97-1.197zM61.144 23.044c-.397.71-.97 1.241-1.631 1.64.352 2.171.617 4.343.749 6.514a4.374 4.374 0 0 1 3.042 2.97h9.345c.22-.488.574-.887 1.014-1.197-1.41-3.9-5.907-7.534-12.52-9.927zM27.332 54.951c-2.425 0-4.409-1.994-4.409-4.431v-.044c-4.849-1.729-8.64-4.033-11.24-6.692a31.712 31.712 0 0 0 22.35 22.468c-2.69-2.57-4.982-6.426-6.701-11.3zM12.035 34.123h9.345c.441-1.418 1.587-2.526 3.042-2.97.132-2.17.397-4.342.75-6.513A4.824 4.824 0 0 1 23.54 23c-6.613 2.437-11.154 6.027-12.52 9.927.44.31.793.753 1.014 1.196zM23.761 47.994a5.23 5.23 0 0 1 1.455-1.33 73.077 73.077 0 0 1-.838-6.957 4.42 4.42 0 0 1-2.998-2.925h-9.345c-.22.487-.573.886-1.014 1.197 1.41 3.944 5.995 7.577 12.74 10.015zM27.2 16.397c1.719-5.052 4.1-9.085 6.832-11.744-10.888 2.925-19.44 11.478-22.35 22.468 2.601-2.659 6.436-5.007 11.241-6.691a4.467 4.467 0 0 1 4.276-4.033zM38.088 53.489a52.022 52.022 0 0 1-6.877-.842c-.309.576-.793 1.108-1.322 1.507 2.424 6.736 6.039 11.389 9.962 12.763a2.84 2.84 0 0 1 1.19-.975v-9.395c-1.454-.488-2.556-1.64-2.953-3.058z"/>
            <path fill="#DEDEDD" d="M80.144 63.903L67.8 58.585l5.378 13.118 2.116-4.299 3.13 3.147 1.279-1.197-3.218-3.235z"/>
            <path fill="#FFF" d="M75.735 59.472l-12.343-5.318L68.77 67.27l2.116-4.298 3.57 3.59 1.235-1.242-3.615-3.634z"/>
            <path fill="#48515A" d="M68.726 68.38l-6.172-15.024 14.151 6.071-3.88 2.349 3.527 3.545-1.851 1.862-3.439-3.457-2.336 4.653zm-4.54-13.384l4.628 11.212 1.984-3.989 3.703 3.723.617-.62-3.703-3.723 3.395-2.039-10.625-4.564z"/>
            <g fill="#475059">
                <path d="M15.826 63.416h-2.733l-.882-2.039-.97-.532-2.204.222-1.366-2.393 1.322-1.817v-1.108l-1.322-1.817 1.366-2.393 2.204.222.97-.532.882-2.039h2.733l.882 2.039.97.532 2.204-.222 1.366 2.393-1.322 1.817v1.108l1.322 1.817-1.366 2.393-2.205-.222-.97.532-.881 2.039zm-2.16-.887h1.587l.793-1.772 1.455-.842 1.94.221.793-1.373-1.146-1.551v-1.684l1.146-1.552-.793-1.373-1.94.221-1.455-.842-.793-1.772h-1.587l-.794 1.772-1.454.842-1.94-.221-.794 1.373 1.147 1.552v1.684l-1.147 1.55.794 1.374 1.94-.221 1.454.842.794 1.772z"/>
                <path d="M14.46 58.098a1.773 1.773 0 0 1 0-3.545 1.773 1.773 0 0 1 0 3.545zm0-2.66a.887.887 0 0 0 0 1.774.887.887 0 0 0 0-1.773z"/>
                <path d="M14.46 59.87c-1.94 0-3.527-1.595-3.527-3.545s1.587-3.545 3.526-3.545c1.94 0 3.527 1.595 3.527 3.545s-1.587 3.545-3.527 3.545zm0-6.204a2.66 2.66 0 0 0 0 5.318 2.66 2.66 0 0 0 0-5.318z"/>
            </g>
            <g fill="#48515A">
                <path d="M2.645 43.43h1v1.772h-1zM2.645 47.861h1v1.773h-1zM4.408 46.088h1.763v1H4.408zM0 46.088h1.763v1H0z"/>
            </g>
            <g fill="#48515A">
                <path d="M75.427 11.921h1v1.773h-1zM75.427 16.352h1v1.773h-1zM77.19 14.58h1.763v1H77.19zM72.782 14.58h1.763v1h-1.763z"/>
            </g>
            <g fill="#48515A">
                <path d="M81.157 50.963h1v1.773h-1zM81.157 55.395h1v1.773h-1zM82.92 53.622h1.763v1H82.92zM78.512 53.622h1.763v1h-1.763z"/>
            </g>
            <g fill="#FFD15D" transform="translate(4.408 12.852)">
                <ellipse cx="1.102" cy="1.108" rx="1" ry="1"/>
                <path d="M1.102 2.216A1.094 1.094 0 0 1 0 1.108C0 .488.485 0 1.102 0c.617 0 1.102.487 1.102 1.108 0 .62-.485 1.108-1.102 1.108zm0-1.773a.68.68 0 0 0-.661.665.68.68 0 0 0 .661.665.68.68 0 0 0 .661-.665.68.68 0 0 0-.66-.665z"/>
            </g>
            <ellipse cx="68.814" cy="3.545" fill="#5FE0ED" rx="1.763" ry="1.773"/>
            <ellipse cx="80.673" cy="42.986" fill="#F58E70" rx="1.323" ry="1.329"/>
        </g>
        <path fill="#34007E" fill-rule="nonzero" d="M172.958 107.697H26.232c-2.89 0-5.24-2.363-5.24-5.268V5.5c0-2.904 2.35-5.268 5.24-5.268h146.726c2.89 0 5.24 2.364 5.24 5.268v96.93c0 2.904-2.35 5.267-5.24 5.267zM26.232 2.34a3.156 3.156 0 0 0-3.144 3.16v96.93c0 1.742 1.41 3.16 3.144 3.16h146.726a3.156 3.156 0 0 0 3.144-3.16V5.5c0-1.743-1.41-3.16-3.144-3.16H26.232z"/>
        <path fill="#FFF" fill-rule="nonzero" d="M78.467 129.877h42.175l-3.461-22.972H82.006z"/>
        <path fill="#34007E" fill-rule="nonzero" d="M121.605 130.876h-44.02l.014-3.244 3.132-19.144v-2.898h37.728v3.074l3.146 19.14v3.072zm-41.923-2.107h39.827v-.878l-3.146-19.14v-1.054H82.827l-.014 1.048-3.131 19.145v.88z"/>
        <path fill="#34007E" fill-rule="nonzero" d="M72.346 128.768h54.498v2.107H72.346z"/>
        <path fill="#DEDEDD" fill-rule="nonzero" d="M82.006 126.662h35.175l-2.784-16.858H84.765zM24.82 89.934v12.643c0 .581.472 1.054 1.051 1.054h147.262c.58 0 1.052-.473 1.052-1.054V89.934H24.82z"/>
        <g fill="#50E3C2" fill-rule="nonzero">
            <path d="M6.344 88.148h2.115v4.23H6.344zM6.344 98.722h2.115v4.23H6.344zM10.574 94.492h4.23v2.115h-4.23zM0 94.492h4.23v2.115H0z"/>
        </g>
        <g fill="#FFF" fill-rule="nonzero">
            <path d="M191.812 157.778h2.04v4.23h-2.04zM191.812 168.352h2.04v4.23h-2.04zM195.89 164.122h4.078v2.115h-4.078zM185.694 164.122h4.078v2.115h-4.078z"/>
        </g>
        <g fill="#FFD45C" fill-rule="nonzero">
            <path d="M191.812 90.37h2.04v4.23h-2.04zM191.812 100.944h2.04v4.23h-2.04zM195.89 96.714h4.078v2.115h-4.078zM185.694 96.714h4.078v2.115h-4.078z"/>
        </g>
        <g fill="#FFD15D" fill-rule="nonzero" transform="translate(7.407 45.926)">
            <circle cx="3.425" cy="3.77" r="2.579"/>
            <path d="M3.425 6.878A3.112 3.112 0 0 1 .316 3.77 3.112 3.112 0 0 1 3.425.66 3.112 3.112 0 0 1 6.533 3.77a3.112 3.112 0 0 1-3.108 3.108zm0-5.158c-1.13 0-2.05.92-2.05 2.05s.92 2.05 2.05 2.05 2.05-.92 2.05-2.05-.92-2.05-2.05-2.05z"/>
        </g>
        <circle cx="104.815" cy="44.074" r="2.593" fill="#5FE0ED" fill-rule="nonzero"/>
        <circle cx="72.593" cy="35.556" r="2.222" fill="#FFF" fill-rule="nonzero"/>
        <circle cx="148.889" cy="170.37" r="2.222" fill="#FFF" fill-rule="nonzero"/>
        <path fill="#50E3C2" fill-rule="nonzero" d="M166.296 179.26a4.078 4.078 0 0 1-4.074-4.075 4.078 4.078 0 0 1 4.074-4.074 4.078 4.078 0 0 1 4.074 4.074 4.078 4.078 0 0 1-4.074 4.074zm0-6.112a2.04 2.04 0 0 0-2.037 2.037 2.04 2.04 0 0 0 2.037 2.037 2.04 2.04 0 0 0 2.037-2.037 2.04 2.04 0 0 0-2.037-2.037z"/>
        <path fill="#FFF" fill-rule="nonzero" d="M149.26 44.444a4.078 4.078 0 0 1-4.075-4.074 4.078 4.078 0 0 1 4.074-4.074 4.078 4.078 0 0 1 4.074 4.074 4.078 4.078 0 0 1-4.074 4.074zm0-6.11a2.04 2.04 0 0 0-2.038 2.036 2.04 2.04 0 0 0 2.037 2.037 2.04 2.04 0 0 0 2.037-2.037 2.04 2.04 0 0 0-2.037-2.037z"/>
        <g fill="#FFF" fill-rule="nonzero">
            <path d="M49.07 178.46h-2.22v-7.615h-1.11v-2.175h3.33z"/>
            <path d="M45.74 177.372h4.44v2.175h-4.44z"/>
        </g>
        <g fill="#FFF" fill-rule="nonzero">
            <path d="M191.292 54.015h-2.22v-7.614h-1.11v-2.175h3.33z"/>
            <path d="M187.961 52.928h4.441v2.175h-4.44z"/>
        </g>
        <path fill="#FFF" fill-rule="nonzero" d="M58.148 171.111c-1.838 0-3.333-1.395-3.333-3.11v-4.15c0-1.715 1.495-3.11 3.333-3.11s3.333 1.395 3.333 3.11v4.15c0 1.715-1.495 3.11-3.333 3.11zm0-8.296c-.612 0-1.111.464-1.111 1.037V168c0 .572.499 1.037 1.111 1.037.613 0 1.111-.465 1.111-1.037v-4.148c0-.573-.498-1.037-1.11-1.037zM195.185 80.74c-1.838 0-3.333-1.395-3.333-3.11V73.48c0-1.715 1.495-3.11 3.333-3.11s3.334 1.395 3.334 3.11v4.149c0 1.715-1.496 3.11-3.334 3.11zm0-8.296c-.613 0-1.11.465-1.11 1.037v4.149c0 .572.497 1.037 1.11 1.037.613 0 1.111-.465 1.111-1.037V73.48c0-.572-.498-1.037-1.11-1.037z"/>
    </g>
</svg>
