<svg xmlns="http://www.w3.org/2000/svg" width="120" height="100" viewBox="0 0 120 100">
    <g fill="none" fill-rule="nonzero">
        <g fill="#5FE0ED">
            <path d="M42.59 46.073c0-12.87 6.654-24.25 16.726-30.778a36.15 36.15 0 0 0-18.901-5.285C20.332 10.01 4.04 26.3 4.04 46.383s16.29 36.373 36.374 36.373c7.15 0 13.74-2.051 19.398-5.595C49.43 70.632 42.591 59.13 42.591 46.073zM79.585 10.01a36.315 36.315 0 0 0-18.901 5.285c10.072 6.529 16.725 17.845 16.725 30.778 0 13.119-6.901 24.621-17.222 31.088 5.595 3.544 12.248 5.595 19.398 5.595 20.083 0 36.374-16.29 36.374-36.373 0-20.082-16.29-36.373-36.374-36.373z"/>
        </g>
        <path fill="#48515A" d="M101.969 98.238H96.31c-8.207 0-15.917-4.414-20.083-11.502-4.663-.373-9.202-1.492-13.492-3.42l.497-1.12c4.228 1.928 8.767 3.048 13.43 3.358h.311l.187.311c3.917 6.902 11.254 11.13 19.15 11.13h.373c-.684-.373-1.368-.746-1.99-1.244a11.982 11.982 0 0 1-3.17-3.668c-.996-1.741-1.493-3.793-1.493-5.782v-2.177l.435-.124c5.845-1.74 11.316-4.85 15.73-9.016l.685-.683c5.285-5.161 8.953-11.627 10.57-18.84 3.917-16.85-3.544-34.072-18.467-42.777C81.7 2.61 59.067 7.524 47.44 23.876c-4.787 6.715-7.274 14.611-7.212 22.756v.56h-1.244v-.56c-.062-8.456 2.55-16.539 7.462-23.502C58.383 6.28 81.762 1.18 99.606 11.565c15.42 8.953 23.13 26.736 19.088 44.083-1.678 7.46-5.409 14.176-10.88 19.46l-.684.685c-4.415 4.228-9.886 7.399-15.793 9.202v1.243c0 1.803.435 3.607 1.368 5.223.746 1.306 1.678 2.425 2.86 3.295 1.865 1.43 4.166 2.239 6.528 2.239v1.243h-.124z"/>
        <g fill="#48515A">
            <path d="M12.062 80.891h1.244v2.487h-1.244zM12.062 87.109h1.244v2.487h-1.244z"/>
            <g>
                <path d="M14.549 84.622h2.487v1.244h-2.487zM8.332 84.622h2.487v1.244H8.332z"/>
            </g>
        </g>
        <path fill="#48515A" d="M23.69 98.238H18.03v-1.243c2.363 0 4.663-.746 6.529-2.239 1.18-.932 2.114-1.99 2.86-3.295a10.723 10.723 0 0 0 1.368-5.223v-1.243a40.087 40.087 0 0 1-15.793-9.202l-.684-.684A38.517 38.517 0 0 1 1.43 55.648c-4.042-17.41 3.667-35.13 19.087-44.083 10.819-6.28 23.69-7.15 35.44-2.425l2.177.995-.498 1.119-2.114-.933c-11.316-4.6-23.875-3.73-34.32 2.363C6.217 21.389-1.182 38.549 2.735 55.46c1.616 7.213 5.223 13.741 10.57 18.84l.684.683A39.037 39.037 0 0 0 29.72 84l.435.124v2.177c0 2.051-.497 4.041-1.492 5.782a11.982 11.982 0 0 1-3.17 3.668c-.623.498-1.306.87-1.99 1.244h.373c7.896 0 15.233-4.29 19.15-11.13l.186-.31h.311a39.325 39.325 0 0 0 18.653-6.156l2.239-1.554a39.467 39.467 0 0 0 10.507-11.938l.373-.622c3.11-5.658 4.726-12.124 4.788-18.59v-.622l1.243.062v.621c0 6.653-1.74 13.306-4.911 19.15l-.374.622a40.388 40.388 0 0 1-10.88 12.311l-2.3 1.617a40.267 40.267 0 0 1-18.902 6.342c-4.415 7.088-12.063 11.44-20.27 11.44z"/>
        <g fill="#48515A">
            <path d="M107.876 4.352h1.244V6.84h-1.244zM107.876 10.57h1.244v2.487h-1.244z"/>
            <g>
                <path d="M110.362 8.083h2.487v1.244h-2.487zM104.145 8.083h2.487v1.244h-2.487z"/>
            </g>
        </g>
        <path fill="#48515A" d="M42.031 44.207a.594.594 0 0 1-.56-.684c0-.31.311-.621.684-.56.311.063.622.312.56.685a.676.676 0 0 1-.684.56zm.249-2.487c-.373-.062-.622-.373-.56-.684.062-.373.373-.56.684-.497.311.062.56.373.498.684-.063.31-.311.56-.622.56.062-.063 0-.063 0-.063zm.373-2.425c-.311-.062-.56-.435-.498-.746a.645.645 0 0 1 .747-.497c.31.062.56.373.497.746-.062.31-.31.497-.622.497h-.124zm.56-2.425c-.311-.062-.498-.435-.436-.746.062-.31.435-.497.746-.435s.498.435.436.746c-.063.249-.311.435-.622.435h-.125zm.746-2.362c-.311-.125-.498-.498-.374-.809.125-.31.498-.497.809-.373.31.125.497.498.373.809a.597.597 0 0 1-.56.435c-.062-.062-.186-.062-.248-.062zm.932-2.363c-.31-.124-.435-.497-.31-.808.124-.311.497-.435.808-.311.31.124.435.497.31.808-.124.249-.31.373-.56.373-.123 0-.186 0-.248-.062zm.995-2.238c-.31-.187-.435-.56-.249-.87.187-.312.56-.436.809-.25.31.187.435.56.248.871-.124.249-.31.31-.56.31-.061 0-.124 0-.248-.061zm1.244-2.176c-.311-.187-.374-.56-.187-.87.187-.312.56-.374.87-.187.311.186.374.56.187.87a.653.653 0 0 1-.56.31c-.124-.061-.248-.061-.31-.123zm1.305-2.114c-.248-.187-.373-.56-.124-.87.186-.312.56-.312.87-.125.25.186.311.56.125.87a.565.565 0 0 1-.498.249c-.124 0-.248-.062-.373-.124zm1.492-1.99c-.248-.249-.31-.622-.062-.87.249-.25.622-.311.87-.063.25.187.312.622.125.87-.124.125-.31.25-.497.25a3.031 3.031 0 0 1-.436-.187zm1.617-1.928a.666.666 0 0 1-.062-.87.666.666 0 0 1 .87-.062.601.601 0 0 1 0 .87.672.672 0 0 1-.435.187.299.299 0 0 1-.373-.125zm1.679-1.803a.601.601 0 0 1 0-.87c.249-.249.622-.249.87.062.249.249.249.622-.062.87a.564.564 0 0 1-.435.187c-.062-.062-.249-.124-.373-.249zm1.865-1.678c-.249-.25-.186-.684.062-.87.249-.25.684-.187.87.061.187.249.187.684-.061.87-.125.063-.25.125-.374.125-.186.062-.373 0-.497-.186zm1.928-1.493c-.187-.31-.125-.684.124-.87.249-.187.684-.124.87.124.187.249.125.684-.124.87-.124.063-.249.125-.373.125-.187 0-.373-.124-.497-.249zm2.051-1.43c-.186-.31-.062-.684.187-.87.31-.187.684-.062.87.186.187.311.063.684-.186.87-.125.063-.249.063-.373.063a.565.565 0 0 1-.498-.249zm2.114-1.305c-.186-.311-.062-.684.25-.87.31-.187.683-.063.87.248.186.31.062.684-.25.87-.061.063-.186.063-.31.063-.187.062-.435-.063-.56-.311zm2.239-1.12c-.125-.31 0-.683.31-.808.311-.124.685 0 .809.311.124.31 0 .684-.311.808-.062.063-.187.063-.249.063-.248 0-.435-.125-.56-.374zm2.3-.994c-.124-.311.062-.684.373-.809.311-.124.684.063.809.373.124.311-.063.684-.374.809-.062 0-.124.062-.248.062a.597.597 0 0 1-.56-.435zm2.3-.809a.552.552 0 0 1 .436-.746.552.552 0 0 1 .746.435.552.552 0 0 1-.435.747h-.187c-.186 0-.435-.187-.56-.436zm2.426-.684c-.063-.31.124-.684.497-.746.31-.062.684.125.746.498.062.31-.124.684-.497.746h-.125c-.31 0-.56-.187-.621-.498zm2.424-.497c-.062-.31.187-.684.498-.684.31-.062.684.187.684.497.062.374-.187.684-.498.684h-.062c-.31.063-.56-.186-.622-.497zm2.488-.31c0-.374.248-.623.56-.685.31 0 .62.249.683.56 0 .31-.249.622-.56.684h-.062c-.373 0-.621-.249-.621-.56zm2.424-.187c0-.311.25-.622.622-.622.311 0 .622.249.622.622s-.249.621-.622.621c-.31 0-.56-.31-.622-.621zM41.472 84c0-.31.248-.622.621-.622s.622.249.622.622-.249.622-.622.622c-.31-.062-.621-.311-.621-.622zm2.487-.187c0-.373.248-.621.56-.683.31-.063.62.186.683.56.062.372-.186.62-.56.683h-.062c-.31 0-.56-.186-.621-.56zm2.487-.248c-.063-.311.186-.684.497-.746.31-.063.684.186.684.497.062.31-.187.684-.497.684h-.125c-.249.062-.497-.187-.56-.435zm2.424-.498c-.062-.31.125-.684.436-.746.31-.062.684.125.746.435.062.311-.125.684-.435.747h-.125c-.31.062-.56-.125-.622-.436zm2.425-.621a.552.552 0 0 1 .436-.747c.31-.124.684.063.746.374a.552.552 0 0 1-.436.746c-.062 0-.124.062-.186.062a.597.597 0 0 1-.56-.435zm2.363-.747c-.124-.31.062-.683.373-.808.311-.124.684.062.808.373.125.311-.062.684-.373.809-.062 0-.124.062-.248.062-.25-.062-.498-.249-.56-.436zm2.3-.994c-.124-.311 0-.684.311-.809.311-.124.684 0 .809.311.124.311 0 .684-.311.809-.062.062-.187.062-.249.062-.249 0-.497-.125-.56-.373zm2.239-1.057c-.187-.311-.062-.684.249-.87.31-.187.684-.063.87.248.187.31.062.684-.249.87-.062.063-.186.063-.31.063a.653.653 0 0 1-.56-.311zm2.114-1.244c-.187-.31-.124-.684.186-.87.311-.187.684-.125.87.186.187.311.125.684-.186.87-.124.063-.248.125-.31.125a.653.653 0 0 1-.56-.31zm2.114-1.368c-.187-.248-.124-.684.124-.87.249-.187.684-.125.87.124.187.249.125.684-.124.87-.124.063-.248.125-.373.125-.186 0-.373-.124-.497-.249zm1.927-1.554c-.248-.249-.186-.684.063-.87.248-.25.621-.187.87.062.249.248.187.621-.062.87-.125.124-.249.124-.373.124-.187.063-.373 0-.498-.186zm1.866-1.617a.601.601 0 0 1 0-.87.601.601 0 0 1 .87 0 .601.601 0 0 1 0 .87.564.564 0 0 1-.435.187.672.672 0 0 1-.435-.187zm1.803-1.74a.666.666 0 0 1-.062-.871.666.666 0 0 1 .87-.062.666.666 0 0 1 .062.87.672.672 0 0 1-.435.187c-.187 0-.373-.062-.435-.125zm1.616-1.866c-.248-.186-.31-.622-.124-.87.249-.25.622-.311.87-.125.25.187.311.622.125.87-.125.125-.311.25-.498.25-.124 0-.248-.063-.373-.125zm1.493-1.99c-.25-.186-.374-.56-.187-.87.187-.31.56-.373.87-.187.311.187.374.56.187.87a.565.565 0 0 1-.497.25c-.125 0-.25 0-.373-.063zm1.367-2.114c-.31-.186-.373-.56-.248-.87.186-.31.56-.373.87-.249.311.187.373.56.249.87a.653.653 0 0 1-.56.312c-.062.062-.186 0-.31-.063zm1.244-2.114c-.31-.124-.435-.56-.249-.808.125-.31.56-.435.809-.249.31.125.435.56.248.809-.124.248-.31.373-.56.373a.471.471 0 0 0-.248-.125zm1.057-2.238c-.311-.124-.497-.497-.311-.808.124-.311.497-.498.808-.311.311.124.436.497.311.808-.124.249-.31.373-.56.373-.062-.062-.124-.062-.248-.062zm.933-2.363c-.311-.124-.498-.497-.373-.808.124-.31.497-.497.808-.373.31.124.497.497.373.808a.597.597 0 0 1-.56.436c-.062 0-.186 0-.248-.063zm.808-2.362c-.311-.062-.56-.436-.435-.746.062-.311.435-.56.746-.436.31.063.56.436.435.746-.062.311-.31.436-.622.436 0 .062-.062.062-.124 0zm.622-2.363a.645.645 0 0 1-.498-.746.645.645 0 0 1 .746-.497c.311.062.56.373.498.746-.062.31-.311.497-.622.497h-.124zm.435-2.487c-.373-.062-.56-.373-.56-.684.062-.373.373-.56.684-.56.373.063.56.374.56.684-.062.311-.311.56-.622.56h-.062zm.31-2.425a.594.594 0 0 1-.559-.684c0-.373.311-.622.684-.56.373 0 .622.311.56.685a.729.729 0 0 1-.684.56zM39.482 52.539l-6.529-6.466h4.042v1.243H36l3.482 3.42 3.42-3.42h-.933v-1.243h3.98zM87.171 47.316h-3.98v-1.243h.996l-3.482-3.482-3.482 3.482h.995v1.243h-3.98l6.467-6.528zM107.876 90.84a3.742 3.742 0 0 1-3.73-3.731 3.742 3.742 0 0 1 3.73-3.73 3.742 3.742 0 0 1 3.73 3.73 3.742 3.742 0 0 1-3.73 3.73zm0-6.218a2.494 2.494 0 0 0-2.487 2.487 2.494 2.494 0 0 0 2.487 2.487 2.494 2.494 0 0 0 2.487-2.487c0-1.43-1.12-2.487-2.487-2.487z"/>
        <circle cx="57.264" cy="97.306" r="2.487" fill="#5FE0ED"/>
        <circle cx="51.731" cy="2.798" r="2.487" fill="#FFD15D"/>
        <path fill="#48515A" d="M57.948 58.632l-3.917-1.243.684-2.052a1.118 1.118 0 0 0-.435-1.306 1.111 1.111 0 0 0-1.368 0l-1.741 1.306-2.363-3.296 1.741-1.305c.498-.373.56-.933.435-1.306a1.173 1.173 0 0 0-1.119-.808H47.69v-4.104h2.176c.622 0 .995-.435 1.12-.808a1.171 1.171 0 0 0-.436-1.306l-1.74-1.306 2.424-3.295 1.741 1.306a1.111 1.111 0 0 0 1.368 0c.31-.249.622-.684.435-1.306l-.684-2.052 3.917-1.243.684 2.052c.187.56.684.808 1.12.808.435 0 .932-.187 1.119-.808l.684-2.052 3.917 1.243-.684 2.052c-.187.56.062 1.057.435 1.306.31.249.87.373 1.368 0l1.74-1.306 2.363 3.295-1.74 1.306c-.498.373-.56.933-.436 1.306.125.373.498.808 1.12.808h2.176v4.104h-2.177c-.621 0-.994.435-1.119.808-.124.373-.062.933.436 1.306l1.74 1.305-2.424 3.296-1.741-1.306a1.111 1.111 0 0 0-1.368 0c-.311.249-.622.684-.435 1.306l.684 2.052-3.918 1.243-.684-2.052a1.168 1.168 0 0 0-1.119-.808c-.435 0-.932.187-1.119.808l-.684 2.052zm-2.3-2.052l1.554.498.311-.87a2.407 2.407 0 0 1 2.3-1.68c1.057 0 1.928.622 2.301 1.68l.31.87 1.555-.498-.31-.87c-.311-.995 0-2.052.87-2.674.87-.621 1.99-.621 2.798 0l.746.56.933-1.306-.747-.56c-.87-.621-1.18-1.678-.87-2.673a2.407 2.407 0 0 1 2.3-1.679h.933v-1.616H69.7c-1.057 0-1.927-.622-2.3-1.68-.31-.994 0-2.05.87-2.673l.747-.56-.933-1.243-.746.56c-.87.622-1.99.622-2.798 0-.87-.622-1.181-1.679-.87-2.674l.31-.87-1.554-.498-.311.87a2.407 2.407 0 0 1-2.3 1.68c-1.058 0-1.928-.622-2.301-1.68l-.31-.932-1.555.498.31.87c.311.995 0 2.052-.87 2.674-.87.621-1.99.621-2.798 0l-.746-.56-.933 1.306.747.56c.87.621 1.18 1.678.87 2.673a2.407 2.407 0 0 1-2.3 1.679h-.933v1.616h.932c1.057 0 1.928.622 2.301 1.679.31.995 0 2.052-.87 2.674l-.747.56.933 1.243.746-.56c.87-.622 1.99-.622 2.798 0 .87.622 1.181 1.679.87 2.674l-.31.932z"/>
        <path fill="#F58E70" d="M59.751 48.933c-.497 0-.932-.125-1.368-.436-.497-.373-.808-.932-.932-1.492-.125-.622.062-1.243.435-1.74.373-.498.933-.809 1.492-.933.622-.125 1.244.062 1.741.435 1.057.746 1.244 2.238.498 3.233-.436.56-1.12.933-1.866.933zm0-3.42h-.186c-.311.062-.56.186-.684.435a.943.943 0 0 0-.187.808c.062.311.187.56.436.684.497.373 1.18.25 1.492-.248.373-.498.248-1.182-.249-1.493a1.05 1.05 0 0 0-.622-.186z"/>
        <path fill="#48515A" d="M59.254 53.782c-.373 0-.622-.31-.56-.684 0-.373.311-.621.684-.56.311 0 .622.312.56.685a.676.676 0 0 1-.684.56zm1.865-.746a.552.552 0 0 1 .435-.746.552.552 0 0 1 .747.435.552.552 0 0 1-.436.747h-.186c-.249 0-.498-.125-.56-.436zm-4.414.062c-.311-.124-.436-.497-.311-.808.124-.31.497-.435.808-.31.311.124.435.497.311.808-.124.248-.31.373-.56.373-.124 0-.186 0-.248-.063zm6.653-.932c-.187-.249-.187-.684.124-.87.249-.25.684-.187.87.124.187.248.187.684-.124.87-.124.125-.249.125-.373.125-.187-.063-.373-.125-.497-.25zm-8.83-.622a.601.601 0 0 1 0-.87.601.601 0 0 1 .871 0 .601.601 0 0 1 0 .87.564.564 0 0 1-.435.187.672.672 0 0 1-.436-.187zm10.57-1.057c-.31-.186-.373-.56-.186-.87.186-.311.56-.373.87-.25.311.187.373.56.25.871a.653.653 0 0 1-.56.311c-.125 0-.25 0-.374-.062zm-12-1.181c-.124-.311 0-.684.311-.809.311-.124.684 0 .809.311.124.311 0 .684-.311.809-.062 0-.125.062-.249.062-.249.062-.497-.125-.56-.373zm13.057-1.057c-.31-.062-.56-.373-.497-.684.062-.311.373-.56.684-.498.373.063.56.373.497.684-.062.311-.31.498-.621.498h-.063zM52.54 46.756c0-.373.249-.621.622-.621.31 0 .621.248.621.621 0 .374-.248.622-.621.622-.311-.062-.622-.31-.622-.622zm13.057-1.367c-.062-.311.124-.684.497-.747.311-.062.684.125.746.498.063.31-.124.684-.497.746h-.124c-.311 0-.56-.249-.622-.497zm-12.249-.498c-.31-.124-.497-.435-.373-.746.124-.31.498-.497.808-.373.311.124.498.497.373.808a.597.597 0 0 1-.56.436c-.123-.063-.186-.063-.248-.125zm11.44-1.554c-.186-.311-.124-.684.187-.87.311-.187.684-.125.87.186.187.31.125.684-.186.87-.124.062-.249.125-.31.125-.25-.063-.436-.125-.56-.311zm-10.383-.622c-.249-.249-.31-.622-.062-.87.249-.25.622-.311.87-.063.25.25.311.622.063.87a.706.706 0 0 1-.498.187c-.124 0-.249 0-.373-.124zm8.891-.995c-.062 0-.062 0 0 0-.31-.248-.373-.622-.186-.87.186-.311.622-.373.87-.125.249.187.311.622.125.87a.565.565 0 0 1-.498.25c-.124 0-.248 0-.31-.125zm-7.15-.684c-.186-.31-.062-.684.249-.87.31-.187.684-.062.808.249.187.31.062.683-.249.87-.062.062-.186.062-.31.062-.187 0-.374-.124-.498-.31zm5.099-.248c-.311-.063-.56-.436-.436-.747.062-.31.436-.56.746-.435.311.062.56.435.436.746-.063.311-.311.498-.622.498 0 0-.062-.062-.124-.062zm-2.86-.684c-.063-.373.186-.622.559-.684.31-.062.622.186.684.56.062.372-.187.621-.56.683h-.062c-.31 0-.56-.248-.622-.56z"/>
        <g transform="translate(14.3 19.896)">
            <circle cx="8.394" cy="8.394" r="5.285" fill="#FFF"/>
            <g fill="#48515A">
                <path d="M12.31 19.212c-.372 0-.62-.248-.62-.621v-1.866c0-1.243.497-2.424 1.43-3.295a6.728 6.728 0 0 0 2.113-4.912c0-1.927-.746-3.668-2.114-4.974a6.687 6.687 0 0 0-5.098-1.865c-3.544.186-6.342 3.109-6.467 6.59-.062 1.928.747 3.855 2.114 5.223.933.87 1.43 1.99 1.43 3.171v1.99c0 .373-.248.622-.621.622s-.622-.25-.622-.622v-1.99c0-.87-.373-1.679-1.057-2.3C1.119 12.746.187 10.508.248 8.207.374 4.041 3.732.622 7.897.373a8.041 8.041 0 0 1 6.031 2.238c1.617 1.555 2.55 3.607 2.55 5.907a7.99 7.99 0 0 1-2.487 5.845c-.684.684-1.057 1.492-1.057 2.425v1.865c0 .31-.311.56-.622.56z"/>
                <path d="M8.456 23.69a.623.623 0 0 1-.622-.623c0-.373.249-.621.622-.621h1.679a2.366 2.366 0 0 0 1.057-.498c.31-.31.56-.808.56-1.306v-1.99c0-.372.248-.62.621-.62s.622.248.622.62v1.928c0 .809-.311 1.555-.87 2.176-.498.498-1.12.809-1.804.87h-.062l-1.803.063z"/>
                <path d="M13.74 19.212H3.172c-.373 0-.622-.248-.622-.621s.249-.622.622-.622h10.57c.373 0 .622.249.622.622 0 .31-.311.621-.622.621z"/>
                <path d="M8.456 23.69H6.902c-.809 0-1.555-.312-2.177-.871-.56-.56-.87-1.368-.87-2.177v-1.74c0-.374.249-.622.622-.622s.621.248.621.622v1.74c0 .498.187.933.56 1.306.31.311.808.56 1.306.56h1.554c.373 0 .622.248.622.622-.062.248-.373.56-.684.56zM10.321 18.59H9.078v-4.538l3.233-6.218V7.15h1.243v.995l-3.233 6.218zM7.648 18.59H6.404v-4.227L3.171 8.145V7.15h1.244v.684l3.233 6.218zM10.383 7.585c0-.373.25-.621.622-.621.311 0 .622.248.622.621a.623.623 0 0 1-1.244 0zm-2.487 0c0-.373.25-.621.622-.621.311 0 .622.248.622.621a.623.623 0 0 1-1.244 0zm-2.487 0c0-.373.249-.621.622-.621.311 0 .622.248.622.621a.623.623 0 0 1-1.244 0z"/>
            </g>
        </g>
    </g>
</svg>
