<svg xmlns="http://www.w3.org/2000/svg" width="120" height="120" viewBox="0 0 120 120">
    <g fill="none" fill-rule="nonzero">
        <g>
            <path fill="#FFD15D" d="M70.321 116.891h-21.14V31.088h21.14z"/>
            <path fill="#475059" d="M77.782 119.378H41.72v-4.974h4.974v-3.73H41.72v-4.975h4.974V42.28H41.72v-4.973h4.974v-3.73H41.72V28.6h36.062v4.974h-4.974v3.73h4.974v4.975h-4.974v63.42h4.974v4.974h-4.974v3.73h4.974v4.974zm-34.818-1.243h33.575v-2.487h-4.974v-6.218h4.974v-2.487h-4.974V41.036h4.974V38.55h-4.974v-6.217h4.974v-2.487H42.964v2.487h4.974v6.217h-4.974v2.487h4.974v65.907h-4.974v2.487h4.974v6.218h-4.974v2.487z"/>
            <path fill="#475059" d="M77.782 33.575H41.72v-4.974h36.062v4.974zm-34.818-1.243h33.575v-2.487H42.964v2.487zM77.782 42.28H41.72v-4.974h36.062v4.974zm-34.818-1.244h33.575V38.55H42.964v2.487zM77.782 110.674H41.72v-4.975h36.062v4.975zm-34.818-1.244h33.575v-2.487H42.964v2.487zM77.782 119.378H41.72v-4.974h36.062v4.974zm-34.818-1.243h33.575v-2.487H42.964v2.487zM59.751 27.42L42.653 5.596H76.85L59.75 27.42zM45.202 6.84l14.55 18.528L74.3 6.839H45.202z"/>
            <path fill="#475059" d="M110.238 16.104l-35.44-.622h-5.596v-1.244h5.596l35.44.622zM66.155 19.212V17.97h9.762l34.321-.622v1.244l-34.32.621z"/>
            <g fill="#FFD15D" transform="translate(111.917 13.679)">
                <circle cx="2.674" cy="3.047" r="1.865"/>
                <path d="M2.674 5.534A2.494 2.494 0 0 1 .187 3.047 2.494 2.494 0 0 1 2.674.56 2.494 2.494 0 0 1 5.16 3.047a2.494 2.494 0 0 1-2.487 2.487zm0-3.73c-.684 0-1.244.559-1.244 1.243S1.99 4.29 2.674 4.29c.684 0 1.243-.56 1.243-1.243 0-.684-.56-1.244-1.243-1.244z"/>
            </g>
            <path fill="#475059" d="M114.59 21.7a4.989 4.989 0 0 1-4.973-4.975 4.989 4.989 0 0 1 4.974-4.974 4.989 4.989 0 0 1 4.974 4.974 4.989 4.989 0 0 1-4.974 4.974zm0-8.705a3.742 3.742 0 0 0-3.73 3.73 3.742 3.742 0 0 0 3.73 3.731 3.742 3.742 0 0 0 3.731-3.73 3.742 3.742 0 0 0-3.73-3.731z"/>
            <g fill="#475059">
                <path d="M30.466 77.036H4.352v-3.73a3.742 3.742 0 0 0-3.73-3.73H0v-3.731h34.819v3.73h-.622a3.742 3.742 0 0 0-3.73 3.73v3.731zm-24.87-1.243h23.627v-2.487c0-2.55 1.927-4.601 4.352-4.912v-1.306H1.244v1.306c2.424.31 4.352 2.425 4.352 4.912v2.487zM32.394 61.492H31.15v-.56l-10.943-42.59 1.182-.31 11.005 42.776z"/>
            </g>
            <path fill="#FFD15D" d="M6.84 74.55h21.14v-1.244a6.21 6.21 0 0 1 2.486-4.974H4.352a6.21 6.21 0 0 1 2.487 4.974v1.243z"/>
            <path fill="#475059" d="M26.798 79.523H8.145v-3.73h18.653v3.73zM9.388 78.28h16.166v-1.244H9.39v1.244zM3.793 61.492H2.549v-.808L16.29 11.75h3.482l.87 3.358-1.18.373-.685-2.487h-1.492L3.793 60.933zM2.549 62.736h1.244v3.73H2.549zM31.212 62.736h1.244v3.73h-1.244z"/>
            <g fill="#475059">
                <path d="M115.088 77.036H88.974v-3.73a3.742 3.742 0 0 0-3.73-3.73h-.622v-3.731h34.818v3.73h-.621a3.742 3.742 0 0 0-3.73 3.73v3.731zm-24.87-1.243h23.627v-2.487c0-2.55 1.927-4.601 4.352-4.912v-1.306H85.865v1.306c2.425.31 4.353 2.425 4.353 4.912v2.487zM117.016 61.492h-1.244v-.56l-10.943-42.59 1.181-.31 11.006 42.776z"/>
            </g>
            <path fill="#FFD15D" d="M91.461 74.55h21.14v-1.244a6.21 6.21 0 0 1 2.487-4.974H88.974a6.21 6.21 0 0 1 2.487 4.974v1.243z"/>
            <path fill="#475059" d="M111.42 79.523H92.767v-3.73h18.653v3.73zM94.01 78.28h16.166v-1.244H94.01v1.244zM88.415 61.492H87.17v-.808l13.74-48.933h3.483l.87 3.358-1.181.373-.684-2.487h-1.554l-13.43 47.938zM87.17 62.736h1.245v3.73H87.17zM115.772 62.736h1.244v3.73h-1.244z"/>
            <g>
                <path fill="#475059" d="M9.575 16.104V14.86l35.44-.622h5.659v1.244h-5.658zM53.658 19.212h-9.762l-34.32-.621v-1.244l34.32.622h9.762z"/>
                <g fill="#FFD15D" transform="translate(2.487 13.679)">
                    <circle cx="2.736" cy="3.047" r="1.865"/>
                    <path d="M2.736 5.534A2.494 2.494 0 0 1 .249 3.047 2.494 2.494 0 0 1 2.736.56a2.494 2.494 0 0 1 2.487 2.487 2.494 2.494 0 0 1-2.487 2.487zm0-3.73c-.684 0-1.244.559-1.244 1.243s.56 1.243 1.244 1.243c.684 0 1.243-.56 1.243-1.243 0-.684-.56-1.244-1.243-1.244z"/>
                </g>
                <path fill="#475059" d="M5.223 21.7a4.989 4.989 0 0 1-4.974-4.975 4.989 4.989 0 0 1 4.974-4.974 4.989 4.989 0 0 1 4.974 4.974A4.989 4.989 0 0 1 5.223 21.7zm0-8.705a3.742 3.742 0 0 0-3.73 3.73 3.742 3.742 0 0 0 3.73 3.731 3.742 3.742 0 0 0 3.73-3.73 3.742 3.742 0 0 0-3.73-3.731z"/>
            </g>
            <path fill="#475059" d="M62.86 103.834h-6.218V44.145h6.218v59.69zm-4.974-1.243h3.73V45.389h-3.73v57.202zM52.912 103.834h-6.218V44.145h6.218v59.69zm-4.974-1.243h3.73V45.389h-3.73v57.202zM72.808 103.834h-6.217V44.145h6.217v59.69zm-4.974-1.243h3.73V45.389h-3.73v57.202z"/>
            <path fill="#F58E70" d="M47.751 8.083l12 15.295 12-15.295z"/>
            <g fill="#48515A">
                <path d="M103.274 94.508h1.244v2.487h-1.244zM103.274 100.726h1.244v2.487h-1.244z"/>
                <g>
                    <path d="M105.762 98.238h2.487v1.244h-2.487zM99.544 98.238h2.487v1.244h-2.487z"/>
                </g>
            </g>
            <g fill="#48515A">
                <path d="M28.663 0h1.244v2.487h-1.244zM28.663 6.218h1.244v2.487h-1.244z"/>
                <g>
                    <path d="M31.15 3.73h2.487v1.245H31.15zM24.932 3.73h2.487v1.245h-2.487z"/>
                </g>
            </g>
            <circle cx="32.394" cy="93.264" r="1.244" fill="#F58E70"/>
            <circle cx="87.109" cy="27.358" r="1.244" fill="#5FE0ED"/>
            <circle cx="97.057" cy="111.917" r="1.244" fill="#FFD15D"/>
            <circle cx="21.202" cy="105.699" r="1.244" fill="#FFD15D"/>
        </g>
        <path fill="#475059" d="M33.948 51.093H19.4a3.742 3.742 0 0 1-3.73-3.73c0-.995.372-1.928 1.119-2.612.684-.684 1.616-1.119 2.611-1.119h14.55a2.494 2.494 0 0 1 2.486 2.487c0 .684-.248 1.306-.746 1.741-.497.498-1.12.746-1.74.746H18.776v-1.243h15.171c.311 0 .622-.125.87-.373.25-.25.374-.56.374-.87 0-.685-.56-1.244-1.244-1.244H19.4c-.684 0-1.306.248-1.741.746-.497.497-.746 1.119-.746 1.74a2.494 2.494 0 0 0 2.487 2.488h14.55c.994 0 1.927-.373 2.61-1.12a3.757 3.757 0 0 0 1.12-2.673 3.742 3.742 0 0 0-3.73-3.73H18.776v-1.244h15.171a4.989 4.989 0 0 1 4.974 4.974c0 1.306-.497 2.611-1.43 3.544-.995.995-2.238 1.492-3.544 1.492z"/>
    </g>
</svg>
