<svg xmlns="http://www.w3.org/2000/svg" width="126" height="112" viewBox="0 0 126 112">
    <g fill="none" fill-rule="nonzero">
        <path fill="#5FE0ED" d="M78.668 42.5c0-8.291-2.938-15.864-7.77-21.805C55.884 24.482 44.72 38.061 44.72 54.251c0 8.291 2.872 15.864 7.769 21.805C67.504 72.335 78.668 58.691 78.668 42.5z"/>
        <path fill="#DFE0E0" d="M86.502 50.334c0-11.555-5.68-21.805-14.363-28.072 4.113 5.68 6.529 12.665 6.529 20.238 0 16.19-11.164 29.835-26.18 33.556 2.416 3.003 5.354 5.55 8.683 7.638 14.559-4.047 25.33-17.43 25.33-33.36z"/>
        <g fill="#48515A">
            <path d="M41.586 8.683c.783-.065 1.567-.13 2.416-.13 9.4 0 18.149 3.72 24.677 10.51l.914-.914c-6.79-7.05-15.864-10.902-25.657-10.902-.979 0-1.893.065-2.807.13.13.392.326.849.457 1.306zM72.596 21.805l-1.044.783c4.178 5.81 6.463 12.665 6.463 19.847.065 18.345-14.232 33.295-32.577 34.013-.196 0-.392.13-.522.261-3.395 4.962-8.944 8.03-14.95 8.095 3.068-1.762 5.157-5.092 5.157-8.878v-.131c0-.261-.196-.522-.457-.653-14.428-4.178-24.482-17.496-24.547-32.511 0-8.16 2.873-15.669 7.638-21.544-.26-.327-.522-.718-.783-1.11-5.158 6.137-8.226 14.036-8.16 22.654.065 15.407 10.314 29.182 25.069 33.621-.196 4.766-4.048 8.552-8.88 8.552a.654.654 0 0 0-.652.653c0 .392.326.653.653.653h4.766a19.52 19.52 0 0 0 16.06-8.422c18.867-.914 33.556-16.386 33.49-35.319-.065-7.442-2.35-14.558-6.724-20.564z"/>
        </g>
        <path fill="#48515A" d="M99.754 97.339H94.99c-6.137 0-12.013-2.938-15.734-7.834-9.793 0-19.259-4.178-25.852-11.36l.979-.914C60.78 84.217 69.919 88.2 79.386 88.2h.26c.197 0 .392.065.523.261 3.395 4.7 8.879 7.508 14.624 7.573-3.134-1.763-5.223-5.092-5.223-8.879 0-.26.196-.587.457-.652a33.915 33.915 0 0 0 23.241-32.25 33.84 33.84 0 0 0-2.35-12.47 33.161 33.161 0 0 0-19.194-18.998l-2.872-1.11a33.208 33.208 0 0 0-11.686-1.305C59.8 21.413 45.764 35.906 45.373 53.403c-.196 7.507 2.023 14.623 6.397 20.695l-1.044.783c-4.505-6.267-6.855-13.71-6.66-21.478.458-18.15 14.951-33.23 33.1-34.34a34.62 34.62 0 0 1 12.143 1.371l2.938 1.11c9.14 3.46 16.386 10.706 19.911 19.78 1.632 4.114 2.416 8.488 2.416 12.927a35.18 35.18 0 0 1-23.698 33.295c.26 4.7 4.113 8.487 8.878 8.487.392 0 .653.261.653.653a.654.654 0 0 1-.653.653z"/>
        <g fill="#48515A">
            <path d="M27.746 49.681a8.47 8.47 0 0 1-8.487-8.487 8.47 8.47 0 0 1 8.487-8.487 8.47 8.47 0 0 1 8.487 8.487 8.47 8.47 0 0 1-8.487 8.487zm0-15.668a7.16 7.16 0 0 0-7.181 7.181 7.16 7.16 0 0 0 7.18 7.182 7.16 7.16 0 0 0 7.182-7.182 7.16 7.16 0 0 0-7.181-7.18z"/>
            <path d="M35.253 49.355a.593.593 0 0 1-.456-.196l-3.918-3.917a.631.631 0 0 1 0-.914.631.631 0 0 1 .914 0l3.917 3.917a.631.631 0 0 1 0 .914.593.593 0 0 1-.457.196z"/>
        </g>
        <g fill="#48515A">
            <path d="M103.476 64.697c-.262 0-.457-.13-.588-.392l-5.94-13.057-5.942 13.057c-.13.326-.522.457-.848.326-.327-.13-.457-.522-.327-.848L96.36 49.42c.13-.261.326-.392.587-.392.261 0 .457.131.588.392l6.528 14.363c.13.326 0 .718-.326.848-.066.066-.196.066-.261.066z"/>
            <path d="M100.864 59.474H93.03c-.392 0-.653-.261-.653-.653s.261-.653.653-.653h7.834c.392 0 .653.261.653.653s-.261.653-.653.653z"/>
        </g>
        <path fill="#48515A" d="M114.313 29.182l-1.306-.261c2.024-9.597.588-17.17-4.113-21.87l.914-.914c5.027 4.961 6.594 12.991 4.505 23.045z"/>
        <path fill="#475059" d="M39.628 16.06l-1.24-.392.195-.653-.849-.26a2.392 2.392 0 0 1-1.632-2.286c0-1.044.653-1.958 1.632-2.285l.849-.26-.457-1.437-.849.261c-.979.327-2.089 0-2.676-.849-.653-.848-.588-1.958 0-2.807l.522-.718-1.175-.914-.522.718c-.653.849-1.698 1.175-2.677.849a2.392 2.392 0 0 1-1.632-2.285v-.849h-1.502v.849a2.392 2.392 0 0 1-1.632 2.285c-.98.326-2.089 0-2.677-.849l-.522-.718-1.24.849.522.718c.653.849.588 1.958 0 2.807-.653.849-1.697 1.175-2.677.849l-.848-.196-.196.653-1.24-.392.587-1.893 2.09.653c.521.196.978-.066 1.24-.392.195-.326.326-.783 0-1.306l-1.306-1.762 3.33-2.416 1.305 1.763c.326.457.849.522 1.24.391.392-.13.784-.457.784-1.044V.588h4.113v2.154c0 .587.391.914.783 1.044.392.131.849.066 1.24-.391l1.306-1.763 3.33 2.416L35.84 5.81c-.326.457-.196.98 0 1.306.196.326.653.588 1.24.392l2.09-.653 1.24 3.917-2.09.653c-.587.196-.783.653-.783 1.044 0 .392.196.849.784 1.045l2.089.653-.783 1.893z"/>
        <path fill="#F58E70" d="M33.621 14.167l-1.24-.457c.326-1.045.261-2.22-.261-3.2-.522-.978-1.371-1.762-2.481-2.088-1.045-.327-2.22-.261-3.199.26-.98.458-1.763 1.372-2.089 2.416l-1.24-.391a5.343 5.343 0 0 1 2.742-3.2 5.617 5.617 0 0 1 4.243-.326 5.343 5.343 0 0 1 3.199 2.742 5.617 5.617 0 0 1 .326 4.244z"/>
        <path fill="#F58E70" d="M28.399 17.888c-.588 0-1.175-.065-1.698-.261a5.343 5.343 0 0 1-3.199-2.742 5.617 5.617 0 0 1-.326-4.244l1.24.392c-.326 1.045-.26 2.22.261 3.199.523.98 1.371 1.763 2.481 2.09 1.045.325 2.22.26 3.2-.262.978-.522 1.762-1.371 2.088-2.48l1.24.39a5.343 5.343 0 0 1-2.741 3.2 4.728 4.728 0 0 1-2.546.718z"/>
        <path fill="#475059" d="M30.422 24.22H26.31v-2.154c0-.587-.392-.914-.784-1.044-.392-.131-.849-.066-1.24.391l-1.306 1.763-3.33-2.416 1.306-1.762c.327-.457.196-.98 0-1.306-.196-.326-.653-.588-1.24-.392l-2.09.653-1.24-3.917 2.09-.653c.587-.196.783-.653.783-1.044 0-.392-.196-.849-.784-1.045l-2.089-.653.718-2.154 1.24.392-.195.914.849.26a2.392 2.392 0 0 1 1.632 2.286 2.392 2.392 0 0 1-1.632 2.285l-.849.26.457 1.437.849-.261c.979-.326 2.089 0 2.676.849.653.848.588 1.958 0 2.807l-.587.718 1.175.849.522-.718c.653-.85 1.698-1.176 2.677-.85a2.392 2.392 0 0 1 1.632 2.286v.848h1.501v-.848c0-1.045.653-1.959 1.633-2.285.979-.327 2.089 0 2.676.849l.523.718 1.175-.849-.523-.718c-.652-.849-.587-1.959 0-2.807.653-.85 1.698-1.175 2.677-.85l.849.262.326-.98 1.24.393-.718 2.22-2.089-.654c-.522-.196-.979.066-1.24.392-.196.326-.327.783 0 1.306l1.306 1.762-3.33 2.416-1.306-1.763c-.326-.457-.848-.522-1.24-.391-.392.13-.783.457-.783 1.044l.195 2.154z"/>
        <g fill="#FFD15D" transform="translate(24.808 9.14)">
            <circle cx="3.525" cy="3.329" r="2.611"/>
            <path d="M3.525 6.267A2.926 2.926 0 0 1 .588 3.33 2.926 2.926 0 0 1 3.525.392a2.926 2.926 0 0 1 2.938 2.937 2.926 2.926 0 0 1-2.938 2.938zm0-5.222c-1.24 0-2.285 1.044-2.285 2.284 0 1.24 1.045 2.285 2.285 2.285 1.24 0 2.285-1.044 2.285-2.285 0-1.24-1.044-2.284-2.285-2.284z"/>
        </g>
        <circle cx="8.161" cy="23.568" r="1.306" fill="#FFD15D"/>
        <circle cx="110.004" cy="91.463" r="2.611" fill="#FFD15D"/>
        <circle cx="76.056" cy="103.214" r="1.306" fill="#FFD15D"/>
        <g fill="#48515A">
            <path d="M4.243 60.127H5.55v2.61H4.243zM4.243 66.656H5.55v2.61H4.243z"/>
            <g>
                <path d="M6.855 64.044h2.611v1.306H6.855zM.326 64.044h2.611v1.306H.326z"/>
            </g>
        </g>
        <g fill="#48515A">
            <path d="M62.999 101.908h1.306v2.611h-1.306zM62.999 108.437h1.306v2.611h-1.306z"/>
            <g>
                <path d="M65.61 105.825h2.612v1.306H65.61zM59.082 105.825h2.61v1.306h-2.61z"/>
            </g>
        </g>
        <circle cx="123.061" cy="61.432" r="2.611" fill="#FFD15D"/>
        <path fill="#48515A" d="M113.268 32.055c-.065 0-.196 0-.261-.066-.065-.065-.13-.065-.196-.13a.705.705 0 0 1-.196-.457c0-.196.066-.327.196-.457.065-.066.13-.13.196-.13.261-.131.522-.066.718.13.13.13.196.26.196.457a.593.593 0 0 1-.196.457.593.593 0 0 1-.457.196zM10.445 88.46c-.065-.326.196-.653.588-.718.326 0 .653.261.718.588 0 .326-.196.652-.587.718h-.066c-.326 0-.587-.261-.653-.588zm-.13-2.676c0-.327.261-.653.653-.653.326 0 .653.26.653.653 0 .391-.262.652-.653.652-.392 0-.653-.26-.653-.652zm.653-1.959a.623.623 0 0 1-.588-.718c0-.392.327-.653.718-.588.392 0 .653.327.588.718 0 .327-.327.588-.718.588.065 0 .065 0 0 0zm.26-2.611a.765.765 0 0 1-.587-.719.765.765 0 0 1 .718-.587.765.765 0 0 1 .588.718c-.065.326-.326.588-.653.588 0 .065-.065.065-.065 0zm.393-2.546c-.392-.066-.588-.392-.523-.784a.677.677 0 0 1 .784-.522.677.677 0 0 1 .522.783c-.065.327-.326.523-.653.523h-.13zm.522-2.547c-.327-.065-.588-.457-.457-.783.065-.326.457-.588.783-.457.327.065.588.457.457.783-.065.327-.326.523-.653.523-.065-.066-.065-.066-.13-.066zm.653-2.546c-.327-.13-.523-.457-.457-.783.13-.326.457-.522.783-.457.327.13.522.457.457.783-.065.261-.326.457-.653.457h-.13zm.783-2.48c-.326-.131-.522-.523-.392-.85.131-.326.523-.521.85-.39.326.13.521.521.39.848-.064.261-.326.457-.652.457-.065-.065-.13-.065-.196-.065zm.849-2.481c-.327-.13-.522-.523-.392-.849.13-.326.522-.522.849-.392.326.13.522.523.392.849-.066.261-.327.392-.588.392a.199.199 0 0 1-.261 0zm.98-2.416c-.327-.13-.523-.522-.327-.848.13-.327.522-.457.848-.327.327.13.523.522.327.849-.13.26-.327.392-.588.392-.065 0-.196 0-.26-.066zm1.044-2.415c-.327-.13-.457-.523-.327-.849.13-.326.522-.457.849-.326.326.13.457.522.326.848-.13.261-.326.392-.587.392-.066 0-.196 0-.261-.065z"/>
        <g fill="#475059">
            <path d="M25.787 94.466c0 .457 0 .914-.13 1.306h2.089v11.816H6.79V95.772h2.154a2.886 2.886 0 0 1-.13-1.306h-3.33v14.428H29.05V94.466h-3.264z"/>
            <path d="M17.235 107.85l-1.436-1.567H8.095V91.855h8.16l1.045 1.044 1.045-1.044h8.095v14.428h-7.573l-1.632 1.567zm-7.834-2.873h6.92l.914 1.045 1.045-1.045h6.79V93.161h-6.268l-1.632 1.566-1.567-1.566H9.27v11.816h.13z"/>
            <path d="M10.642 94.532h3.982v1.306h-3.982zM10.642 97.143h3.982v1.306h-3.982zM10.642 99.754h3.982v1.306h-3.982zM19.78 94.532h3.983v1.306H19.78zM19.78 97.143h3.983v1.306H19.78zM19.78 99.754h3.983v1.306H19.78zM16.648 95.968h1.306v6.398h-1.306zM10.642 102.366h3.982v1.306h-3.982zM19.78 102.366h3.983v1.306H19.78z"/>
        </g>
        <g fill="#48515A">
            <path d="M74.555 5.614c-.327.131-.523.523-.327.85.13.26.327.39.588.39.065 0 .196 0 .26-.064.327-.131.458-.523.327-.85-.13-.326-.457-.456-.848-.326zM87.09 1.567a.677.677 0 0 0-.523.783c.065.327.326.523.653.523h.13a.677.677 0 0 0 .523-.784.677.677 0 0 0-.784-.522zM72.204 6.724c-.326.13-.457.523-.326.849.13.261.326.392.588.392.065 0 .195 0 .26-.066.327-.13.458-.522.327-.848-.13-.327-.522-.457-.849-.327zM84.543 2.154c-.326.066-.587.457-.457.784.065.326.327.522.653.522h.13c.327-.065.588-.457.458-.783-.066-.392-.457-.588-.784-.523zM81.997 2.873c-.326.13-.522.456-.457.783.065.261.326.457.653.457h.196c.326-.13.522-.457.457-.784-.13-.326-.523-.522-.849-.456zM65.219 10.38c-.326.196-.392.588-.261.914.13.196.326.327.587.327.131 0 .196 0 .327-.066.326-.196.392-.587.26-.914-.195-.326-.652-.457-.913-.26zM69.854 7.9c-.326.13-.457.587-.261.913.13.196.326.327.588.327.065 0 .195 0 .26-.065.327-.131.458-.588.262-.914-.196-.327-.588-.457-.849-.262zM62.934 11.751c-.326.196-.392.588-.196.914.13.196.327.327.588.327.13 0 .26-.066.326-.131.327-.196.392-.588.196-.914-.196-.326-.588-.392-.914-.196zM67.504 9.075c-.327.195-.457.587-.261.913.13.196.326.327.587.327.13 0 .196 0 .327-.065.326-.196.457-.588.26-.914a.807.807 0 0 0-.913-.261zM92.377.849a.623.623 0 0 0-.587.718c0 .326.326.587.652.587h.066a.623.623 0 0 0 .587-.718.765.765 0 0 0-.718-.587zM106.87 4.505c-.196.26-.13.718.13.914.131.065.262.13.393.13.195 0 .391-.065.522-.261.196-.326.13-.718-.13-.914-.327-.261-.719-.13-.915.13zM97.665.849c-.326-.066-.653.196-.718.587 0 .327.261.653.588.718h.065c.326 0 .653-.26.653-.587.065-.327-.196-.653-.588-.718zM102.953 1.959c-.326-.131-.718.065-.848.391-.131.327.065.718.391.849.066 0 .13.065.196.065a.627.627 0 0 0 .588-.457c.196-.391 0-.783-.327-.848zM109.808 6.137a.631.631 0 0 0-.914 0 .631.631 0 0 0 0 .914c.13.13.327.196.457.196a.593.593 0 0 0 .457-.196c.261-.261.261-.718 0-.914zM105.434 2.938c-.326-.13-.718 0-.849.326-.13.327 0 .718.327.849.065.065.196.065.26.065.262 0 .458-.13.588-.326a.75.75 0 0 0-.326-.914zM94.989.718a.654.654 0 0 0-.653.653c0 .326.326.653.653.653a.654.654 0 0 0 .652-.653.654.654 0 0 0-.652-.653zM100.342 1.24c-.327-.065-.718.131-.784.523-.065.326.131.718.523.783h.13c.327 0 .588-.196.653-.522a.677.677 0 0 0-.522-.784zM89.7 1.11c-.326.065-.587.392-.522.718.066.326.327.588.653.588h.065c.327-.066.588-.392.523-.719 0-.391-.327-.587-.718-.587zM78.602 2.807a2.55 2.55 0 0 0-2.546 2.546A2.55 2.55 0 0 0 78.602 7.9a2.55 2.55 0 0 0 2.546-2.546c0-1.436-1.11-2.546-2.546-2.546zm-1.11 3.069a1.23 1.23 0 0 1-.13-.523c0-.26.065-.457.196-.653a1.236 1.236 0 0 1 1.044-.587c.196 0 .327.065.457.065.327.13.588.392.718.784.066.13.066.26.066.391a1.24 1.24 0 0 1-1.24 1.24c-.523 0-.915-.326-1.11-.717z"/>
        </g>
        <g fill="#48515A">
            <path d="M52.946 98.383c-8.226 3.917-15.995 6.007-22.524 5.941v1.24h.066c6.79 0 14.82-2.154 23.24-6.136-.325-.261-.587-.653-.782-1.045zM81.41 74.032l2.807 1.828c-7.9 7.77-16.256 14.167-24.351 18.933.196.391.391.783.457 1.24 8.421-4.896 17.104-11.49 25.2-19.52l3.068 1.828 2.285-9.336-9.467 5.027zm6.332 2.155l-3.656-2.155 4.831-2.611-1.175 4.766z"/>
            <path d="M56.47 101.256a4.542 4.542 0 0 1-4.569-4.57 4.542 4.542 0 0 1 4.57-4.57 4.542 4.542 0 0 1 4.57 4.57 4.542 4.542 0 0 1-4.57 4.57zm0-7.834a3.233 3.233 0 0 0-3.263 3.264 3.233 3.233 0 0 0 3.264 3.264 3.233 3.233 0 0 0 3.264-3.264 3.233 3.233 0 0 0-3.264-3.264z"/>
        </g>
    </g>
</svg>
