<svg xmlns="http://www.w3.org/2000/svg" width="369" height="369" viewBox="0 0 369 369">
    <defs>
        <linearGradient id="a" x1="50%" x2="50%" y1="0%" y2="100%">
            <stop offset="0%" stop-color="#FFEC95"/>
            <stop offset="100%" stop-color="#FFD45C"/>
        </linearGradient>
    </defs>
    <g fill="none" fill-rule="evenodd">
        <circle cx="183" cy="183" r="180" fill="url(#a)"/>
        <path fill="#FFF" d="M42 67h283v182H42z"/>
        <path fill="#FFF" d="M82 4h202v245H82z"/>
        <path fill="#48515A" fill-rule="nonzero" d="M94.5 22c-3.632 0-6.5-2.868-6.5-6.5S90.868 9 94.5 9s6.5 2.868 6.5 6.5-2.868 6.5-6.5 6.5zm0-9.176c-1.53 0-2.676 1.147-2.676 2.676 0 1.53 1.147 2.676 2.676 2.676 1.53 0 2.676-1.147 2.676-2.676 0-1.53-1.147-2.676-2.676-2.676zM113.5 22c-3.632 0-6.5-2.868-6.5-6.5s2.868-6.5 6.5-6.5 6.5 2.868 6.5 6.5-2.868 6.5-6.5 6.5zm0-9.176c-1.53 0-2.676 1.147-2.676 2.676 0 1.53 1.147 2.676 2.676 2.676 1.53 0 2.676-1.147 2.676-2.676 0-1.53-1.147-2.676-2.676-2.676zM131.5 22c-3.632 0-6.5-2.868-6.5-6.5s2.868-6.5 6.5-6.5 6.5 2.868 6.5 6.5-3.059 6.5-6.5 6.5zm0-9.176c-1.53 0-2.676 1.147-2.676 2.676 0 1.53 1.147 2.676 2.676 2.676 1.53 0 2.676-1.147 2.676-2.676 0-1.53-1.338-2.676-2.676-2.676z"/>
        <g fill-rule="nonzero">
            <path fill="#DEDEDD" d="M188.146 146.058h84.56v49.967h-84.56zM95.899 146.058h84.56v49.967h-84.56z"/>
            <path fill="#FFD45C" d="M96.091 94.169H273.09v44.202H96.091z"/>
            <circle cx="344.005" cy="55.733" r="5.765" fill="#FFF"/>
            <path fill="#DEDEDD" d="M293.654 123.765l-53.811-23.062 23.638 56.886 9.225-18.642 13.645 13.645 5.573-5.189-14.03-14.029zM80.716 215.244V65.342H44.778z"/>
            <path fill="#DEDEDD" d="M286.35 215.244V65.342h36.515zM40.358 221.01v25.367c0 2.498 2.114 5.573 4.613 5.573h277.126c2.498 0 4.612-2.882 4.612-5.573v-24.791l-286.35-.577z"/>
            <path fill="#DEDEDD" d="M151.824 251.758h65.342v26.905h-65.342zM82.638 1.922h203.713v26.905H82.638z"/>
            <g fill="#48515A">
                <path d="M322.097 253.68H44.97c-3.844 0-6.535-3.844-6.535-7.495V69.57c0-3.46 2.883-6.15 6.342-6.15H80.716v3.844H44.971c-1.346-.193-2.499.768-2.691 2.114V246.185c0 1.73 1.345 3.651 2.69 3.651h277.127c1.345 0 2.69-1.921 2.69-3.651V69.378c0-1.538-1.153-2.69-2.69-2.69l-36.13.191v-3.843l36.13-.193c3.651 0 6.534 2.883 6.534 6.535v177c0 3.458-2.69 7.302-6.534 7.302zM132.605 276.742h101.856v3.844H132.605z"/>
                <path d="M149.901 251.758h3.844v26.905h-3.844zM213.321 251.758h3.844v26.905h-3.844z"/>
            </g>
            <path fill="#48515A" d="M288.273 221.01h-3.844V3.843H84.56v217.165h-3.844V0h207.557z"/>
            <path fill="#DEDEDD" d="M63.42 297.882h192.182a3.855 3.855 0 0 1 3.843 3.843v61.499a3.855 3.855 0 0 1-3.843 3.843H63.42a3.855 3.855 0 0 1-3.844-3.843v-61.499a3.855 3.855 0 0 1 3.844-3.843z"/>
            <path fill="#48515A" d="M255.602 368.99H63.42c-3.267 0-5.765-2.5-5.765-5.766v-61.499c0-3.267 2.498-5.765 5.765-5.765h192.182c3.267 0 5.765 2.498 5.765 5.765v61.499c0 3.267-2.498 5.765-5.765 5.765zM63.42 299.803c-1.153 0-1.922.768-1.922 1.921v61.499c0 1.153.769 1.921 1.922 1.921h192.182c1.153 0 1.922-.768 1.922-1.921v-61.499c0-1.153-.77-1.921-1.922-1.921H63.42z"/>
            <g fill="#FFF">
                <path d="M84.56 315.178H65.342v-11.53H84.56v11.53zm-15.375-3.843h11.531v-3.844h-11.53v3.844zM99.935 315.178H88.404v-11.53h11.53v11.53zm-7.688-3.843h3.844v-3.844h-3.844v3.844zM115.31 315.178h-11.532v-11.53h11.531v11.53zm-7.688-3.843h3.843v-3.844h-3.843v3.844zM130.684 315.178h-11.531v-11.53h11.53v11.53zm-7.688-3.843h3.844v-3.844h-3.844v3.844zM146.058 315.178h-11.53v-11.53h11.53v11.53zm-7.687-3.843h3.844v-3.844h-3.844v3.844zM161.433 315.178h-11.531v-11.53h11.53v11.53zm-7.688-3.843h3.844v-3.844h-3.844v3.844zM176.807 315.178h-11.53v-11.53h11.53v11.53zm-7.687-3.843h3.844v-3.844h-3.844v3.844zM192.182 315.178H180.65v-11.53h11.53v11.53zm-7.687-3.843h3.843v-3.844h-3.843v3.844zM207.556 315.178h-11.53v-11.53h11.53v11.53zm-7.687-3.843h3.844v-3.844h-3.844v3.844zM222.93 315.178H211.4v-11.53h11.53v11.53zm-7.686-3.843h3.843v-3.844h-3.843v3.844zM238.305 315.178h-11.53v-11.53h11.53v11.53zm-7.687-3.843h3.844v-3.844h-3.844v3.844zM253.68 315.178h-11.53v-11.53h11.53v11.53zm-7.687-3.843h3.843v-3.844h-3.843v3.844zM76.873 330.553H65.342v-11.531h11.53v11.53zm-7.688-3.844h3.844v-3.844h-3.844v3.844zM92.247 330.553h-11.53v-11.531h11.53v11.53zm-7.687-3.844h3.844v-3.844H84.56v3.844zM107.622 330.553H96.09v-11.531h11.53v11.53zm-7.687-3.844h3.843v-3.844h-3.843v3.844zM122.996 330.553h-11.53v-11.531h11.53v11.53zm-7.687-3.844h3.844v-3.844h-3.844v3.844zM138.37 330.553h-11.53v-11.531h11.53v11.53zm-7.686-3.844h3.843v-3.844h-3.843v3.844zM153.745 330.553h-11.53v-11.531h11.53v11.53zm-7.687-3.844h3.844v-3.844h-3.844v3.844zM169.12 330.553h-11.53v-11.531h11.53v11.53zm-7.687-3.844h3.843v-3.844h-3.843v3.844zM184.495 330.553h-11.531v-11.531h11.53v11.53zm-7.688-3.844h3.844v-3.844h-3.844v3.844zM199.87 330.553h-11.532v-11.531h11.531v11.53zm-7.688-3.844h3.843v-3.844h-3.843v3.844zM215.244 330.553h-11.531v-11.531h11.53v11.53zm-7.688-3.844h3.844v-3.844h-3.844v3.844zM230.618 330.553h-11.53v-11.531h11.53v11.53zm-7.687-3.844h3.844v-3.844h-3.844v3.844zM253.68 330.553h-19.218v-11.531h19.218v11.53zm-15.375-3.844h11.531v-3.844h-11.53v3.844zM84.56 345.927H65.342v-11.53H84.56v11.53zm-15.375-3.843h11.531v-3.844h-11.53v3.844zM99.935 345.927H88.404v-11.53h11.53v11.53zm-7.688-3.843h3.844v-3.844h-3.844v3.844zM115.31 345.927h-11.532v-11.53h11.531v11.53zm-7.688-3.843h3.843v-3.844h-3.843v3.844zM130.684 345.927h-11.531v-11.53h11.53v11.53zm-7.688-3.843h3.844v-3.844h-3.844v3.844zM146.058 345.927h-11.53v-11.53h11.53v11.53zm-7.687-3.843h3.844v-3.844h-3.844v3.844zM161.433 345.927h-11.531v-11.53h11.53v11.53zm-7.688-3.843h3.844v-3.844h-3.844v3.844zM176.807 345.927h-11.53v-11.53h11.53v11.53zm-7.687-3.843h3.844v-3.844h-3.844v3.844zM192.182 345.927H180.65v-11.53h11.53v11.53zm-7.687-3.843h3.843v-3.844h-3.843v3.844zM207.556 345.927h-11.53v-11.53h11.53v11.53zm-7.687-3.843h3.844v-3.844h-3.844v3.844zM222.93 345.927H211.4v-11.53h11.53v11.53zm-7.686-3.843h3.843v-3.844h-3.843v3.844zM238.305 345.927h-11.53v-11.53h11.53v11.53zm-7.687-3.843h3.844v-3.844h-3.844v3.844zM253.68 345.927h-11.53v-11.53h11.53v11.53zm-7.687-3.843h3.843v-3.844h-3.843v3.844zM76.873 361.302H65.342V349.77h11.53v11.53zm-7.688-3.844h3.844v-3.843h-3.844v3.843zM92.247 361.302h-11.53V349.77h11.53v11.53zm-7.687-3.844h3.844v-3.843H84.56v3.843zM107.622 361.302H96.09V349.77h11.53v11.53zm-7.687-3.844h3.843v-3.843h-3.843v3.843zM122.996 361.302h-11.53V349.77h11.53v11.53zm-7.687-3.844h3.844v-3.843h-3.844v3.843zM207.556 361.302H126.84V349.77h80.716v11.53zm-76.872-3.844h73.029v-3.843h-73.03v3.843zM222.93 361.302H211.4V349.77h11.53v11.53zm-7.686-3.844h3.843v-3.843h-3.843v3.843zM238.305 361.302h-11.53V349.77h11.53v11.53zm-7.687-3.844h3.844v-3.843h-3.844v3.843zM253.68 361.302h-11.53V349.77h11.53v11.53zm-7.687-3.844h3.843v-3.843h-3.843v3.843z"/>
            </g>
            <path fill="#48515A" d="M153.745 295.96c0-5.381 4.42-9.61 9.61-9.61h163.354c3.267 0 5.766-2.497 5.766-5.765 0-3.267-2.499-5.765-5.766-5.765h-61.498c-5.381 0-9.61-4.228-9.801-9.61v-15.374h3.843v15.375c0 3.267 2.69 5.765 5.958 5.765h61.498c5.381 0 9.61 4.228 9.61 9.61 0 5.38-4.229 9.609-9.61 9.609H163.355c-3.268 0-5.766 2.498-5.766 5.765h-3.844z"/>
            <path fill="#FFF" d="M288.273 303.647h23.062c4.228 0 7.687 3.46 7.687 7.688v42.28c0 4.228-3.46 7.687-7.687 7.687h-23.062c-4.228 0-7.688-3.46-7.688-7.687v-42.28c0-4.228 3.46-7.688 7.688-7.688z"/>
            <path fill="#48515A" d="M297.882 303.647h3.844v15.375h-3.844z"/>
            <path fill="#48515A" d="M311.335 363.224h-23.062c-5.381 0-9.61-4.228-9.61-9.61v-42.28c0-5.38 4.229-9.609 9.61-9.609h23.062c5.38 0 9.609 4.228 9.609 9.61v42.28c0 5.38-4.228 9.609-9.61 9.609zm-23.062-57.655c-3.267 0-5.766 2.498-5.766 5.766v42.28c0 3.267 2.499 5.765 5.766 5.765h23.062c3.267 0 5.765-2.498 5.765-5.765v-42.28c0-3.268-2.498-5.766-5.765-5.766h-23.062z"/>
            <path fill="#FFF" d="M274.436 104.547l-53.811-23.062 23.446 56.886 9.225-18.642 15.566 15.567 5.381-5.381-15.758-15.759z"/>
            <path fill="#48515A" d="M244.07 142.983l-26.905-65.15 61.499 26.33-16.912 10.185 15.374 15.375-8.071 8.071-14.99-14.99-9.994 20.18zm-19.794-57.846l20.18 48.622 8.647-17.297 15.952 16.143 2.69-2.69-16.143-16.143 14.798-8.84-46.124-19.795z"/>
            <path fill="#FFF" d="M146.827 213.322H17.297c-4.229 0-7.688 3.267-7.688 7.303v.192c0 4.228 3.46 7.687 7.687 7.687h129.53l16.72-7.687-16.72-7.495z"/>
            <g fill="#48515A">
                <path d="M147.211 230.618H17.296c-5.38 0-9.609-4.42-9.609-9.609s4.228-9.417 9.417-9.609h130.107l20.756 9.61-20.756 9.608zM17.296 215.244c-3.075 0-5.765 2.306-5.765 5.38v.193c0 3.267 2.498 5.958 5.765 5.958h129.147l12.491-5.766-12.491-5.765H17.296z"/>
                <path d="M28.827 213.322h3.844v15.375h-3.844z"/>
                <path d="M30.75 219.087h115.308v3.844H30.75z"/>
            </g>
            <path fill="#FFF" d="M32.67 40.358c-4.227 0-7.686-3.46-7.686-7.687 0-4.228 3.459-7.687 7.687-7.687s7.687 3.459 7.687 7.687-3.46 7.687-7.687 7.687zm0-11.53a3.855 3.855 0 0 0-3.843 3.843 3.855 3.855 0 0 0 3.844 3.844 3.855 3.855 0 0 0 3.844-3.844 3.855 3.855 0 0 0-3.844-3.844z"/>
            <circle cx="36.515" cy="274.82" r="9.609" fill="#FFF"/>
            <g fill="#FFF">
                <path d="M353.615 295.96h3.844v7.687h-3.844zM353.615 315.178h3.844v7.687h-3.844z"/>
                <g>
                    <path d="M361.302 307.49h7.687v3.845h-7.687zM342.084 307.49h7.687v3.845h-7.687z"/>
                </g>
            </g>
            <g fill="#FFF">
                <path d="M11.53 69.185h3.845v7.687H11.53zM11.53 88.403h3.845v7.687H11.53z"/>
                <g>
                    <path d="M19.218 80.716h7.687v3.844h-7.687zM0 80.716h7.687v3.844H0z"/>
                </g>
            </g>
            <path fill="#5FE0ED" d="M88.404 46.124h192.181V34.4H88.404v11.723zm101.856-5.766c0 1.153-.769 1.922-1.922 1.922h-46.123c-1.154 0-1.922-.769-1.922-1.922s.768-1.922 1.922-1.922h46.123c.961 0 1.922.77 1.922 1.922z"/>
            <path fill="#48515A" d="M96.091 65.342h96.091v3.844H96.091zM96.091 57.655h76.873v3.844H96.091zM96.091 80.716h96.091v3.844H96.091zM96.091 73.029h76.873v3.844H96.091z"/>
            <g transform="translate(48.045 126.84)">
                <circle cx="34.593" cy="35.554" r="34.593" fill="#FFD15D"/>
                <g fill="#48515A">
                    <path d="M39.397 49.006H28.635c-3.46 0-6.15-2.69-6.15-6.15h3.844c0 1.346.96 2.307 2.306 2.307h10.762c1.538 0 2.883-1.346 2.883-2.883v-1.922c0-1.537-1.345-2.883-2.883-2.883h-10.57c-3.651 0-6.726-3.074-6.726-6.726v-1.922c0-3.651 3.075-6.726 6.726-6.726h11.339c2.883 0 5.381 2.306 5.381 5.381h-3.844c0-.769-.576-1.537-1.537-1.537H28.827c-1.537 0-2.882 1.345-2.882 2.882v1.922c0 1.538 1.345 2.883 2.882 2.883h10.57c3.652 0 6.727 3.075 6.727 6.726v1.922c0 3.651-3.075 6.726-6.727 6.726z"/>
                    <path d="M32.671 18.257h3.844V52.85h-3.844z"/>
                </g>
            </g>
            <g transform="translate(251.758 28.827)">
                <circle cx="34.593" cy="35.554" r="34.593" fill="#FFD15D"/>
                <g fill="#48515A">
                    <path d="M39.397 49.006h-10.57c-3.459 0-6.15-2.69-6.15-6.15h3.844c0 1.346.961 2.307 2.306 2.307H39.59c1.538 0 2.883-1.346 2.883-2.883v-1.922c0-1.537-1.345-2.883-2.883-2.883H28.827c-3.651 0-6.726-3.074-6.726-6.726v-1.922c0-3.651 3.075-6.726 6.726-6.726h11.339c2.883 0 5.381 2.306 5.381 5.381h-3.844c0-.769-.576-1.537-1.537-1.537H28.827c-1.537 0-2.882 1.345-2.882 2.882v1.922c0 1.538 1.345 2.883 2.882 2.883h10.57c3.652 0 6.727 3.075 6.727 6.726v1.922c0 3.651-2.883 6.534-6.727 6.726z"/>
                    <path d="M32.863 18.257h3.844V52.85h-3.844z"/>
                </g>
            </g>
        </g>
    </g>
</svg>
