<svg xmlns="http://www.w3.org/2000/svg" width="370" height="385" viewBox="0 0 370 385">
    <defs>
        <linearGradient id="a" x1="50%" x2="50%" y1="0%" y2="100%">
            <stop offset="0%" stop-color="#FFEC95"/>
            <stop offset="100%" stop-color="#FFD45C"/>
        </linearGradient>
    </defs>
    <g fill="none" fill-rule="evenodd">
        <circle cx="185" cy="180" r="180" fill="url(#a)"/>
        <path fill="#FFF" d="M67 31h236v182H67z"/>
        <path fill="#FFF" d="M42 119h283v191H42z"/>
        <g fill-rule="nonzero" transform="translate(0 30)">
            <g fill="#DEDEDD">
                <path d="M82.286 173.438h-3.854V152.24h-3.854v-3.855h7.708z"/>
                <path d="M74.578 171.51h11.563v3.854H74.578zM103.484 175.365h-7.708c-3.276 0-5.781-2.506-5.781-5.782v-15.416c0-3.276 2.505-5.782 5.781-5.782h7.708c3.276 0 5.782 2.506 5.782 5.782v15.416c0 3.276-2.506 5.782-5.782 5.782zm-7.708-23.125c-1.156 0-1.927.77-1.927 1.927v15.416c0 1.157.77 1.927 1.927 1.927h7.708c1.157 0 1.927-.77 1.927-1.927v-15.416c0-1.157-.77-1.927-1.927-1.927h-7.708zM120.828 173.438h-3.854V152.24h-3.854v-3.855h7.708z"/>
                <path d="M113.12 171.51h11.563v3.854H113.12zM142.026 175.365h-7.708c-3.276 0-5.782-2.506-5.782-5.782v-15.416c0-3.276 2.506-5.782 5.782-5.782h7.708c3.276 0 5.781 2.506 5.781 5.782v15.416c0 3.276-2.505 5.782-5.781 5.782zm-7.708-23.125c-1.157 0-1.927.77-1.927 1.927v15.416c0 1.157.77 1.927 1.927 1.927h7.708c1.156 0 1.927-.77 1.927-1.927v-15.416c0-1.157-.77-1.927-1.927-1.927h-7.708zM159.37 173.438h-3.854V152.24h-3.855v-3.855h7.709z"/>
                <path d="M151.661 171.51h11.563v3.854h-11.563zM174.786 173.438h-3.854V152.24h-3.854v-3.855h7.708z"/>
                <path d="M167.078 171.51h11.563v3.854h-11.563zM190.203 173.438h-3.854V152.24h-3.854v-3.855h7.708z"/>
                <path d="M182.495 171.51h11.563v3.854h-11.563zM211.594 175.365h-7.709c-3.276 0-5.78-2.506-5.78-5.782v-15.416c0-3.276 2.504-5.782 5.78-5.782h7.709c3.276 0 5.781 2.506 5.781 5.782v15.416c0 3.276-2.698 5.782-5.781 5.782zm-7.709-23.125c-1.156 0-1.927.77-1.927 1.927v15.416c0 1.157.771 1.927 1.927 1.927h7.709c1.156 0 1.927-.77 1.927-1.927v-15.416c0-1.157-.771-1.927-1.927-1.927h-7.709zM234.719 175.365h-7.709c-3.276 0-5.78-2.506-5.78-5.782v-15.416c0-3.276 2.504-5.782 5.78-5.782h7.709c3.276 0 5.781 2.506 5.781 5.782v15.416c0 3.276-2.698 5.782-5.781 5.782zm-7.709-23.125c-1.156 0-1.927.77-1.927 1.927v15.416c0 1.157.771 1.927 1.927 1.927h7.709c1.156 0 1.927-.77 1.927-1.927v-15.416c0-1.157-.771-1.927-1.927-1.927h-7.709zM252.063 173.438h-3.855V152.24h-3.854v-3.855h7.708z"/>
                <path d="M244.355 171.51h11.563v3.854h-11.564zM273.26 175.365h-7.708c-3.276 0-5.781-2.506-5.781-5.782v-15.416c0-3.276 2.505-5.782 5.781-5.782h7.708c3.276 0 5.782 2.506 5.782 5.782v15.416c0 3.276-2.698 5.782-5.782 5.782zm-7.708-23.125c-1.156 0-1.927.77-1.927 1.927v15.416c0 1.157.77 1.927 1.927 1.927h7.708c1.157 0 1.928-.77 1.928-1.927v-15.416c0-1.157-.771-1.927-1.928-1.927h-7.708zM290.604 173.438h-3.854V152.24h-3.854v-3.855h7.708z"/>
                <path d="M282.896 171.51h11.563v3.854h-11.563zM82.286 208.125h-3.854v-21.198h-3.854v-3.854h7.708z"/>
                <path d="M74.578 206.198h11.563v3.854H74.578zM120.828 210.052h-7.708c-3.276 0-5.781-2.505-5.781-5.781v-15.417c0-3.276 2.505-5.781 5.78-5.781h7.71c3.275 0 5.78 2.505 5.78 5.781v15.417c0 3.276-2.505 5.781-5.78 5.781zm-7.708-23.125c-1.156 0-1.927.77-1.927 1.927v15.417c0 1.156.77 1.927 1.927 1.927h7.708c1.156 0 1.927-.77 1.927-1.927v-15.417c0-1.156-.77-1.927-1.927-1.927h-7.708zM99.63 208.125h-3.854v-21.198h-3.854v-3.854h7.708z"/>
                <path d="M91.922 206.198h11.563v3.854H91.922zM136.245 208.125h-3.854v-21.198h-3.855v-3.854h7.709z"/>
                <path d="M128.536 206.198H140.1v3.854h-11.563zM151.661 208.125h-3.854v-21.198h-3.854v-3.854h7.708z"/>
                <path d="M143.953 206.198h11.563v3.854h-11.563zM172.86 210.052h-7.709c-3.276 0-5.781-2.505-5.781-5.781v-15.417c0-3.276 2.505-5.781 5.781-5.781h7.708c3.276 0 5.782 2.505 5.782 5.781v15.417c0 3.276-2.506 5.781-5.782 5.781zm-7.709-23.125c-1.156 0-1.927.77-1.927 1.927v15.417c0 1.156.77 1.927 1.927 1.927h7.708c1.157 0 1.927-.77 1.927-1.927v-15.417c0-1.156-.77-1.927-1.927-1.927h-7.708zM195.984 210.052h-7.708c-3.276 0-5.781-2.505-5.781-5.781v-15.417c0-3.276 2.505-5.781 5.781-5.781h7.708c3.276 0 5.782 2.505 5.782 5.781v15.417c0 3.276-2.506 5.781-5.782 5.781zm-7.708-23.125c-1.156 0-1.927.77-1.927 1.927v15.417c0 1.156.77 1.927 1.927 1.927h7.708c1.157 0 1.927-.77 1.927-1.927v-15.417c0-1.156-.77-1.927-1.927-1.927h-7.708zM213.328 208.125h-3.854v-21.198h-3.854v-3.854h7.708z"/>
                <path d="M205.62 206.198h11.563v3.854H205.62zM234.719 210.052h-7.709c-3.276 0-5.78-2.505-5.78-5.781v-15.417c0-3.276 2.504-5.781 5.78-5.781h7.709c3.276 0 5.781 2.505 5.781 5.781v15.417c0 3.276-2.698 5.781-5.781 5.781zm-7.709-23.125c-1.156 0-1.927.77-1.927 1.927v15.417c0 1.156.771 1.927 1.927 1.927h7.709c1.156 0 1.927-.77 1.927-1.927v-15.417c0-1.156-.771-1.927-1.927-1.927h-7.709zM252.063 208.125h-3.855v-21.198h-3.854v-3.854h7.708z"/>
                <path d="M244.355 206.198h11.563v3.854h-11.564zM273.26 210.052h-7.708c-3.276 0-5.781-2.505-5.781-5.781v-15.417c0-3.276 2.505-5.781 5.781-5.781h7.708c3.276 0 5.782 2.505 5.782 5.781v15.417c0 3.276-2.506 5.781-5.782 5.781zm-7.708-23.125c-1.156 0-1.927.77-1.927 1.927v15.417c0 1.156.77 1.927 1.927 1.927h7.708c1.157 0 1.928-.77 1.928-1.927v-15.417c0-1.156-.771-1.927-1.928-1.927h-7.708zM290.604 208.125h-3.854v-21.198h-3.854v-3.854h7.708z"/>
                <path d="M282.896 206.198h11.563v3.854h-11.563zM105.411 138.75h-3.854v-21.198h-3.854v-3.854h7.708z"/>
                <path d="M97.703 136.823h11.563v3.854H97.703zM120.828 138.75h-3.854v-21.198h-3.854v-3.854h7.708z"/>
                <path d="M113.12 136.823h11.563v3.854H113.12zM136.245 138.75h-3.854v-21.198h-3.855v-3.854h7.709z"/>
                <path d="M128.536 136.823H140.1v3.854h-11.563zM151.661 138.75h-3.854v-21.198h-3.854v-3.854h7.708z"/>
                <path d="M143.953 136.823h11.563v3.854h-11.563zM88.068 140.677h-7.709c-3.276 0-5.78-2.505-5.78-5.781v-15.417c0-3.276 2.504-5.781 5.78-5.781h7.709c3.276 0 5.781 2.505 5.781 5.781v15.417c0 3.276-2.505 5.781-5.781 5.781zm-7.709-23.125c-1.156 0-1.927.77-1.927 1.927v15.417c0 1.156.771 1.927 1.927 1.927h7.709c1.156 0 1.927-.77 1.927-1.927v-15.417c0-1.156-.771-1.927-1.927-1.927h-7.709zM188.469 140.677h-7.709c-3.276 0-5.78-2.505-5.78-5.781v-15.417c0-3.276 2.504-5.781 5.78-5.781h7.709c3.276 0 5.781 2.505 5.781 5.781v15.417c0 3.276-2.698 5.781-5.781 5.781zm-7.709-23.125c-1.156 0-1.927.77-1.927 1.927v15.417c0 1.156.771 1.927 1.927 1.927h7.709c1.156 0 1.927-.77 1.927-1.927v-15.417c0-1.156-.771-1.927-1.927-1.927h-7.709zM205.813 138.75h-3.855v-21.198h-3.854v-3.854h7.708z"/>
                <path d="M198.105 136.823h11.563v3.854h-11.564zM221.23 138.75h-3.855v-21.198h-3.854v-3.854h7.708z"/>
                <path d="M213.521 136.823h11.563v3.854h-11.563zM242.427 140.677h-7.708c-3.276 0-5.781-2.505-5.781-5.781v-15.417c0-3.276 2.505-5.781 5.78-5.781h7.71c3.275 0 5.78 2.505 5.78 5.781v15.417c0 3.276-2.698 5.781-5.78 5.781zm-7.708-23.125c-1.156 0-1.927.77-1.927 1.927v15.417c0 1.156.77 1.927 1.927 1.927h7.708c1.156 0 1.927-.77 1.927-1.927v-15.417c0-1.156-.77-1.927-1.927-1.927h-7.708zM259.77 138.75h-3.853v-21.198h-3.854v-3.854h7.708z"/>
                <path d="M252.063 136.823h11.563v3.854h-11.563zM290.604 138.75h-3.854v-21.198h-3.854v-3.854h7.708z"/>
                <path d="M282.896 136.823h11.563v3.854h-11.563zM275.188 138.75h-3.855v-21.198h-3.854v-3.854h7.709z"/>
                <path d="M267.48 136.823h11.562v3.854H267.48zM89.995 105.99h-7.709c-3.276 0-5.78-2.506-5.78-5.782V84.792c0-3.276 2.504-5.782 5.78-5.782h7.709c3.276 0 5.781 2.506 5.781 5.782v15.416c0 3.276-2.505 5.782-5.781 5.782zm-7.709-23.125c-1.156 0-1.927.77-1.927 1.927v15.416c0 1.157.771 1.927 1.927 1.927h7.709c1.156 0 1.927-.77 1.927-1.927V84.792c0-1.157-.771-1.927-1.927-1.927h-7.709zM107.339 104.063h-3.855V82.865H99.63V79.01h7.709z"/>
                <path d="M99.63 102.135h11.563v3.854H99.63zM142.026 105.99h-7.708c-3.276 0-5.782-2.506-5.782-5.782V84.792c0-3.276 2.506-5.782 5.782-5.782h7.708c3.276 0 5.781 2.506 5.781 5.782v15.416c0 3.276-2.505 5.782-5.781 5.782zm-7.708-23.125c-1.157 0-1.927.77-1.927 1.927v15.416c0 1.157.77 1.927 1.927 1.927h7.708c1.156 0 1.927-.77 1.927-1.927V84.792c0-1.157-.77-1.927-1.927-1.927h-7.708zM159.37 104.063h-3.854V82.865h-3.855V79.01h7.709z"/>
                <path d="M151.661 102.135h11.563v3.854h-11.563zM180.76 105.99h-7.708c-3.276 0-5.781-2.506-5.781-5.782V84.792c0-3.276 2.505-5.782 5.781-5.782h7.708c3.276 0 5.782 2.506 5.782 5.782v15.416c0 3.276-2.698 5.782-5.782 5.782zm-7.708-23.125c-1.156 0-1.927.77-1.927 1.927v15.416c0 1.157.77 1.927 1.927 1.927h7.708c1.157 0 1.928-.77 1.928-1.927V84.792c0-1.157-.771-1.927-1.928-1.927h-7.708zM198.104 104.063h-3.854V82.865h-3.854V79.01h7.708z"/>
                <path d="M190.396 102.135h11.563v3.854h-11.563zM219.302 105.99h-7.708c-3.276 0-5.781-2.506-5.781-5.782V84.792c0-3.276 2.505-5.782 5.78-5.782h7.71c3.275 0 5.78 2.506 5.78 5.782v15.416c0 3.276-2.698 5.782-5.78 5.782zm-7.708-23.125c-1.156 0-1.927.77-1.927 1.927v15.416c0 1.157.77 1.927 1.927 1.927h7.708c1.156 0 1.927-.77 1.927-1.927V84.792c0-1.157-.77-1.927-1.927-1.927h-7.708zM236.646 104.063h-3.854V82.865h-3.854V79.01h7.708z"/>
                <path d="M228.938 102.135H240.5v3.854h-11.563zM257.844 105.99h-7.709c-3.276 0-5.78-2.506-5.78-5.782V84.792c0-3.276 2.504-5.782 5.78-5.782h7.709c3.276 0 5.781 2.506 5.781 5.782v15.416c0 3.276-2.698 5.782-5.781 5.782zm-7.709-23.125c-1.156 0-1.927.77-1.927 1.927v15.416c0 1.157.771 1.927 1.927 1.927h7.709c1.156 0 1.927-.77 1.927-1.927V84.792c0-1.157-.771-1.927-1.927-1.927h-7.709zM275.188 104.063h-3.855V82.865h-3.854V79.01h7.709z"/>
                <path d="M267.48 102.135h11.562v3.854H267.48zM290.604 104.063h-3.854V82.865h-3.854V79.01h7.708z"/>
                <path d="M282.896 102.135h11.563v3.854h-11.563zM82.286 69.375h-3.854V48.177h-3.854v-3.854h7.708z"/>
                <path d="M74.578 67.448h11.563v3.854H74.578zM103.484 71.302h-7.708c-3.276 0-5.781-2.505-5.781-5.781V50.104c0-3.276 2.505-5.781 5.781-5.781h7.708c3.276 0 5.782 2.505 5.782 5.781v15.417c0 3.083-2.506 5.781-5.782 5.781zm-7.708-23.125c-1.156 0-1.927.77-1.927 1.927v15.417c0 1.156.77 1.927 1.927 1.927h7.708c1.157 0 1.927-.77 1.927-1.927V50.104c0-1.156-.77-1.927-1.927-1.927h-7.708zM120.828 69.375h-3.854V48.177h-3.854v-3.854h7.708z"/>
                <path d="M113.12 67.448h11.563v3.854H113.12zM142.219 71.302h-7.709c-3.276 0-5.78-2.505-5.78-5.781V50.104c0-3.276 2.504-5.781 5.78-5.781h7.709c3.276 0 5.781 2.505 5.781 5.781v15.417c0 3.083-2.698 5.781-5.781 5.781zm-7.709-23.125c-1.156 0-1.927.77-1.927 1.927v15.417c0 1.156.771 1.927 1.927 1.927h7.709c1.156 0 1.927-.77 1.927-1.927V50.104c0-1.156-.771-1.927-1.927-1.927h-7.709zM159.563 69.375h-3.855V48.177h-3.854v-3.854h7.708z"/>
                <path d="M151.855 67.448h11.563v3.854h-11.564zM180.76 71.302h-7.708c-3.276 0-5.781-2.505-5.781-5.781V50.104c0-3.276 2.505-5.781 5.781-5.781h7.708c3.276 0 5.782 2.505 5.782 5.781v15.417c0 3.083-2.698 5.781-5.782 5.781zm-7.708-23.125c-1.156 0-1.927.77-1.927 1.927v15.417c0 1.156.77 1.927 1.927 1.927h7.708c1.157 0 1.928-.77 1.928-1.927V50.104c0-1.156-.771-1.927-1.928-1.927h-7.708zM198.104 69.375h-3.854V48.177h-3.854v-3.854h7.708z"/>
                <path d="M190.396 67.448h11.563v3.854h-11.563zM219.302 71.302h-7.708c-3.276 0-5.781-2.505-5.781-5.781V50.104c0-3.276 2.505-5.781 5.78-5.781h7.71c3.275 0 5.78 2.505 5.78 5.781v15.417c0 3.083-2.698 5.781-5.78 5.781zm-7.708-23.125c-1.156 0-1.927.77-1.927 1.927v15.417c0 1.156.77 1.927 1.927 1.927h7.708c1.156 0 1.927-.77 1.927-1.927V50.104c0-1.156-.77-1.927-1.927-1.927h-7.708z"/>
                <g>
                    <path d="M236.646 69.375h-3.854V48.177h-3.854v-3.854h7.708z"/>
                    <path d="M228.938 67.448H240.5v3.854h-11.563z"/>
                </g>
                <g>
                    <path d="M252.063 69.375h-3.855V48.177h-3.854v-3.854h7.708z"/>
                    <path d="M244.355 67.448h11.563v3.854h-11.564z"/>
                </g>
                <g>
                    <path d="M267.48 69.375h-3.855V48.177h-3.854v-3.854h7.708z"/>
                    <path d="M259.771 67.448h11.563v3.854h-11.563z"/>
                </g>
                <path d="M288.677 71.302h-7.708c-3.276 0-5.781-2.505-5.781-5.781V50.104c0-3.276 2.505-5.781 5.78-5.781h7.71c3.275 0 5.78 2.505 5.78 5.781v15.417c0 3.083-2.698 5.781-5.78 5.781zm-7.708-23.125c-1.156 0-1.927.77-1.927 1.927v15.417c0 1.156.77 1.927 1.927 1.927h7.708c1.156 0 1.927-.77 1.927-1.927V50.104c0-1.156-.77-1.927-1.927-1.927h-7.708zM88.068 36.615h-7.709c-3.276 0-5.78-2.506-5.78-5.782v-7.708h3.853v7.708c0 1.157.771 1.927 1.927 1.927h7.709c1.156 0 1.927-.77 1.927-1.927v-7.708h3.854v7.708c0 3.084-2.505 5.782-5.781 5.782z"/>
                <g>
                    <path d="M101.557 23.125h3.854v11.563h-3.854z"/>
                    <path d="M97.703 32.76h11.563v3.854H97.703z"/>
                </g>
                <g>
                    <path d="M116.974 23.125h3.854v11.563h-3.854z"/>
                    <path d="M113.12 32.76h11.563v3.854H113.12z"/>
                </g>
                <g>
                    <path d="M132.39 23.125h3.855v11.563h-3.854z"/>
                    <path d="M128.536 32.76H140.1v3.854h-11.563z"/>
                </g>
                <path d="M157.443 36.615h-7.709c-3.276 0-5.78-2.506-5.78-5.782v-7.708h3.853v7.708c0 1.157.771 1.927 1.927 1.927h7.709c1.156 0 1.927-.77 1.927-1.927v-7.708h3.854v7.708c0 3.084-2.505 5.782-5.781 5.782z"/>
                <g>
                    <path d="M170.932 23.125h3.854v11.563h-3.854z"/>
                    <path d="M167.078 32.76h11.563v3.854h-11.563z"/>
                </g>
                <g>
                    <path d="M186.542 23.125h3.854v11.563h-3.854z"/>
                    <path d="M182.688 32.76h11.563v3.854h-11.563z"/>
                </g>
                <g>
                    <path d="M201.958 23.125h3.854v11.563h-3.854z"/>
                    <path d="M198.105 32.76h11.563v3.854h-11.564z"/>
                </g>
                <g>
                    <path d="M217.375 23.125h3.854v11.563h-3.854z"/>
                    <path d="M213.521 32.76h11.563v3.854h-11.563z"/>
                </g>
                <path d="M242.427 36.615h-7.708c-3.276 0-5.781-2.506-5.781-5.782v-7.708h3.854v7.708c0 1.157.77 1.927 1.927 1.927h7.708c1.156 0 1.927-.77 1.927-1.927v-7.708h3.854v7.708c0 3.084-2.698 5.782-5.78 5.782z"/>
                <g>
                    <path d="M255.917 23.125h3.854v11.563h-3.854z"/>
                    <path d="M252.063 32.76h11.563v3.854h-11.563z"/>
                </g>
                <g>
                    <path d="M286.75 23.125h3.854v11.563h-3.854z"/>
                    <path d="M282.896 32.76h11.563v3.854h-11.563z"/>
                </g>
                <g>
                    <path d="M271.334 23.125h3.854v11.563h-3.854z"/>
                    <path d="M267.48 32.76h11.562v3.854H267.48z"/>
                </g>
                <g>
                    <path d="M82.286 242.813h-3.854v-21.198h-3.854v-3.855h7.708z"/>
                    <path d="M74.578 240.885h11.563v3.854H74.578z"/>
                </g>
                <g>
                    <path d="M97.703 242.813H93.85v-21.198h-3.854v-3.855h7.708z"/>
                    <path d="M89.995 240.885h11.563v3.854H89.995z"/>
                </g>
                <g>
                    <path d="M113.12 242.813h-3.854v-21.198h-3.855v-3.855h7.709z"/>
                    <path d="M105.412 240.885h11.562v3.854h-11.562z"/>
                </g>
                <path d="M134.318 244.74h-7.709c-3.276 0-5.78-2.506-5.78-5.782v-15.416c0-3.276 2.504-5.782 5.78-5.782h7.709c3.276 0 5.781 2.506 5.781 5.782v15.416c0 3.276-2.505 5.782-5.781 5.782zm-7.709-23.125c-1.156 0-1.927.77-1.927 1.927v15.416c0 1.157.771 1.927 1.927 1.927h7.709c1.156 0 1.927-.77 1.927-1.927v-15.416c0-1.157-.771-1.927-1.927-1.927h-7.709zM157.443 244.74h-7.709c-3.276 0-5.78-2.506-5.78-5.782v-15.416c0-3.276 2.504-5.782 5.78-5.782h7.709c3.276 0 5.781 2.506 5.781 5.782v15.416c0 3.276-2.505 5.782-5.781 5.782zm-7.709-23.125c-1.156 0-1.927.77-1.927 1.927v15.416c0 1.157.771 1.927 1.927 1.927h7.709c1.156 0 1.927-.77 1.927-1.927v-15.416c0-1.157-.771-1.927-1.927-1.927h-7.709z"/>
                <g>
                    <path d="M174.786 242.813h-3.854v-21.198h-3.854v-3.855h7.708z"/>
                    <path d="M167.078 240.885h11.563v3.854h-11.563z"/>
                </g>
                <path d="M195.984 244.74h-7.708c-3.276 0-5.781-2.506-5.781-5.782v-15.416c0-3.276 2.505-5.782 5.781-5.782h7.708c3.276 0 5.782 2.506 5.782 5.782v15.416c0 3.276-2.506 5.782-5.782 5.782zm-7.708-23.125c-1.156 0-1.927.77-1.927 1.927v15.416c0 1.157.77 1.927 1.927 1.927h7.708c1.157 0 1.927-.77 1.927-1.927v-15.416c0-1.157-.77-1.927-1.927-1.927h-7.708z"/>
                <g>
                    <path d="M213.328 242.813h-3.854v-21.198h-3.854v-3.855h7.708z"/>
                    <path d="M205.62 240.885h11.563v3.854H205.62z"/>
                </g>
                <path d="M234.719 244.74h-7.709c-3.276 0-5.78-2.506-5.78-5.782v-15.416c0-3.276 2.504-5.782 5.78-5.782h7.709c3.276 0 5.781 2.506 5.781 5.782v15.416c0 3.276-2.698 5.782-5.781 5.782zm-7.709-23.125c-1.156 0-1.927.77-1.927 1.927v15.416c0 1.157.771 1.927 1.927 1.927h7.709c1.156 0 1.927-.77 1.927-1.927v-15.416c0-1.157-.771-1.927-1.927-1.927h-7.709z"/>
                <g>
                    <path d="M252.063 242.813h-3.855v-21.198h-3.854v-3.855h7.708z"/>
                    <path d="M244.355 240.885h11.563v3.854h-11.564z"/>
                </g>
                <path d="M273.26 244.74h-7.708c-3.276 0-5.781-2.506-5.781-5.782v-15.416c0-3.276 2.505-5.782 5.781-5.782h7.708c3.276 0 5.782 2.506 5.782 5.782v15.416c0 3.276-2.698 5.782-5.782 5.782zm-7.708-23.125c-1.156 0-1.927.77-1.927 1.927v15.416c0 1.157.77 1.927 1.927 1.927h7.708c1.157 0 1.928-.77 1.928-1.927v-15.416c0-1.157-.771-1.927-1.928-1.927h-7.708z"/>
                <g>
                    <path d="M290.604 242.813h-3.854v-21.198h-3.854v-3.855h7.708z"/>
                    <path d="M282.896 240.885h11.563v3.854h-11.563z"/>
                </g>
                <g>
                    <path d="M167.078 138.75h-3.854v-21.198h-3.854v-3.854h7.708z"/>
                    <path d="M159.37 136.823h11.563v3.854H159.37z"/>
                </g>
                <g>
                    <path d="M122.755 104.063h-3.854V82.865h-3.854V79.01h7.708z"/>
                    <path d="M115.047 102.135h11.563v3.854h-11.563z"/>
                </g>
            </g>
            <g transform="translate(0 48.177)">
                <path fill="#FFF" d="M146.134 275.574h76.48l-6.688-45.67h-62.63z"/>
                <path fill="#475059" d="M173.438 235.104H49.14c-5.396 0-9.636-4.24-9.636-9.635V48.177c0-5.396 4.24-9.635 9.636-9.635h9.828v3.854H49.14c-3.276 0-5.782 2.505-5.782 5.781V225.47c0 3.276 2.506 5.781 5.782 5.781h124.297v3.854zM318.932 235.104H196.177v-3.854h122.755c3.276 0 5.782-2.505 5.782-5.781V48.177c0-3.276-2.506-5.781-5.782-5.781h-9.25v-3.854h9.25c5.396 0 9.636 4.24 9.636 9.635V225.47c0 5.396-4.24 9.635-9.636 9.635z"/>
                <path fill="#475059" d="M173.052 277.5h-29.484v-5.974l5.781-34.88v-5.396h23.318v3.854h-19.464v1.927l-5.781 35.073v1.542h25.63zM224.505 277.5h-28.52v-3.854h24.666v-1.542l-5.781-35.073v-1.927h-18.886v-3.854h22.74v5.589l5.781 35.072z"/>
                <path fill="#475059" d="M196.177 273.646h37.964v3.854h-37.964zM133.933 273.646h39.505v3.854h-39.505z"/>
                <path fill="#DEDEDD" d="M151.661 269.792h64.75l-5.203-30.834h-54.536zM47.214 202.344v23.125c0 1.156.77 1.927 1.927 1.927h269.791c1.157 0 1.927-.771 1.927-1.927v-23.125H47.214z"/>
                <g fill="#FFF">
                    <path d="M11.563 107.917h3.854v7.708h-3.854zM11.563 127.188h3.854v7.708h-3.854zM19.271 119.48h7.708v3.854h-7.708zM0 119.48h7.708v3.854H0z"/>
                </g>
                <g fill="#FFF">
                    <path d="M353.62 235.104h3.854v7.708h-3.854zM353.62 254.375h3.854v7.708h-3.854zM361.328 246.667h7.708v3.854h-7.708zM342.058 246.667h7.708v3.854h-7.708z"/>
                </g>
                <g fill="#FFF">
                    <path d="M353.62 111.77h3.854v7.709h-3.854zM353.62 131.042h3.854v7.708h-3.854zM361.328 123.334h7.708v3.854h-7.708zM342.058 123.334h7.708v3.854h-7.708z"/>
                </g>
                <g fill="#FFD15D" transform="translate(13.49 69.375)">
                    <circle cx="5.589" cy="6.938" r="4.625"/>
                    <path d="M5.589 12.526A5.593 5.593 0 0 1 0 6.938a5.593 5.593 0 0 1 5.589-5.589 5.593 5.593 0 0 1 5.588 5.588c.193 3.084-2.312 5.589-5.588 5.589zm0-9.443c-2.12 0-3.662 1.735-3.662 3.662 0 1.927 1.734 3.661 3.662 3.661 2.12 0 3.661-1.734 3.661-3.661.193-1.927-1.542-3.662-3.661-3.662z"/>
                </g>
                <circle cx="322.401" cy="4.625" r="4.625" fill="#5FE0ED"/>
                <circle cx="29.87" cy="185.193" r="3.854" fill="#DEDEDD"/>
                <circle cx="272.682" cy="258.229" r="3.854" fill="#FFF"/>
                <path fill="#FFF" d="M305.443 275.573c-4.24 0-7.709-3.469-7.709-7.708 0-4.24 3.47-7.709 7.709-7.709 4.24 0 7.708 3.469 7.708 7.709s-3.469 7.708-7.708 7.708zm0-11.563a3.865 3.865 0 0 0-3.854 3.855 3.865 3.865 0 0 0 3.854 3.854 3.865 3.865 0 0 0 3.854-3.854 3.865 3.865 0 0 0-3.854-3.855z"/>
                <g fill="#FFF">
                    <path d="M89.61 273.646h-3.855v-13.49h-1.927v-3.854h5.781z"/>
                    <path d="M83.829 271.72h7.708v3.853h-7.708z"/>
                </g>
                <g fill="#FFF">
                    <path d="M351.693 46.25h-3.854V32.76h-1.928v-3.854h5.782z"/>
                    <path d="M345.912 44.323h7.708v3.854h-7.708z"/>
                </g>
                <path fill="#FFF" d="M106.953 260.156c-3.276 0-5.781-2.505-5.781-5.781v-7.708c0-3.276 2.505-5.782 5.781-5.782s5.781 2.506 5.781 5.782v7.708c0 3.276-2.505 5.781-5.78 5.781zm0-15.416c-1.156 0-1.927.77-1.927 1.927v7.708c0 1.156.77 1.927 1.927 1.927 1.156 0 1.927-.77 1.927-1.927v-7.708c0-1.157-.77-1.927-1.927-1.927zM342.057 210.052c-3.276 0-5.781-2.505-5.781-5.781v-7.708c0-3.277 2.505-5.782 5.781-5.782s5.782 2.505 5.782 5.781v7.709c0 3.276-2.506 5.781-5.782 5.781zm0-15.417c-1.156 0-1.927.771-1.927 1.928v7.708c0 1.156.771 1.927 1.927 1.927 1.157 0 1.927-.77 1.927-1.927v-7.708c0-.964-.963-1.928-1.927-1.928z"/>
            </g>
            <path fill="#DEDEDD" d="M70.917 7.708h227.396v11.563H70.917z"/>
            <path fill="#48515A" d="M184.422 217.76c-45.672 0-82.865-37.192-82.865-82.864 0-45.672 37.193-82.865 82.865-82.865s82.864 37.193 82.864 82.865-37 82.864-82.864 82.864zm0-161.875c-43.552 0-79.01 35.459-79.01 79.01 0 43.553 35.458 79.011 79.01 79.011 43.552 0 79.01-35.458 79.01-79.01 0-43.552-35.265-79.01-79.01-79.01z"/>
            <path fill="#48515A" d="M186.349 215.833h3.854v44.323h-3.854zM178.641 215.833h3.854v44.323h-3.854z"/>
            <path fill="#48515A" d="M184.422 354.583c-4.24 0-7.708-3.468-7.708-7.708v-88.646h15.416v88.646c0 4.24-3.276 7.708-7.708 7.708zm-3.854-92.5v84.792a3.865 3.865 0 0 0 3.854 3.854 3.865 3.865 0 0 0 3.854-3.854v-84.792h-7.708z"/>
            <g fill="#48515A">
                <path d="M120.828 173.438h-3.854V152.24h-3.854v-3.855h7.708z"/>
                <path d="M113.12 171.51h11.563v3.854H113.12zM142.026 175.365h-7.708c-3.276 0-5.782-2.506-5.782-5.782v-15.416c0-3.276 2.506-5.782 5.782-5.782h7.708c3.276 0 5.781 2.506 5.781 5.782v15.416c0 3.276-2.505 5.782-5.781 5.782zm-7.708-23.125c-1.157 0-1.927.77-1.927 1.927v15.416c0 1.157.77 1.927 1.927 1.927h7.708c1.156 0 1.927-.77 1.927-1.927v-15.416c0-1.157-.77-1.927-1.927-1.927h-7.708zM159.37 173.438h-3.854V152.24h-3.855v-3.855h7.709z"/>
                <path d="M151.661 171.51h11.563v3.854h-11.563zM174.786 173.438h-3.854V152.24h-3.854v-3.855h7.708z"/>
                <path d="M167.078 171.51h11.563v3.854h-11.563zM190.203 173.438h-3.854V152.24h-3.854v-3.855h7.708z"/>
                <path d="M182.495 171.51h11.563v3.854h-11.563zM211.594 175.365h-7.709c-3.276 0-5.78-2.506-5.78-5.782v-15.416c0-3.276 2.504-5.782 5.78-5.782h7.709c3.276 0 5.781 2.506 5.781 5.782v15.416c0 3.276-2.698 5.782-5.781 5.782zm-7.709-23.125c-1.156 0-1.927.77-1.927 1.927v15.416c0 1.157.771 1.927 1.927 1.927h7.709c1.156 0 1.927-.77 1.927-1.927v-15.416c0-1.157-.771-1.927-1.927-1.927h-7.709zM234.719 175.365h-7.709c-3.276 0-5.78-2.506-5.78-5.782v-15.416c0-3.276 2.504-5.782 5.78-5.782h7.709c3.276 0 5.781 2.506 5.781 5.782v15.416c0 3.276-2.698 5.782-5.781 5.782zm-7.709-23.125c-1.156 0-1.927.77-1.927 1.927v15.416c0 1.157.771 1.927 1.927 1.927h7.709c1.156 0 1.927-.77 1.927-1.927v-15.416c0-1.157-.771-1.927-1.927-1.927h-7.709zM252.063 173.438h-3.855V152.24h-3.854v-3.855h7.708z"/>
                <path d="M244.355 171.51h11.563v3.854h-11.564zM136.245 208.125h-3.854v-21.198h-3.855v-3.854h7.709z"/>
                <path d="M128.536 206.198H140.1v3.854h-11.563zM151.661 208.125h-3.854v-21.198h-3.854v-3.854h7.708z"/>
                <path d="M143.953 206.198h11.563v3.854h-11.563zM172.86 210.052h-7.709c-3.276 0-5.781-2.505-5.781-5.781v-15.417c0-3.276 2.505-5.781 5.781-5.781h7.708c3.276 0 5.782 2.505 5.782 5.781v15.417c0 3.276-2.506 5.781-5.782 5.781zm-7.709-23.125c-1.156 0-1.927.77-1.927 1.927v15.417c0 1.156.77 1.927 1.927 1.927h7.708c1.157 0 1.927-.77 1.927-1.927v-15.417c0-1.156-.77-1.927-1.927-1.927h-7.708zM195.984 210.052h-7.708c-3.276 0-5.781-2.505-5.781-5.781v-15.417c0-3.276 2.505-5.781 5.781-5.781h7.708c3.276 0 5.782 2.505 5.782 5.781v15.417c0 3.276-2.506 5.781-5.782 5.781zm-7.708-23.125c-1.156 0-1.927.77-1.927 1.927v15.417c0 1.156.77 1.927 1.927 1.927h7.708c1.157 0 1.927-.77 1.927-1.927v-15.417c0-1.156-.77-1.927-1.927-1.927h-7.708zM213.328 211.98h-3.854v-25.053h-3.854v-3.854h7.708zM234.719 210.052h-7.709c-3.276 0-5.78-2.505-5.78-5.781v-15.417c0-3.276 2.504-5.781 5.78-5.781h7.709c3.276 0 5.781 2.505 5.781 5.781v15.417c0 3.276-2.698 5.781-5.781 5.781zm-7.709-23.125c-1.156 0-1.927.77-1.927 1.927v15.417c0 1.156.771 1.927 1.927 1.927h7.709c1.156 0 1.927-.77 1.927-1.927v-15.417c0-1.156-.771-1.927-1.927-1.927h-7.709zM120.828 138.75h-3.854v-21.198h-3.854v-3.854h7.708z"/>
                <path d="M113.12 136.823h11.563v3.854H113.12zM136.245 138.75h-3.854v-21.198h-3.855v-3.854h7.709z"/>
                <path d="M128.536 136.823H140.1v3.854h-11.563zM151.661 138.75h-3.854v-21.198h-3.854v-3.854h7.708z"/>
                <path d="M143.953 136.823h11.563v3.854h-11.563zM188.469 140.677h-7.709c-3.276 0-5.78-2.505-5.78-5.781v-15.417c0-3.276 2.504-5.781 5.78-5.781h7.709c3.276 0 5.781 2.505 5.781 5.781v15.417c0 3.276-2.698 5.781-5.781 5.781zm-7.709-23.125c-1.156 0-1.927.77-1.927 1.927v15.417c0 1.156.771 1.927 1.927 1.927h7.709c1.156 0 1.927-.77 1.927-1.927v-15.417c0-1.156-.771-1.927-1.927-1.927h-7.709zM205.813 138.75h-3.855v-21.198h-3.854v-3.854h7.708z"/>
                <path d="M198.105 136.823h11.563v3.854h-11.564zM221.23 138.75h-3.855v-21.198h-3.854v-3.854h7.708z"/>
                <path d="M213.521 136.823h11.563v3.854h-11.563zM242.427 140.677h-7.708c-3.276 0-5.781-2.505-5.781-5.781v-15.417c0-3.276 2.505-5.781 5.78-5.781h7.71c3.275 0 5.78 2.505 5.78 5.781v15.417c0 3.276-2.698 5.781-5.78 5.781zm-7.708-23.125c-1.156 0-1.927.77-1.927 1.927v15.417c0 1.156.77 1.927 1.927 1.927h7.708c1.156 0 1.927-.77 1.927-1.927v-15.417c0-1.156-.77-1.927-1.927-1.927h-7.708zM259.77 138.75h-3.853v-21.198h-3.855v-3.854h7.709z"/>
                <path d="M252.063 136.823h11.563v3.854h-11.563zM142.026 105.99h-7.708c-3.276 0-5.782-2.506-5.782-5.782V84.792c0-3.276 2.506-5.782 5.782-5.782h7.708c3.276 0 5.781 2.506 5.781 5.782v15.416c0 3.276-2.505 5.782-5.781 5.782zm-7.708-23.125c-1.157 0-1.927.77-1.927 1.927v15.416c0 1.157.77 1.927 1.927 1.927h7.708c1.156 0 1.927-.77 1.927-1.927V84.792c0-1.157-.77-1.927-1.927-1.927h-7.708z"/>
                <g>
                    <path d="M159.37 104.063h-3.854V82.865h-3.855V79.01h7.709z"/>
                    <path d="M151.661 102.135h11.563v3.854h-11.563z"/>
                </g>
                <path d="M180.76 105.99h-7.708c-3.276 0-5.781-2.506-5.781-5.782V84.792c0-3.276 2.505-5.782 5.781-5.782h7.708c3.276 0 5.782 2.506 5.782 5.782v15.416c0 3.276-2.698 5.782-5.782 5.782zm-7.708-23.125c-1.156 0-1.927.77-1.927 1.927v15.416c0 1.157.77 1.927 1.927 1.927h7.708c1.157 0 1.927-.77 1.927-1.927V84.792c0-1.157-.77-1.927-1.927-1.927h-7.708z"/>
                <g>
                    <path d="M198.104 104.063h-3.854V82.865h-3.854V79.01h7.708z"/>
                    <path d="M190.396 102.135h11.563v3.854h-11.563z"/>
                </g>
                <path d="M219.302 105.99h-7.708c-3.276 0-5.782-2.506-5.782-5.782V84.792c0-3.276 2.506-5.782 5.782-5.782h7.708c3.276 0 5.781 2.506 5.781 5.782v15.416c0 3.276-2.698 5.782-5.78 5.782zm-7.708-23.125c-1.157 0-1.927.77-1.927 1.927v15.416c0 1.157.77 1.927 1.927 1.927h7.708c1.156 0 1.927-.77 1.927-1.927V84.792c0-1.157-.77-1.927-1.927-1.927h-7.708z"/>
                <g>
                    <path d="M236.646 104.063h-3.854V82.865h-3.855V79.01h7.709z"/>
                    <path d="M228.938 102.135H240.5v3.854h-11.563z"/>
                </g>
                <path d="M257.844 105.99h-7.709c-3.276 0-5.78-2.506-5.78-5.782V84.792c0-3.276 2.504-5.782 5.78-5.782h7.709c3.276 0 5.781 2.506 5.781 5.782v15.416c0 3.276-2.698 5.782-5.781 5.782zm-7.709-23.125c-1.156 0-1.927.77-1.927 1.927v15.416c0 1.157.771 1.927 1.927 1.927h7.709c1.156 0 1.927-.77 1.927-1.927V84.792c0-1.157-.771-1.927-1.927-1.927h-7.709zM142.219 71.302h-7.709c-3.276 0-5.78-2.505-5.78-5.781V50.104c0-3.276 2.504-5.781 5.78-5.781h7.709c3.276 0 5.781 2.505 5.781 5.781v15.417c0 3.083-2.698 5.781-5.781 5.781zm-7.709-23.125c-1.156 0-1.927.77-1.927 1.927v15.417c0 1.156.771 1.927 1.927 1.927h7.709c1.156 0 1.927-.77 1.927-1.927V50.104c0-1.156-.771-1.927-1.927-1.927h-7.709z"/>
                <g>
                    <path d="M159.563 69.375h-3.855V48.177h-3.854v-3.854h7.708z"/>
                    <path d="M151.855 67.448h11.563v3.854h-11.564z"/>
                </g>
                <path d="M180.76 71.302h-7.708c-3.276 0-5.781-2.505-5.781-5.781V50.104c0-3.276 2.505-5.781 5.781-5.781h7.708c3.276 0 5.782 2.505 5.782 5.781v15.417c0 3.083-2.698 5.781-5.782 5.781zm-7.708-23.125c-1.156 0-1.927.77-1.927 1.927v15.417c0 1.156.77 1.927 1.927 1.927h7.708c1.157 0 1.927-.77 1.927-1.927V50.104c0-1.156-.77-1.927-1.927-1.927h-7.708z"/>
                <g>
                    <path d="M198.104 69.375h-3.854V48.177h-3.854v-3.854h7.708z"/>
                    <path d="M190.396 67.448h11.563v3.854h-11.563z"/>
                </g>
                <path d="M219.302 71.302h-7.708c-3.276 0-5.782-2.505-5.782-5.781V50.104c0-3.276 2.506-5.781 5.782-5.781h7.708c3.276 0 5.781 2.505 5.781 5.781v15.417c0 3.083-2.698 5.781-5.78 5.781zm-7.708-23.125c-1.157 0-1.927.77-1.927 1.927v15.417c0 1.156.77 1.927 1.927 1.927h7.708c1.156 0 1.927-.77 1.927-1.927V50.104c0-1.156-.77-1.927-1.927-1.927h-7.708z"/>
                <g>
                    <path d="M167.078 138.75h-3.854v-21.198h-3.854v-3.854h7.708z"/>
                    <path d="M159.37 136.823h11.563v3.854H159.37z"/>
                </g>
                <g>
                    <path d="M122.755 104.063h-3.854V82.865h-3.854V79.01h7.708z"/>
                    <path d="M115.047 102.135h11.563v3.854h-11.563z"/>
                </g>
            </g>
            <path fill="#475059" d="M305.828 246.667h-3.854V3.854H66.87v242.813h-3.854V0h242.812z"/>
            <circle cx="46.635" cy="307.177" r="4.625" fill="#F58E70"/>
        </g>
    </g>
</svg>
