<svg xmlns="http://www.w3.org/2000/svg" width="400" height="354" viewBox="0 0 400 354">
    <g fill="none" fill-rule="evenodd">
        <path fill="#50E3C2" d="M205 1.887l143.286 82.726a10 10 0 0 1 5 8.66v165.453a10 10 0 0 1-5 8.66L205 350.114a10 10 0 0 1-10 0L51.714 267.387a10 10 0 0 1-5-8.66V93.273a10 10 0 0 1 5-8.66L195 1.886a10 10 0 0 1 10 0z"/>
        <g fill-rule="nonzero">
            <g transform="translate(52.084 44.75)">
                <path fill="#FFF" d="M147.918 0C73.25 0 12.5 60.748 12.5 135.418c0 74.67 60.749 135.418 135.418 135.418 74.67 0 135.418-60.748 135.418-135.418C283.336 60.748 222.587 0 147.918 0zm0 260.42c-69.036 0-125.001-55.966-125.001-125.002 0-69.037 55.965-125.001 125.001-125.001s125.001 55.964 125.001 125c0 69.037-55.965 125.002-125 125.002z"/>
                <circle cx="147.917" cy="135.419" r="118.751" fill="#50E3C2"/>
                <path fill="#475059" d="M194.989 21.835c-14.927-6.194-30.764-9.335-47.07-9.335-16.043 0-31.642 3.044-46.368 9.044l-1.57-3.858c15.224-6.205 31.354-9.353 47.937-9.353 16.858 0 33.232 3.248 48.666 9.652l-1.595 3.85zM264.228 186.708l-3.813-1.684c6.915-15.658 10.42-32.347 10.42-49.606 0-14.529-2.508-28.748-7.458-42.263l3.915-1.433c5.117 13.976 7.71 28.677 7.71 43.696 0 17.84-3.625 35.098-10.774 51.29zM147.918 262.502c-17.057 0-33.614-3.324-49.211-9.88l1.615-3.84c15.082 6.34 31.096 9.554 47.596 9.554 16.221 0 31.985-3.111 46.851-9.245l1.591 3.853c-15.375 6.342-31.673 9.558-48.442 9.558zM31.606 186.706c-7.147-16.195-10.772-33.45-10.772-51.288 0-14.437 2.402-28.601 7.14-42.1l3.931 1.379C27.324 107.75 25 121.45 25 135.417c0 17.256 3.506 33.945 10.419 49.605l-3.813 1.684z"/>
                <path fill="#475059" d="M147.918 262.502c-20.866 0-33.334-64.614-33.334-127.084S127.052 8.333 147.918 8.333c20.866 0 33.334 64.615 33.334 127.085s-12.468 127.084-33.334 127.084zm0-250.002c-14.085 0-29.167 49.392-29.167 122.918 0 73.526 15.082 122.918 29.167 122.918s29.167-49.392 29.167-122.918c0-73.526-15.082-122.918-29.167-122.918zM235.663 186.631l-3.955-1.314c5.227-15.74 7.878-32.528 7.878-49.9 0-14.147-1.78-28.019-5.292-41.229l4.028-1.07c3.603 13.56 5.43 27.792 5.43 42.3 0 17.818-2.722 35.049-8.089 51.213zM60.173 186.629c-5.367-16.164-8.09-33.393-8.09-51.211 0-14.258 1.767-28.26 5.25-41.61l4.032 1.05c-3.393 13.01-5.114 26.656-5.114 40.56 0 17.37 2.65 34.158 7.877 49.897l-3.955 1.314z"/>
                <path fill="#475059" d="M22.917 133.335h108.334v4.167H22.917zM164.585 133.335h108.334v4.167H164.585z"/>
                <g fill="#475059">
                    <path d="M89.584 68.749H6.25A6.257 6.257 0 0 1 0 62.499V8.33a6.257 6.257 0 0 1 6.25-6.25h83.334a6.257 6.257 0 0 1 6.25 6.25V62.5a6.257 6.257 0 0 1-6.25 6.25zM6.25 6.248c-1.15 0-2.083.934-2.083 2.083V62.5c0 1.15.934 2.083 2.083 2.083h83.334c1.15 0 2.084-.934 2.084-2.083V8.33c0-1.15-.934-2.083-2.084-2.083H6.25z"/>
                    <path d="M62.44 87.499H33.283l.045-4.51 3.08-14.631v-3.776h22.904v3.947l3.128 14.889v4.08zm-24.927-4.167h20.695L55.146 68.75l-14.571.044-3.062 14.54z"/>
                    <path d="M29.116 83.33h37.49v4.167h-37.49z"/>
                </g>
                <g fill="#475059">
                    <path d="M289.706 68.749h-83.334a6.257 6.257 0 0 1-6.25-6.25V8.33a6.257 6.257 0 0 1 6.25-6.25h83.334a6.257 6.257 0 0 1 6.25 6.25V62.5a6.257 6.257 0 0 1-6.25 6.25zM206.372 6.248c-1.15 0-2.083.934-2.083 2.083V62.5c0 1.15.933 2.083 2.083 2.083h83.334c1.15 0 2.083-.934 2.083-2.083V8.33c0-1.15-.933-2.083-2.083-2.083h-83.334z"/>
                    <path d="M262.561 87.499h-29.158l.044-4.51 3.083-14.631v-3.776h22.904v3.947l3.127 14.889v4.08zm-24.929-4.167h20.698l-3.062-14.583-14.572.044-3.064 14.54z"/>
                    <path d="M229.238 83.33h37.49v4.167h-37.49z"/>
                </g>
                <g fill="#475059">
                    <path d="M89.584 256.364H6.25a6.257 6.257 0 0 1-6.25-6.25v-54.167a6.257 6.257 0 0 1 6.25-6.25h83.334a6.257 6.257 0 0 1 6.25 6.25v54.167a6.257 6.257 0 0 1-6.25 6.25zm-83.334-62.5c-1.15 0-2.083.934-2.083 2.083v54.167c0 1.15.934 2.084 2.083 2.084h83.334c1.15 0 2.084-.934 2.084-2.084v-54.167c0-1.15-.934-2.083-2.084-2.083H6.25z"/>
                    <path d="M62.44 275.112H33.283l.045-4.51 3.08-14.63v-3.774h22.904v3.947l3.128 14.888v4.08zm-24.927-4.166h20.695l-3.062-14.582-14.571.043-3.062 14.539z"/>
                    <path d="M29.116 270.944h37.49v4.167h-37.49z"/>
                </g>
                <g fill="#475059">
                    <path d="M289.706 256.364h-83.334a6.257 6.257 0 0 1-6.25-6.25v-54.167a6.257 6.257 0 0 1 6.25-6.25h83.334a6.257 6.257 0 0 1 6.25 6.25v54.167a6.257 6.257 0 0 1-6.25 6.25zm-83.334-62.5c-1.15 0-2.083.934-2.083 2.083v54.167c0 1.15.933 2.084 2.083 2.084h83.334c1.15 0 2.083-.934 2.083-2.084v-54.167c0-1.15-.933-2.083-2.083-2.083h-83.334z"/>
                    <path d="M262.561 275.112h-29.158l.044-4.51 3.083-14.63v-3.774h22.904v3.947l3.127 14.888v4.08zm-24.929-4.166h20.698l-3.062-14.582-14.572.043-3.064 14.539z"/>
                    <path d="M229.238 270.944h37.49v4.167h-37.49z"/>
                </g>
                <path fill="#475059" d="M158.335 145.835H137.5V125h20.834v20.834zm-16.667-4.167h12.5v-12.5h-12.5v12.5z"/>
            </g>
            <path fill="#475059" d="M42.393 243.99c-.545-1.297-1.072-2.6-1.582-3.913l3.881-1.514a164.09 164.09 0 0 0 1.543 3.815l-3.842 1.611zm-3.068-7.862a173.37 173.37 0 0 1-1.385-3.982l3.95-1.322c.436 1.302.888 2.598 1.354 3.888l-3.919 1.416zm-2.673-7.996c-.413-1.345-.81-2.695-1.188-4.05l4.012-1.124c.37 1.323.755 2.637 1.16 3.945l-3.984 1.23zm-2.275-8.126c-.348-1.36-.675-2.73-.986-4.105l4.065-.92c.303 1.339.622 2.671.958 4l-4.037 1.025zm-1.87-8.227c-.276-1.378-.536-2.761-.78-4.149l4.105-.72c.236 1.355.488 2.702.761 4.043l-4.085.826zm-1.456-8.313a176.343 176.343 0 0 1-.574-4.18l4.134-.516c.171 1.365.358 2.722.562 4.077l-4.122.619zm-1.044-8.368a158.22 158.22 0 0 1-.366-4.206l4.154-.309c.104 1.371.222 2.737.359 4.1l-4.147.415zm-.628-8.415c-.07-1.402-.123-2.808-.16-4.218l4.168-.101c.032 1.373.085 2.742.154 4.111l-4.162.208zm-.214-8.437c0-1.518.016-2.869.047-4.214l4.166.094c-.03 1.316-.046 2.635-.046 3.959l-4.167.16zm4.36-8.23l-4.163-.2c.07-1.407.153-2.811.255-4.209l4.154.301a170.524 170.524 0 0 0-.246 4.108zm.598-8.207l-4.146-.403a167.3 167.3 0 0 1 .462-4.195l4.134.508a157.001 157.001 0 0 0-.45 4.09zm.999-8.165L31 153.03c.208-1.392.431-2.78.67-4.159l4.105.708a179.82 179.82 0 0 0-.653 4.065zm1.406-8.11l-4.085-.81c.272-1.38.565-2.758.874-4.127l4.065.915a168.088 168.088 0 0 0-.854 4.023zm1.809-8.026l-4.041-1.013c.342-1.365.702-2.724 1.076-4.077l4.016 1.11c-.366 1.321-.718 2.648-1.051 3.98zm2.199-7.926l-3.984-1.217a174.43 174.43 0 0 1 1.28-4.02l3.955 1.314c-.433 1.3-.848 2.607-1.251 3.923zm2.596-7.813l-3.923-1.408c.476-1.324.969-2.642 1.477-3.953l3.886 1.51a158.86 158.86 0 0 0-1.44 3.851zm2.974-7.668l-3.845-1.603c.541-1.3 1.097-2.592 1.67-3.874l3.805 1.697a177.66 177.66 0 0 0-1.63 3.78z"/>
            <g fill="#475059">
                <path d="M299.451 44.335c-.547-.409-1.098-.813-1.652-1.214l2.446-3.373c.57.413 1.137.83 1.7 1.25l-2.494 3.337zM294.455 40.755a162.394 162.394 0 0 0-3.402-2.281l2.279-3.491c1.174.767 2.335 1.548 3.487 2.341l-2.364 3.43zm-188.853-.039l-2.364-3.43a170.95 170.95 0 0 1 3.49-2.342l2.278 3.491a162.53 162.53 0 0 0-3.404 2.281zm181.992-4.445a155.313 155.313 0 0 0-3.505-2.112l2.103-3.597c1.209.706 2.41 1.43 3.6 2.168l-2.198 3.54zm-175.13-.035l-2.189-3.544c1.19-.735 2.389-1.457 3.597-2.165l2.108 3.593c-1.18.692-2.354 1.398-3.516 2.116zm168.06-4.104a157.262 157.262 0 0 0-3.607-1.939l1.925-3.694c1.243.647 2.476 1.31 3.7 1.987l-2.018 3.646zm-160.983-.036l-2.019-3.646a165.978 165.978 0 0 1 3.707-1.99l1.92 3.699c-1.212.63-2.414 1.275-3.608 1.937zm153.724-3.75c-1.225-.6-2.458-1.186-3.7-1.758l1.74-3.784c1.272.584 2.538 1.186 3.795 1.803l-1.835 3.739zm-146.455-.035l-1.831-3.743c1.26-.617 2.523-1.217 3.798-1.803l1.738 3.789a162.25 162.25 0 0 0-3.705 1.757zm139.013-3.39a167.85 167.85 0 0 0-3.782-1.574l1.554-3.865c1.302.522 2.592 1.06 3.876 1.611l-1.648 3.829zm-131.56-.036l-1.649-3.825a162.31 162.31 0 0 1 3.882-1.615l1.55 3.87c-1.269.506-2.53 1.031-3.784 1.57zm123.959-3.01a163.12 163.12 0 0 0-3.852-1.384l1.355-3.94c1.325.455 2.641.929 3.954 1.417l-1.457 3.906zm-116.35-.037l-1.453-3.907a175.44 175.44 0 0 1 3.955-1.416l1.359 3.94c-1.294.445-2.582.907-3.862 1.383zm108.61-2.637c-1.298-.411-2.604-.81-3.916-1.192l1.164-4c1.345.39 2.683.797 4.014 1.22l-1.261 3.972zm-100.855-.03l-1.261-3.972c1.334-.423 2.675-.83 4.022-1.22l1.164 4a161.64 161.64 0 0 0-3.925 1.191zm92.994-2.253a171.92 171.92 0 0 0-3.975-.997l.968-4.053c1.363.326 2.718.666 4.07 1.022l-1.063 4.028zm-85.12-.032l-1.058-4.029c1.355-.356 2.714-.698 4.079-1.02l.96 4.054c-1.332.317-2.659.647-3.981.995zm77.157-1.86c-1.333-.28-2.671-.547-4.016-.798l.765-4.097c1.377.258 2.748.529 4.114.818l-.863 4.077zm-69.176-.028l-.858-4.078c1.369-.289 2.744-.56 4.126-.816l.756 4.098c-1.344.248-2.687.515-4.024.796zm61.127-1.467a176.438 176.438 0 0 0-4.05-.599l.561-4.13c1.388.19 2.771.395 4.149.615l-.66 4.114zm-53.064-.029l-.651-4.114c1.381-.22 2.767-.423 4.156-.61l.558 4.13c-1.361.183-2.714.383-4.063.594zm44.955-1.068a178.37 178.37 0 0 0-4.077-.4l.362-4.151c1.395.122 2.785.256 4.17.409l-.455 4.142zm-36.819-.02l-.456-4.143c1.392-.152 2.788-.289 4.187-.407l.354 4.15c-1.367.119-2.73.251-4.085.4zm28.664-.682c-1.359-.081-2.724-.148-4.091-.201l.159-4.163c1.4.053 2.793.12 4.185.206l-.253 4.158zm-20.485-.01l-.252-4.159c1.397-.085 2.797-.152 4.203-.201l.146 4.163c-1.369.048-2.736.116-4.097.197zm8.203-.293l-.053-4.167c.79-.01 1.573-.014 2.362-.012.619 0 1.237.004 1.852.012l-.057 4.167c-.719-.01-1.437-.01-2.159-.012-.655 0-1.3.004-1.945.012z"/>
            </g>
            <path fill="#475059" d="M200.002 348.92c-.704 0-1.406-.004-2.108-.012l.049-4.167c1.402.016 2.804.014 4.197 0l.049 4.167c-.728.008-1.457.012-2.187.012zm6.474-.118l-.155-4.163c1.398-.053 2.791-.124 4.179-.21l.26 4.16c-1.424.089-2.85.16-4.284.213zM193.6 348.8a166.215 166.215 0 0 1-4.289-.212l.26-4.158c1.39.085 2.786.154 4.184.207l-.155 4.163zm-8.57-.53c-1.43-.123-2.856-.264-4.276-.424l.468-4.14c1.384.154 2.773.294 4.167.415l-.358 4.15zm30.006-.005l-.366-4.15c1.395-.123 2.783-.261 4.167-.418l.467 4.139c-1.416.16-2.84.303-4.268.429zm-38.54-.954c-1.42-.196-2.834-.41-4.244-.637l.667-4.114c1.378.224 2.76.433 4.147.625l-.57 4.126zm47.069-.008l-.57-4.127c1.382-.19 2.763-.4 4.138-.626l.672 4.114c-1.408.23-2.822.443-4.24.639zm-55.54-1.376c-1.409-.268-2.81-.551-4.208-.852l.879-4.073c1.36.293 2.73.571 4.105.832l-.777 4.093zm64.007-.01l-.777-4.093c1.372-.26 2.739-.54 4.1-.835l.883 4.073c-1.394.304-2.798.586-4.206.855zm-72.402-1.803a165.991 165.991 0 0 1-4.16-1.064l1.086-4.024c1.347.364 2.697.71 4.054 1.04l-.98 4.048zm80.785-.014l-.977-4.049c1.357-.327 2.708-.675 4.05-1.037l1.087 4.02c-1.38.374-2.767.73-4.16 1.066zm-89.072-2.222a171.04 171.04 0 0 1-4.1-1.273l1.286-3.963c1.327.429 2.66.844 3.998 1.24l-1.184 3.996zm97.36-.016l-1.192-3.992c1.34-.4 2.676-.815 4.002-1.245l1.286 3.964c-1.36.441-2.724.864-4.096 1.273zm-105.53-2.639c-1.351-.476-2.694-.97-4.029-1.479l1.481-3.894c1.306.497 2.617.979 3.935 1.447l-1.387 3.926zm113.689-.01l-1.384-3.93c1.317-.464 2.627-.947 3.927-1.443l1.49 3.89c-1.337.513-2.68 1.007-4.033 1.483zm-121.708-3.05a164.509 164.509 0 0 1-3.953-1.682l1.685-3.813c1.278.566 2.56 1.111 3.851 1.642l-1.583 3.853zm129.732-.014l-1.591-3.853a164.605 164.605 0 0 0 3.853-1.642l1.68 3.813a192.722 192.722 0 0 1-3.942 1.682zM127.3 332.703a164.917 164.917 0 0 1-3.861-1.88l1.871-3.723c1.246.626 2.5 1.237 3.764 1.83l-1.774 3.773zm145.434-.017l-1.774-3.772a156.507 156.507 0 0 0 3.762-1.83l1.872 3.723c-1.278.642-2.564 1.27-3.86 1.88zM357.608 243.987l-3.84-1.611a164.092 164.092 0 0 0 1.541-3.815l3.882 1.514a155.569 155.569 0 0 1-1.583 3.912zm3.068-7.861l-3.918-1.416c.466-1.29.917-2.586 1.353-3.888l3.95 1.322a173.37 173.37 0 0 1-1.385 3.982zm2.676-7.996l-3.984-1.229c.405-1.308.79-2.622 1.16-3.945l4.012 1.124a164.77 164.77 0 0 1-1.188 4.05zm2.272-8.124l-4.036-1.025c.336-1.329.655-2.661.958-4l4.065.92a152.656 152.656 0 0 1-.987 4.105zm1.872-8.233l-4.085-.818c.268-1.343.523-2.692.759-4.047l4.105.72a173.082 173.082 0 0 1-.779 4.145zm1.457-8.31l-4.122-.618c.203-1.355.39-2.712.561-4.077l4.135.517a176.339 176.339 0 0 1-.574 4.179zm1.042-8.367l-4.147-.415c.136-1.364.254-2.729.358-4.1l4.155.31c-.104 1.407-.226 2.809-.366 4.205zm.628-8.415l-4.162-.208c.069-1.369.122-2.738.154-4.111l4.167.101c-.037 1.41-.09 2.816-.159 4.218zm-1.87-8.437h-2.083c-.002-1.48-.018-2.802-.049-4.12l4.167-.094c.03 1.347.047 2.698.049 4.05l-2.084.164zm-2.278-8.23a170.521 170.521 0 0 0-.246-4.108l4.154-.3c.102 1.397.185 2.8.254 4.209l-4.162.199zm-.596-8.205a157 157 0 0 0-.45-4.09l4.134-.508a167.3 167.3 0 0 1 .462 4.195l-4.146.403zm-1.001-8.165c-.204-1.36-.42-2.716-.653-4.067l4.105-.708c.238 1.38.462 2.767.67 4.16l-4.122.615zm-1.404-8.111a168.083 168.083 0 0 0-.855-4.023l4.065-.915c.31 1.37.603 2.746.875 4.128l-4.085.81zm-1.809-8.027c-.333-1.332-.685-2.659-1.052-3.98l4.017-1.11c.374 1.353.734 2.712 1.076 4.077l-4.04 1.013zm-2.2-7.924a166.101 166.101 0 0 0-1.25-3.923l3.955-1.314c.441 1.333.869 2.671 1.28 4.02l-3.984 1.217zm-2.595-7.815a158.858 158.858 0 0 0-1.44-3.851l3.885-1.51c.509 1.31 1.001 2.629 1.477 3.953l-3.922 1.408zm-2.975-7.668a177.66 177.66 0 0 0-1.63-3.78l3.805-1.697c.574 1.282 1.13 2.574 1.67 3.874l-3.845 1.603z"/>
            <g transform="translate(0 1)">
                <g fill="#48515A">
                    <path d="M12.5 220.835h4.167v8.333H12.5zM12.5 241.67h4.167v8.332H12.5zM20.834 233.335h8.333v4.167h-8.333zM0 233.335h8.333v4.167H0z"/>
                </g>
                <g fill="#48515A">
                    <path d="M383.337 70.834h4.167v8.333h-4.167zM383.337 91.668h4.167v8.333h-4.167zM391.67 83.334h8.334v4.167h-8.333zM370.837 83.334h8.333v4.167h-8.333z"/>
                </g>
                <g fill="#FFD15D" transform="translate(312.503 22.917)">
                    <circle cx="7.422" cy="7.162" r="5.078"/>
                    <path d="M7.422 13.281a6.126 6.126 0 0 1-6.12-6.12 6.126 6.126 0 0 1 6.12-6.12 6.126 6.126 0 0 1 6.12 6.12 6.126 6.126 0 0 1-6.12 6.12zm0-10.156a4.041 4.041 0 0 0-4.037 4.037 4.041 4.041 0 0 0 4.037 4.036 4.041 4.041 0 0 0 4.036-4.036 4.041 4.041 0 0 0-4.036-4.037z"/>
                </g>
                <g fill="#FFD15D" transform="translate(14.583 131.251)">
                    <circle cx="7.162" cy="7.162" r="5.078"/>
                    <path d="M7.162 13.281a6.126 6.126 0 0 1-6.12-6.12 6.126 6.126 0 0 1 6.12-6.12 6.126 6.126 0 0 1 6.12 6.12 6.126 6.126 0 0 1-6.12 6.12zm0-10.156a4.041 4.041 0 0 0-4.037 4.037 4.041 4.041 0 0 0 4.037 4.036 4.041 4.041 0 0 0 4.036-4.036 4.041 4.041 0 0 0-4.036-4.037z"/>
                </g>
                <circle cx="121.746" cy="5.078" r="5.078" fill="#5FE0ED"/>
                <circle cx="59.246" cy="334.248" r="5.078" fill="#5FE0ED"/>
                <g fill="#FFD15D" transform="translate(27.084 270.836)">
                    <circle cx="7.162" cy="7.422" r="5.078"/>
                    <path d="M7.162 13.542a6.126 6.126 0 0 1-6.12-6.12 6.126 6.126 0 0 1 6.12-6.12 6.126 6.126 0 0 1 6.12 6.12 6.126 6.126 0 0 1-6.12 6.12zm0-10.157a4.041 4.041 0 0 0-4.037 4.037 4.041 4.041 0 0 0 4.037 4.036 4.041 4.041 0 0 0 4.036-4.036 4.041 4.041 0 0 0-4.036-4.037z"/>
                </g>
                <circle cx="358.337" cy="279.169" r="4.167" fill="#DEDEDD"/>
                <path fill="#48515A" d="M356.253 31.25c-4.596 0-8.333-3.737-8.333-8.333s3.737-8.334 8.333-8.334 8.334 3.738 8.334 8.334-3.738 8.333-8.334 8.333zm0-12.5a4.172 4.172 0 0 0-4.166 4.167 4.172 4.172 0 0 0 4.166 4.167 4.172 4.172 0 0 0 4.167-4.167 4.172 4.172 0 0 0-4.167-4.167z"/>
                <g fill="#48515A">
                    <path d="M72.917 25h-4.166V10.415h-2.084V6.248h6.25z"/>
                    <path d="M66.667 22.917H75v4.167h-8.333z"/>
                </g>
                <g fill="#48515A">
                    <path d="M343.753 333.339h-4.166v-14.586h-2.084v-4.167h6.25z"/>
                    <path d="M337.503 331.255h8.333v4.167h-8.333z"/>
                </g>
                <path fill="#48515A" d="M25 72.92a6.257 6.257 0 0 1-6.25-6.25v-8.336a6.257 6.257 0 0 1 6.25-6.25 6.257 6.257 0 0 1 6.25 6.25v8.335A6.257 6.257 0 0 1 25 72.92zm0-16.67c-1.15 0-2.083.934-2.083 2.084v8.335c0 1.15.934 2.084 2.083 2.084 1.15 0 2.084-.934 2.084-2.084v-8.335c0-1.15-.934-2.083-2.084-2.083zM291.67 352.089a6.257 6.257 0 0 1-6.25-6.25v-8.336a6.257 6.257 0 0 1 6.25-6.25 6.257 6.257 0 0 1 6.25 6.25v8.336a6.257 6.257 0 0 1-6.25 6.25zm0-16.67c-1.15 0-2.084.935-2.084 2.084v8.336c0 1.15.934 2.083 2.083 2.083 1.15 0 2.084-.934 2.084-2.083v-8.336c0-1.15-.934-2.083-2.084-2.083z"/>
            </g>
        </g>
    </g>
</svg>
