<svg xmlns="http://www.w3.org/2000/svg" width="130" height="105" viewBox="0 0 130 105">
    <g fill="none" fill-rule="nonzero">
        <path fill="#FFD15D" d="M107.082 34.175L86.577 31.16l-21.98 21.98-15.076-15.078 2.814-2.815L64.598 47.51l16.954-16.953-3.887-.536L64.53 3.284 51.397 29.887l-29.35 4.288 21.242 20.706-5.026 29.284 10.789-5.696-2.68-6.5 8.308 3.552 9.85-5.227L90.8 84.098 85.773 54.88l21.31-20.706z"/>
        <path fill="#DEDEDD" d="M128.19 49.387L109.36 31.36s0 .067.068.067c-.402-.402-.938-.67-1.541-.804l-12.732-1.609-2.48-.469-1.139-2.278-2.412 2.412 5.495 1.073 12.732 1.876c2.21.335 3.082 3.015 1.474 4.557l-20.17 19.7 4.757 27.81c.402 2.211-1.943 3.886-3.886 2.814L64.598 73.376l-6.634 3.485 7.304 3.15-5.495 3.283L61.18 84.7l4.155 4.155-.469.469-1.407 1.407-5.428-5.428-3.217 6.5-.87-2.144-3.62-8.779-10.587 5.562c-.335.201-.67.268-1.005.268l18.227 17.423c.536.47 1.206.804 1.943.737.402 0 .804-.134 1.273-.335L84.902 91l25.196 12.665c.402.201.871.268 1.273.268 1.541 0 2.882-1.474 2.614-3.217l-5.227-27.675 19.835-20.036c.737-.938.603-2.613-.402-3.618zM66.81 2.345L78.87 26.737 84.3 27.81l4.69-4.69L66.408 1.34a2.684 2.684 0 0 0-1.943-.804c-.938 0-1.876.536-2.412 1.541 1.139-1.742 3.82-1.675 4.757.268z"/>
        <g>
            <g fill="#48515A">
                <path d="M11.66 3.35H13v2.68h-1.34zM11.66 10.052H13v2.68h-1.34z"/>
                <g>
                    <path d="M14.34 7.371h2.68v1.34h-2.68zM7.64 7.371h2.68v1.34H7.64z"/>
                </g>
            </g>
            <g fill="#48515A">
                <path d="M49.789 80.345l-10.655 5.63c-.67.334-1.474.334-2.144-.135-.603-.469-.938-1.206-.804-1.943l4.824-28.144-20.37-19.97a2.151 2.151 0 0 1-.537-2.077c.268-.737.871-1.273 1.608-1.34l28.279-4.088L62.655 2.68c.335-.67 1.005-1.139 1.809-1.139s1.474.402 1.81 1.14l12.061 24.391c.134.335.536.47.871.335.335-.134.47-.536.335-.87L67.48 2.143C66.943 1.005 65.737.268 64.464.268c-1.273 0-2.412.737-3.016 1.876l-12.33 24.861-27.54 4.02a3.35 3.35 0 0 0-2.681 2.28 3.26 3.26 0 0 0 .871 3.417l19.97 19.433-4.692 27.474c-.2 1.273.268 2.546 1.34 3.283 1.006.737 2.413.872 3.552.268l10.52-5.561-.67-1.274zM110.03 33.304a3.35 3.35 0 0 0-2.68-2.278L94.62 29.149c-.335-.067-.738.202-.738.537-.067.335.201.737.537.737l12.731 1.876c.805.134 1.408.603 1.609 1.34a1.884 1.884 0 0 1-.536 2.077l-20.438 19.97 4.824 28.144c.134.804-.134 1.474-.804 1.943-.603.47-1.407.536-2.144.134L64.397 72.64l-7.438 3.887 1.608.67 5.83-3.083 24.66 12.933c.469.268 1.005.402 1.54.402.671 0 1.408-.2 1.944-.67 1.072-.737 1.541-2.01 1.34-3.283l-4.69-27.474 19.969-19.433c.938-.737 1.273-2.078.87-3.284z"/>
            </g>
            <path fill="#48515A" d="M89.124 52.201a.608.608 0 0 1-.47-.201.648.648 0 0 1 0-.938l16.686-16.284-13.87-2.01c-.336-.067-.604-.402-.537-.737.067-.335.402-.603.737-.536l15.211 2.211c.268.067.47.201.537.47.067.267 0 .535-.202.67l-17.69 17.221c-.067.067-.201.134-.402.134zm-12.196-22.65c-.268 0-.47-.133-.603-.402L65.134 6.5c-.134-.335 0-.737.335-.871s.737 0 .871.335L77.53 28.68c.135.335 0 .738-.334.872h-.268zM64.598 4.69a.608.608 0 0 1-.47-.2.608.608 0 0 1-.2-.47c0-.2.067-.334.2-.468a.648.648 0 0 1 .939 0 .608.608 0 0 1 .201.469.608.608 0 0 1-.201.469c-.067.134-.268.2-.47.2zM86.711 54.278a.608.608 0 0 1-.469-.2.724.724 0 0 1-.2-.47c0-.067 0-.2.066-.268 0-.067.067-.134.134-.2l.067-.068c.067 0 .067-.067.134-.067s.067 0 .134-.067a.54.54 0 0 1 .603.201c.067.067.134.134.134.201s.067.134.067.268a.608.608 0 0 1-.2.47c-.068.133-.269.2-.47.2z"/>
            <path fill="#48515A" d="M64.598 56.892l-18.83-18.83 6.634-6.634L64.665 43.69l37.392-37.392 6.634 6.634-44.093 43.959zm-16.954-18.83l16.954 16.953 42.082-42.082-4.757-4.758L64.598 45.5 52.402 33.304l-4.758 4.758z"/>
            <path fill="#FFD15D" d="M37.86 13.871l-.602-1.139-.536 1.14-1.274.2.939.871-.201 1.273 1.072-.603 1.139.603-.201-1.273.938-.87z"/>
            <path fill="#48515A" d="M34.376 19.97c-.268 0-.536-.068-.804-.269a1.457 1.457 0 0 1-.536-1.34l.47-2.547-1.877-1.742a1.396 1.396 0 0 1-.335-1.34c.134-.47.603-.871 1.072-.938l2.546-.402 1.14-2.346c.2-.469.67-.737 1.206-.737.536 0 1.005.268 1.206.737l1.14 2.346 2.545.402c.537.067.939.402 1.073.938.134.469 0 1.005-.335 1.407l-1.877 1.81.47 2.546a1.457 1.457 0 0 1-.537 1.34c-.402.335-.938.335-1.407.134l-2.278-1.206-2.279 1.206c-.2-.067-.402 0-.603 0zm2.882-10.254l-1.474 2.949-3.284.469 2.345 2.278-.536 3.217 2.882-1.541 2.881 1.54-.402-3.216 2.345-2.278-3.283-.47-1.474-2.948zM16.216 56.69c-.2 0-.402-.066-.603-.133l-4.958-2.614-4.96 2.614a1.212 1.212 0 0 1-1.406-.134 1.457 1.457 0 0 1-.536-1.34l.938-5.495L.67 45.7c-.336-.335-.47-.871-.336-1.407.134-.47.603-.804 1.072-.938l5.562-.804 2.48-5.026c.2-.47.67-.737 1.206-.737.536 0 1.005.268 1.206.737l2.48 5.026 5.561.804c.536.067.938.402 1.072.938.134.469 0 1.005-.335 1.407l-4.02 3.887.938 5.494a1.457 1.457 0 0 1-.536 1.34 1.288 1.288 0 0 1-.805.269zm-5.561-4.288l5.561 2.949-1.072-6.232 4.49-4.423-6.232-.871-2.747-5.63-2.815 5.63-6.232.938 4.49 4.423-1.072 6.232 5.629-3.016z"/>
            <path fill="#FFD15D" d="M10.655 41.211l-1.944 3.82-4.221.603 3.082 3.015-.737 4.222 3.82-2.01 3.752 2.01-.67-4.222 3.016-3.015-4.222-.603z"/>
            <path fill="#48515A" d="M54.48 93.48l-9.382-22.717 21.51 9.18-5.897 3.552 5.361 5.36-2.814 2.815-5.227-5.227-3.552 7.036zm-6.836-20.238l7.036 16.954 3.016-6.031 5.629 5.629.938-.938-5.629-5.63 5.16-3.082-16.15-6.902z"/>
            <g fill="#475059">
                <path d="M61.85 67.077H20.975a3.318 3.318 0 0 1-3.35-3.35 3.318 3.318 0 0 1 3.35-3.35h40.877l7.237 3.35-7.237 3.35zm-40.876-5.36c-1.139 0-2.01.87-2.01 2.01 0 1.139.871 2.01 2.01 2.01h40.541l4.356-2.01-4.356-2.01h-40.54z"/>
                <path d="M24.727 61.314h1.34v5.093h-1.34z"/>
                <path d="M25.397 63.056H61.18v1.34H25.397z"/>
            </g>
            <g>
                <path fill="#475059" d="M128.392 69.02l-1.273-.401.2-.67-.87-.269a2.455 2.455 0 0 1-1.676-2.345c0-1.072.67-2.01 1.675-2.345l.872-.268-.47-1.475-.87.268c-1.006.336-2.145 0-2.748-.87-.67-.872-.603-2.011 0-2.882l.536-.737-1.206-.871-.536.737c-.67.87-1.742 1.206-2.748.87a2.455 2.455 0 0 1-1.675-2.344v-.872h-1.541v.872c0 1.072-.67 2.01-1.675 2.345-1.006.335-2.145 0-2.748-.871l-.536-.737-1.206.804.536.737c.67.871.603 2.01 0 2.881-.67.871-1.742 1.207-2.747.871l-.872-.268-.2.67-1.274-.402.67-1.943 2.145.67c.603.201 1.005-.067 1.273-.402.2-.335.335-.804 0-1.34l-1.34-1.81 3.417-2.479 1.34 1.81c.335.469.871.536 1.274.402.402-.134.804-.47.804-1.072v-2.212h4.221v2.212c0 .603.402.938.804 1.072.403.134.872.067 1.274-.402l1.34-1.81 3.417 2.48-1.34 1.809c-.335.47-.2 1.005 0 1.34.201.335.67.603 1.273.402l2.145-.67 1.273 4.02-2.144.67c-.604.202-.805.671-.805 1.073 0 .402.201.871.805 1.072l2.144.67-.938 2.01z"/>
                <path fill="#F58E70" d="M122.227 67.01l-1.273-.402c.737-2.278-.536-4.757-2.748-5.495-1.072-.335-2.278-.268-3.283.268-1.005.537-1.81 1.408-2.145 2.547l-1.273-.402a5.484 5.484 0 0 1 2.815-3.284 5.765 5.765 0 0 1 4.355-.335c2.949.938 4.557 4.155 3.552 7.103z"/>
                <g>
                    <path fill="#F58E70" d="M116.866 70.897c-.603 0-1.206-.067-1.742-.268-2.949-.938-4.624-4.155-3.619-7.17l1.273.402c-.737 2.278.536 4.758 2.748 5.495 1.072.335 2.278.268 3.283-.268s1.81-1.408 2.145-2.547l1.273.402a5.484 5.484 0 0 1-2.815 3.284c-.804.469-1.675.67-2.546.67z"/>
                    <path fill="#475059" d="M118.943 77.397h-4.221v-2.211c0-.604-.402-.939-.804-1.073-.403-.134-.872-.067-1.274.402l-1.34 1.81-3.417-2.48 1.34-1.809c.335-.469.2-1.005 0-1.34-.201-.335-.67-.603-1.273-.402l-2.145.67-1.273-4.02 2.144-.67c.604-.202.805-.67.805-1.073 0-.402-.201-.871-.805-1.072l-2.144-.67.737-2.212 1.273.402-.268.939.871.268a2.455 2.455 0 0 1 1.676 2.345c0 1.072-.67 2.01-1.676 2.345l-.87.268.468 1.475.872-.268c1.005-.335 2.144 0 2.747.87.67.872.603 2.011 0 2.882l-.536.737 1.206.871.536-.737c.67-.87 1.742-1.206 2.748-.87a2.455 2.455 0 0 1 1.675 2.345v.87h1.541v-.87c0-1.073.67-2.01 1.675-2.346 1.005-.335 2.145 0 2.748.871l.536.737 1.206-.87-.536-.738c-.67-.87-.603-2.01 0-2.881.67-.871 1.742-1.206 2.747-.871l.872.268.335-1.005 1.273.402-.737 2.278-2.145-.67c-.603-.201-1.005.067-1.273.402-.2.335-.335.804 0 1.34l1.34 1.81-3.417 2.479-1.34-1.81c-.335-.469-.872-.536-1.274-.402s-.804.47-.804 1.073l.201 2.21z"/>
                </g>
                <g fill="#FFD15D" transform="translate(113.247 62.32)">
                    <circle cx="3.552" cy="3.015" r="2.68"/>
                    <path d="M3.552 6.03A3.003 3.003 0 0 1 .536 3.016 3.003 3.003 0 0 1 3.552 0a3.003 3.003 0 0 1 3.015 3.015 3.003 3.003 0 0 1-3.015 3.016zm0-5.36c-1.274 0-2.346 1.072-2.346 2.345 0 1.274 1.072 2.346 2.346 2.346 1.273 0 2.345-1.072 2.345-2.346A2.33 2.33 0 0 0 3.552.67z"/>
                </g>
            </g>
            <g>
                <path fill="#FFD15D" d="M119.01 27.943l-.603-1.139-.536 1.14-1.273.2.938.871-.268 1.274 1.14-.603 1.138.603-.2-1.274.87-.87z"/>
                <path fill="#48515A" d="M121.356 34.041c-.201 0-.402-.067-.603-.134l-2.279-1.206-2.278 1.206a1.212 1.212 0 0 1-1.407-.134 1.457 1.457 0 0 1-.536-1.34l.469-2.546-1.877-1.81c-.335-.335-.469-.87-.335-1.407.134-.469.603-.804 1.072-.938l2.547-.402 1.139-2.345c.201-.47.67-.738 1.206-.738.536 0 1.005.268 1.206.738l1.14 2.345 2.546.402c.536.067.938.402 1.072.938.134.47 0 1.005-.335 1.407l-1.876 1.81.469 2.546a1.457 1.457 0 0 1-.536 1.34 1.288 1.288 0 0 1-.804.268zm-2.949-10.252l-1.474 2.948-3.284.47 2.346 2.278-.536 3.216 2.881-1.541 2.882 1.541-.536-3.216 2.345-2.279-3.284-.469-1.34-2.948z"/>
            </g>
            <g fill="#48515A">
                <path d="M109.495 84.098h1.34v2.68h-1.34zM109.495 90.799h1.34v2.68h-1.34z"/>
                <g>
                    <path d="M112.175 88.119h2.68v1.34h-2.68zM105.474 88.119h2.68v1.34h-2.68z"/>
                </g>
            </g>
            <g fill="#48515A">
                <path d="M117.536 8.041h1.34v2.68h-1.34zM117.536 14.742h1.34v2.68h-1.34z"/>
                <g>
                    <path d="M120.216 12.062h2.68v1.34h-2.68zM113.515 12.062h2.68v1.34h-2.68z"/>
                </g>
            </g>
            <circle cx="14.206" cy="76.258" r="1.474" fill="#FFD15D"/>
            <circle cx="87.046" cy="10.387" r="2.01" fill="#FFD15D"/>
            <circle cx="119.747" cy="84.299" r="1.206" fill="#FFD15D"/>
            <circle cx="15.211" cy="24.66" r="3.216" fill="#FFD15D"/>
        </g>
    </g>
</svg>
