<svg xmlns="http://www.w3.org/2000/svg" width="120" height="105" viewBox="0 0 120 105">
    <g fill="none" fill-rule="nonzero">
        <path fill="#FFD15D" d="M100.917 24.373L64.668 47.565 33.891 28.04V69.39h20.83v-5.534h.621c1.057 0 1.865.808 1.865 1.865v-6.84c0-.807.746-1.43 1.617-1.18.56.124.932.683.932 1.243v5.72c0-.808.809-1.43 1.617-1.181.56.124.87.684.87 1.243v-.124c0-.684.684-1.181 1.368-1.12.622.063 1.12.623 1.12 1.307v.621c.062-.684.684-1.243 1.43-1.119.621.062 1.057.684 1.057 1.306v3.793h34.88V24.31l-1.18.062zm-11.13 41.658H70.7v-5.285h19.089v5.285z"/>
        <g>
            <path fill="#FFD15D" d="M32.891 24.56v3.544l30.84 18.839 35.44-21.762-.435-.621z"/>
            <g fill="#48515A">
                <path d="M103.337 41.472h-1.244V23.44H32.891v-1.243h70.446z"/>
                <path d="M63.668 48.31L32.58 28.478l.684-.995 30.404 19.337 38.736-24.498.684.995z"/>
            </g>
            <path fill="#48515A" d="M98.3 67.461a.565.565 0 0 1-.497-.249l-20.331-24.31c-.25-.25-.187-.684.062-.87.248-.25.684-.187.87.061l20.332 24.373c.248.249.186.684-.062.87-.125.125-.25.125-.373.125zM102.777 44.207c-.062 0-.186 0-.249-.062-.062-.062-.124-.062-.186-.124a.564.564 0 0 1-.187-.436v-.124c0-.062 0-.062.063-.124 0-.062.062-.062.062-.125 0 0 .062-.062.062-.124.062-.062.124-.124.186-.124.125-.062.311-.062.498 0 .062.062.124.062.186.124.063.062.063.062.063.124 0 .063.062.063.062.125v.248c0 .063 0 .187-.062.25 0 .061-.063.124-.125.186-.062.124-.186.186-.373.186z"/>
            <path fill="#475059" d="M72 62.736h10.383v1.244H72z"/>
            <path fill="#48515A" d="M32.891 62.798c-.124 0-.31-.062-.373-.124-.249-.25-.31-.622-.062-.87l16.414-19.71c.25-.25.622-.312.87-.063.25.249.312.622.063.87L33.39 62.612a.706.706 0 0 1-.498.187z"/>
            <g transform="translate(29.223)">
                <circle cx="47.689" cy="99.731" r="1.244" fill="#FFD15D"/>
                <path fill="#475059" d="M45.824 96.062H6.03a5.573 5.573 0 0 1-5.596-5.596V8.394a5.573 5.573 0 0 1 5.596-5.596h39.793a5.573 5.573 0 0 1 5.596 5.596v14.3h-1.244v-14.3a4.326 4.326 0 0 0-4.352-4.353H6.03A4.326 4.326 0 0 0 1.68 8.394v82.072A4.326 4.326 0 0 0 6.03 94.82h39.793a4.326 4.326 0 0 0 4.352-4.353v-18.84h1.244v18.84c0 3.047-2.55 5.596-5.596 5.596z"/>
                <path fill="#475059" d="M48.933 84.87H2.923V10.26h46.01v12.496h-1.244V11.503H4.166v72.124h43.523V71.565h1.244zM25.927 9.016c-.683 0-1.243-.56-1.243-1.244 0-.684.56-1.244 1.243-1.244.684 0 1.244.56 1.244 1.244 0 .684-.56 1.244-1.244 1.244z"/>
                <g transform="translate(21.762 85.803)">
                    <path fill="#475059" d="M4.166 7.772a3.742 3.742 0 0 1-3.73-3.73A3.742 3.742 0 0 1 4.165.31a3.742 3.742 0 0 1 3.73 3.73 3.742 3.742 0 0 1-3.73 3.731zm0-6.218a2.494 2.494 0 0 0-2.487 2.487 2.494 2.494 0 0 0 2.487 2.487 2.494 2.494 0 0 0 2.487-2.487 2.494 2.494 0 0 0-2.487-2.487z"/>
                    <circle cx="4.166" cy="4.041" r="1.244" fill="#5FE0ED"/>
                </g>
                <circle cx="66.653" cy="10.57" r="1" fill="#FFD15D"/>
                <circle cx="54.528" cy="2.176" r="1.865" fill="#5FE0ED"/>
            </g>
            <g fill="#48515A">
                <path d="M43.337 12.746h1.244v2.487h-1.244zM43.337 18.963h1.244v2.487h-1.244z"/>
                <g>
                    <path d="M45.824 16.477h2.487v1.244h-2.487zM39.606 16.477h2.487v1.244h-2.487z"/>
                </g>
            </g>
            <path fill="#FFD15D" d="M61.306 64.788v0z"/>
            <path fill="#475059" d="M65.596 76.912h-9.202v-1.057a.656.656 0 0 0-.125-.311l-.062-.062-1.74-2.3c-.809-1.058-1.306-2.426-1.306-3.793v-6.156h1.243c.435 0 .87.125 1.244.311v-4.663c0-.56.248-1.12.746-1.492.497-.373 1.057-.498 1.679-.311a1.94 1.94 0 0 1 1.367 1.865v3.98c.373-.125.809-.187 1.182-.063.248.062.497.249.746.435.373-.31.933-.497 1.43-.435.622.062 1.181.435 1.43.995.31-.187.746-.249 1.12-.187.87.125 1.554.933 1.554 1.928v3.233c0 2.363-.436 4.663-1.306 6.902v1.18zm-8.02-1.244h6.776c0-.124.063-.248.063-.31.808-2.114 1.243-4.29 1.243-6.467v-3.233c0-.31-.249-.622-.497-.684-.187 0-.373 0-.498.124-.124.063-.186.187-.186.374v.932h-1.244v-.808-.746a.729.729 0 0 0-.56-.684.706.706 0 0 0-.497.186c-.062.063-.186.187-.186.373V66.466h-1.244V64.85c0-.311-.186-.56-.435-.622-.187-.062-.435 0-.622.124a.565.565 0 0 0-.249.498v1.678h-1.243V59.13c0-.311-.187-.622-.435-.684-.249-.063-.498 0-.56.124a.565.565 0 0 0-.249.497v9.265H55.71v-2.425c0-.311-.125-.622-.373-.87a1.228 1.228 0 0 0-.87-.374v4.912c0 1.057.372 2.176.994 3.047l1.741 2.3c.187.062.311.436.373.746z"/>
            <path fill="#475059" d="M55.026 81.264v-3.73c0-1.057.808-1.866 1.865-1.866h8.705c1.057 0 1.865.809 1.865 1.866v3.73h-1.243v-3.73c0-.373-.25-.622-.622-.622H56.89c-.373 0-.622.249-.622.622v3.73h-1.243z"/>
            <g fill="#48515A">
                <path d="M59.813 57.14a.564.564 0 0 1-.435-.187.601.601 0 0 1 0-.87l.87-.87a.601.601 0 0 1 .871 0 .601.601 0 0 1 0 .87l-.87.87a.672.672 0 0 1-.436.187zM55.399 57.14a.564.564 0 0 1-.435-.187l-.87-.87a.601.601 0 0 1 0-.87.601.601 0 0 1 .87 0l.87.87a.601.601 0 0 1 0 .87.564.564 0 0 1-.435.187zM61.927 59.378h-.994c-.373 0-.622-.248-.622-.622 0-.373.249-.621.622-.621h.994c.374 0 .622.248.622.621 0 .374-.248.622-.622.622zM54.155 59.378h-.87c-.373 0-.622-.248-.622-.622 0-.373.249-.621.622-.621h.87c.373 0 .622.248.622.621 0 .374-.31.622-.622.622zM57.575 56.145c-.373 0-.622-.249-.622-.622v-1.181c0-.373.25-.622.622-.622.373 0 .622.249.622.622v1.181c0 .373-.249.622-.622.622z"/>
            </g>
            <g fill="#48515A">
                <path d="M24 61.43H.373V46.321H24v15.11zM1.617 60.187h21.14V47.565H1.616v12.622z"/>
                <path d="M12.187 54.653a.475.475 0 0 1-.311-.125l-8.208-5.16.684-1.057 7.835 4.974 7.523-4.788.684 1.057-7.834 5.037c-.125 0-.25.062-.373.062zM16.663 54.012l.956-.797 4.498 5.398-.956.796zM2.235 58.642l4.5-5.395.955.796-4.5 5.396zM12.187 63.482h1.244v8.705h-1.244zM15.917 74.922c-.062 0-.186 0-.249-.062-.062-.062-.124-.062-.186-.124a.564.564 0 0 1-.187-.435c0-.187.063-.311.187-.436a.601.601 0 0 1 .87 0 .564.564 0 0 1 .187.436c0 .186-.062.31-.187.435-.062.062-.124.124-.186.124-.125.062-.187.062-.249.062zM17.596 63.482h1.244v3.295h-1.244zM18.218 69.513c-.063 0-.187 0-.25-.062-.061 0-.123-.062-.186-.125-.062-.062-.124-.124-.124-.186-.062-.062-.062-.124-.062-.249 0-.124 0-.186.062-.249 0-.062.062-.124.124-.186a.601.601 0 0 1 .87 0c.063.062.125.124.125.186 0 .063.062.187.062.25 0 .061 0 .186-.062.248s-.062.124-.124.186c-.062.063-.125.125-.187.125-.124.062-.186.062-.248.062zM6.777 63.482h1.244v5.098H6.777zM7.399 71.316c-.062 0-.187 0-.249-.062-.062 0-.124-.062-.186-.124a.564.564 0 0 1-.187-.436c0-.186.062-.31.187-.435a.601.601 0 0 1 .87 0 .564.564 0 0 1 .187.435c0 .187-.062.311-.187.436a.564.564 0 0 1-.435.186z"/>
            </g>
            <g fill="#48515A">
                <path d="M119.627 91.834H90.839V73.492h28.788v18.342zm-27.544-1.243h26.3V74.736h-26.3V90.59z"/>
                <path d="M105.264 83.503a.475.475 0 0 1-.31-.125l-10.011-6.404.684-1.057 9.7 6.156 9.264-5.97.684 1.058-9.638 6.155c-.186.124-.248.187-.373.187zM110.833 82.747l.955-.796 5.534 6.638-.955.796zM93.1 88.62l5.536-6.637.955.796-5.536 6.637zM105.761 93.016h1.244v8.705h-1.244zM106.383 104.456a.564.564 0 0 1-.435-.187.564.564 0 0 1-.186-.435c0-.186.062-.31.186-.435.062-.062.125-.124.187-.124.124-.063.248-.063.373-.063.062 0 .062 0 .124.063.062 0 .062 0 .124.062.063 0 .063.062.125.062.124.124.186.31.186.435 0 .062 0 .187-.062.249s-.062.124-.124.186c-.187.125-.311.187-.498.187zM111.171 93.016h1.244v3.295h-1.244zM111.793 99.047c-.062 0-.187 0-.249-.063-.062 0-.124-.062-.186-.124a.564.564 0 0 1-.187-.435c0-.062 0-.187.062-.249 0-.062.062-.124.125-.186.062-.063.124-.125.186-.125.124-.062.249-.062.373-.062.062 0 .062 0 .124.062.063 0 .063.062.125.062s.062.063.124.063c.062.062.125.124.125.186s.062.125.062.249c0 .186-.062.31-.187.435-.062.062-.124.124-.186.124-.063 0-.25.063-.311.063zM100.352 93.016h1.244v5.098h-1.244zM100.974 100.85a.564.564 0 0 1-.435-.187c-.062-.062-.124-.124-.124-.186s-.063-.125-.063-.249 0-.187.063-.249c.062-.062.062-.124.124-.186s.124-.125.186-.125c.25-.124.498-.062.684.125.063.062.125.124.125.186.062.062.062.125.062.249 0 .187-.062.31-.187.435a.564.564 0 0 1-.435.187z"/>
            </g>
            <g>
                <path fill="#F58E70" d="M23.005 104.767c-6.342 0-11.502-5.16-11.502-11.503 0-6.342 5.16-11.502 11.502-11.502 6.342 0 11.503 5.16 11.503 11.502 0 6.342-5.16 11.503-11.503 11.503zm0-21.762c-5.658 0-10.259 4.601-10.259 10.26 0 5.657 4.601 10.258 10.26 10.258 5.657 0 10.258-4.6 10.258-10.259 0-5.658-4.6-10.259-10.259-10.259z"/>
                <path fill="#4F4F4F" d="M20.332 90.218c-.25-.436-.684-.684-1.12-.684-.497 0-.87.248-1.119.684l-1.057-.622a2.513 2.513 0 0 1 2.176-1.306c.87 0 1.741.498 2.177 1.306l-1.057.622zM25.74 90.218l-1.056-.622a2.513 2.513 0 0 1 2.176-1.306c.87 0 1.741.498 2.176 1.306l-1.057.622c-.248-.436-.684-.684-1.119-.684-.435 0-.87.248-1.12.684zM23.005 100.725a6.82 6.82 0 0 1-6.84-6.839v-.622h13.68v.622a6.82 6.82 0 0 1-6.84 6.84zm-5.533-6.217c.31 2.798 2.673 4.974 5.533 4.974 2.86 0 5.223-2.176 5.534-4.974H17.472z"/>
            </g>
            <g fill="#48515A">
                <path d="M13.368 25.865h1.244v2.487h-1.244zM13.368 32.083h1.244v2.487h-1.244z"/>
                <g>
                    <path d="M15.854 29.596h2.487v1.244h-2.487zM9.637 29.596h2.487v1.244H9.637z"/>
                </g>
            </g>
            <circle cx="28.041" cy="37.927" r="1" fill="#FFD15D"/>
        </g>
        <g fill="#48515A">
            <path d="M54.907 70.694H33.89v1.244h21.451c-.187-.373-.31-.808-.435-1.244zM103.093 45.824v24.87H67.155c-.062.436-.124.809-.186 1.244h37.368V45.824h-1.244z"/>
        </g>
    </g>
</svg>
