<svg xmlns="http://www.w3.org/2000/svg" width="120" height="111" viewBox="0 0 120 111">
    <g fill="none" fill-rule="nonzero">
        <path fill="#475059" d="M96.373 77.723H32.37v-1.244h64.002a1.867 1.867 0 0 0 1.865-1.865V17.408a1.867 1.867 0 0 0-1.865-1.865H9.323a1.867 1.867 0 0 0-1.866 1.865v57.206c0 1.029.837 1.865 1.866 1.865h10.574v1.244H9.323a3.113 3.113 0 0 1-3.11-3.11V17.409a3.113 3.113 0 0 1 3.11-3.109h87.05a3.113 3.113 0 0 1 3.109 3.11v57.205a3.113 3.113 0 0 1-3.11 3.109z"/>
        <path fill="#475059" d="M111.305 96.387h-87.05a3.113 3.113 0 0 1-3.11-3.109V36.073a3.113 3.113 0 0 1 3.11-3.109h65.434v1.244H24.255a1.867 1.867 0 0 0-1.866 1.865v57.205c0 1.03.837 1.866 1.866 1.866h87.05a1.867 1.867 0 0 0 1.865-1.866V36.073a1.867 1.867 0 0 0-1.865-1.865H100.73v-1.244h10.575a3.113 3.113 0 0 1 3.109 3.11v57.204a3.113 3.113 0 0 1-3.11 3.11z"/>
        <path fill="#475059" d="M80.838 110.067H54.722l.008-1.914 1.858-11.299v-1.71h22.383v1.814l1.867 11.296v1.813zm-24.873-1.243h23.63v-.52L77.727 97.01v-.622H57.832l-.009.62-1.858 11.298v.519z"/>
        <path fill="#475059" d="M51.613 108.823h32.333v1.244H51.613z"/>
        <path fill="#DEDEDD" d="M57.345 107.58h20.868l-1.651-9.949h-17.58zM23.633 85.817v7.461c0 .343.279.622.622.622h87.05a.623.623 0 0 0 .622-.622v-7.461H23.633zM19.897 67.152H8.701v7.462c0 .342.279.621.622.621h10.574v-8.083z"/>
        <path fill="#475059" d="M86.243 37.747l-.88-.88 3.292-3.29-3.292-3.292.88-.879 4.17 4.17zM34.38 81.298l-4.17-4.17 4.17-4.17.88.879-3.291 3.29 3.29 3.292z"/>
        <g>
            <g fill="#48515A">
                <path d="M114.41 8.084h1.243v2.487h-1.244zM114.41 14.301h1.243v2.487h-1.244zM116.896 11.814h2.487v1.244h-2.487zM110.68 11.814h2.486v1.244h-2.487z"/>
            </g>
            <g fill="#48515A">
                <path d="M3.731 80.212h1.244v2.487H3.731zM3.731 86.429h1.244v2.487H3.731zM6.218 83.942h2.487v1.244H6.218zM0 83.942h2.487v1.244H0z"/>
            </g>
            <circle cx="75.586" cy="4.625" r="1.516" fill="#5FE0ED"/>
            <g fill="#FFD15D" transform="translate(47.256 96.999)">
                <circle cx="2.215" cy="2.138" r="1.516"/>
                <path d="M2.215 3.965A1.828 1.828 0 0 1 .39 2.138c0-1.007.819-1.826 1.826-1.826 1.007 0 1.827.819 1.827 1.826 0 1.007-.82 1.827-1.827 1.827zm0-3.032a1.206 1.206 0 0 0 0 2.41 1.206 1.206 0 0 0 0-2.41z"/>
            </g>
            <circle cx="39.173" cy="9.949" r="1" fill="#5FE0ED"/>
            <circle cx="18.654" cy="9.327" r="1.244" fill="#DEDEDD"/>
            <circle cx="64.666" cy="9.327" r="1.244" fill="#DEDEDD"/>
            <circle cx="17.41" cy="100.108" r="1.244" fill="#DEDEDD"/>
            <circle cx="1.244" cy="27.981" r="1.244" fill="#DEDEDD"/>
            <circle cx="39.794" cy="102.596" r="1.244" fill="#DEDEDD"/>
            <circle cx="29.224" cy="108.192" r="1" fill="#DEDEDD"/>
            <circle cx="4.971" cy="65.288" r="1" fill="#DEDEDD"/>
            <path fill="#48515A" d="M107.57 27.36a2.49 2.49 0 0 1-2.488-2.488 2.49 2.49 0 0 1 2.487-2.487 2.49 2.49 0 0 1 2.487 2.487 2.49 2.49 0 0 1-2.487 2.487zm0-3.731c-.686 0-1.244.558-1.244 1.243 0 .686.558 1.244 1.243 1.244.686 0 1.244-.558 1.244-1.244 0-.685-.558-1.243-1.244-1.243z"/>
            <g fill="#48515A">
                <path d="M100.108 10.572h-1.244V6.218h-.622V4.975h1.866z"/>
                <path d="M98.242 9.95h2.487v1.244h-2.487z"/>
            </g>
            <g fill="#48515A">
                <path d="M35.442 108.814h-1.244v-4.353h-.621v-1.244h1.865z"/>
                <path d="M33.577 108.193h2.487v1.244h-2.487z"/>
            </g>
            <g fill="#48515A">
                <path d="M31.711 5.597h-1.243V1.244h-.622V0h1.865z"/>
                <path d="M29.846 4.975h2.487v1.244h-2.487z"/>
            </g>
            <path fill="#48515A" d="M7.461 9.95a1.867 1.867 0 0 1-1.865-1.866V5.596c0-1.029.837-1.865 1.865-1.865 1.03 0 1.866.836 1.866 1.865v2.488A1.867 1.867 0 0 1 7.46 9.949zm0-4.976a.622.622 0 0 0-.621.622v2.488a.622.622 0 0 0 1.243 0V5.596a.622.622 0 0 0-.622-.622zM7.461 101.974a1.867 1.867 0 0 1-1.865-1.865v-2.488c0-1.028.837-1.865 1.865-1.865 1.03 0 1.866.837 1.866 1.865v2.488a1.867 1.867 0 0 1-1.866 1.865zm0-4.975a.622.622 0 0 0-.621.622v2.488a.622.622 0 0 0 1.243 0v-2.488A.622.622 0 0 0 7.461 97zM92.025 105.705a1.867 1.867 0 0 1-1.866-1.866v-2.488c0-1.028.837-1.865 1.866-1.865 1.028 0 1.865.837 1.865 1.865v2.488a1.867 1.867 0 0 1-1.865 1.866zm0-4.975a.622.622 0 0 0-.622.621v2.488a.622.622 0 0 0 1.243 0v-2.488a.622.622 0 0 0-.621-.621z"/>
        </g>
    </g>
</svg>
