<svg xmlns="http://www.w3.org/2000/svg" width="120" height="120" viewBox="0 0 120 120">
    <g fill="none" fill-rule="evenodd">
        <g fill-rule="nonzero">
            <path fill="#5FE0ED" d="M25.577 3.677c6.64.122 11.892 5.766 11.892 12.489v16.373h-8.006l.021-2.136c.734-.758 1.535-1.707 2.209-2.808 1.66-2.715 2.313-6.249 2.313-9.686v-.268h-7.428l.079-3.582a13.008 13.008 0 0 1-8.953 3.583h-1.323v.267c0 3.452.8 6.955 2.48 9.666 1.109 1.79 2.644 3.203 3.6 4.026l-1.365.938h-7.863v-16.57c0-6.866 5.532-12.417 12.344-12.292z"/>
            <path fill="#EAEAE9" d="M34.84 42.734H30.75l1.298-1.911h.669zM16.192 42.734h4.091l-1.298-1.911h-.669zM29.49 36.68l2.518 4.142-5.98 8.602h-.636z"/>
            <path fill="#EAEAE9" d="M21.115 33.614l-2.642 2.748-2.523 6.051h.63l1.573-1.59.629-.001 2.519-4.142z"/>
            <path fill="#EAEAE9" d="M21.102 35.303v-4.589l1.704 1.066c.46.288.99.44 1.53.44h1.9c.679 0 1.336-.24 1.858-.678l1.391-1.166v1.805l-8.383 3.122z"/>
            <path fill="#48515A" d="M26.382 33.02h-1.95c-.947 0-1.74-.268-2.358-.797-.623-.533-2.521-2.158-3.828-4.267-1.67-2.695-2.588-6.263-2.588-10.047v-.267h1.445v.267c0 3.518.843 6.816 2.372 9.286 1.189 1.918 2.958 3.432 3.54 3.93.348.298.825.45 1.416.45h1.95c.517 0 .95-.157 1.322-.48.97-.838 2.34-2.19 3.373-3.878 1.824-2.982 2.207-6.708 2.207-9.308v-.267h1.446v.267c0 2.786-.42 6.794-2.42 10.063-1.13 1.846-2.614 3.312-3.66 4.216a3.416 3.416 0 0 1-2.267.832z"/>
            <path fill="#48515A" d="M28.767 30.388h1.446v3.385h-1.446zM20.583 30.627h1.446v3.345h-1.446zM8.82 43.327l-1.332-.56a9.143 9.143 0 0 1 5.057-4.951l5.674-2.13.509 1.353-5.665 2.126a7.684 7.684 0 0 0-4.243 4.162zM41.59 42.583a7.651 7.651 0 0 0-3.892-3.422l-5.63-2.122.51-1.353 5.638 2.126a9.106 9.106 0 0 1 4.639 4.072l-1.266.7z"/>
            <path fill="#48515A" d="M26.405 50.147h-1.998l4.36-13.58v-4.833l4.168 4.22 2.99 7.182h-2.016l-1.544-1.562-5.96 8.573zm3.807-14.892l-.034 1.646-3.154 9.823L31.63 40.1h1.31l.266.27-1.497-3.599-1.497-1.515z"/>
            <path fill="#48515A" d="M26.384 50.147h-2l-5.96-8.572-1.543 1.561h-2.016l2.996-7.181 4.162-4.224v4.836l4.36 13.58zM17.85 40.099h1.309l4.606 6.626-3.188-10.045v-1.422l-1.491 1.512-1.5 3.596.264-.267z"/>
        </g>
        <path fill="#F58E70" fill-rule="nonzero" d="M95.223 39.443c.08.318.19.896.29 1.62H93.18l.288-1.62c-.343 0-.53-.308-.53-.65v-1.554l1.472-1.866 1.42 1.866v1.553c0 .343-.263.652-.606.651z"/>
        <path d="M89.683 30.7v.03h-.051a.015.015 0 0 0 .015-.015.015.015 0 0 0-.015-.015h.05z"/>
        <path fill="#DFE0E0" fill-rule="nonzero" d="M99.443 30.716v1.358l-4.88 2.64-4.929-2.563-.311-2.484v-2.095c0-.175-.18-.364-.345-.554.056.049.2.098.246.147.653.703 1.689 1.605 2.36 2.177.53.454 1.246.877 1.944.877h2.017c.698 0 1.369-.423 1.9-.877.64-.546 1.572-1.325 2.223-1.998.02-.02.043-.082.064-.102-.196.208-.24.398-.479.608.005.003.19-.015.19-.01v2.876z"/>
        <g fill="#48515A" fill-rule="nonzero">
            <path d="M99.443 32.58a.723.723 0 0 1-.723-.724V28.05a.723.723 0 0 1 1.446 0v3.806c0 .4-.324.723-.723.723z"/>
            <path d="M90.046 32.388a.723.723 0 0 1-.723-.723V27.95c-.54-.398-.905-.845-1.11-1.36l-1.9-3.547-2.295-1.122-.61-3.028a1.592 1.592 0 0 1 .446-1.167 1.71 1.71 0 0 1 .874-.476 11.154 11.154 0 0 0-.213-.806c-.13-.443-.253-.862-.253-1.366v-.35c0-1.459.61-2.772 1.15-3.93l.22-.448a9.992 9.992 0 0 1 2.763-3.376 9.972 9.972 0 0 1 6.082-2.115h.066c2.585 0 5.047 1.033 6.941 2.914 1.919 1.906 3.02 4.514 3.02 7.156v.149c0 .491-.079.9-.169 1.372-.046.24-.095.5-.141.804.784.175 1.333.82 1.333 1.635l-.03.205-.822 2.784-1.946 1.145-1.709 3.652c-.307.83-1.336 1.738-2.647 2.832l-.459.385c-.816.697-1.613 1.05-2.369 1.05H93.66a.723.723 0 0 1 0-1.446h1.885c.397 0 .891-.243 1.43-.704l.472-.396c.804-.67 2.02-1.684 2.241-2.28l1.922-4.112 1.84-1.083.622-2.103c-.048-.152-.246-.165-.313-.165h-1.174l.078-.793c.07-.73.171-1.258.252-1.682.083-.433.143-.746.143-1.1v-.149c0-2.26-.945-4.494-2.593-6.13-1.634-1.624-3.782-2.514-5.978-2.494a8.52 8.52 0 0 0-5.196 1.804 8.54 8.54 0 0 0-2.363 2.882l-.206.416c-.498 1.073-1.014 2.182-1.014 3.252v.419c0 .296.082.574.195.959.132.45.297 1.011.386 1.812l.09.804h-1.238c-.108 0-.201.03-.25.08a.123.123 0 0 0-.036.075l.437 2.127 2.075 1.015 2.18 4.082c.079.21.256.533.88.92l.341.211v4.502c0 .399-.323.723-.722.723z"/>
        </g>
        <path fill="#48515A" fill-rule="nonzero" d="M114.665 39.125l-13.088-4.598-1.603-2.862h-.53v-1.446h1.377l1.75 3.124 12.574 4.418z"/>
        <path fill="#48515A" fill-rule="nonzero" d="M94.307 35.582l-4.947-2.77a.723.723 0 1 1 .706-1.262l4.241 2.375 4.422-2.476a.723.723 0 0 1 .706 1.261l-5.128 2.872z"/>
        <path fill="#48515A" fill-rule="nonzero" d="M73.82 38.592l-.42-1.383 12.699-3.862 1.982-3.128h1.626v1.446h-.83l-1.844 2.91zM97.104 39.204a.721.721 0 0 1-.538-.24l-2.259-2.509-2.259 2.51a.722.722 0 1 1-1.074-.967l3.333-3.704 3.333 3.704a.723.723 0 0 1-.536 1.206z"/>
        <path fill="#48515A" fill-rule="nonzero" d="M88.63 49.507c-11.324-2.711-19.232-12.749-19.232-24.409C69.398 11.26 80.657 0 94.496 0c13.84 0 25.099 11.26 25.099 25.098 0 11.313-7.617 21.275-18.523 24.228l-.378-1.395c10.277-2.783 17.455-12.172 17.455-22.833 0-13.042-10.61-23.652-23.653-23.652-13.042 0-23.653 10.61-23.653 23.652 0 10.989 7.453 20.448 18.124 23.003l-.337 1.406zM30.482 49.618l-.309-1.413c10.765-2.353 18.578-12.07 18.578-23.107 0-13.042-10.61-23.652-23.652-23.652-13.042 0-23.653 10.61-23.653 23.652 0 11.092 7.538 20.57 18.33 23.052l-.324 1.409C8 46.926 0 36.867 0 25.099 0 11.258 11.26 0 25.099 0s25.098 11.26 25.098 25.098c0 11.71-8.291 22.023-19.715 24.52zM71.27 90.004l-1.42-.273c1.912-9.949 9.878-17.934 19.823-19.87l.276 1.419c-9.37 1.825-16.878 9.35-18.68 18.724zM94.496 119.594c-11.386 0-21.366-7.68-24.269-18.675l1.398-.369c2.736 10.362 12.14 17.599 22.871 17.599 13.042 0 23.653-10.611 23.653-23.653a23.608 23.608 0 0 0-17.905-22.95l.35-1.402a25.052 25.052 0 0 1 19 24.352c0 13.84-11.258 25.098-25.098 25.098z"/>
        <g fill-rule="nonzero">
            <path fill="#5FE0ED" d="M95.016 72.393c6.64.122 11.892 5.766 11.892 12.489v16.373h-8.006l.022-2.136c.733-.758 1.534-1.707 2.208-2.809 1.66-2.714 2.314-6.248 2.314-9.686v-.267h-7.429l.08-3.582a13.008 13.008 0 0 1-8.953 3.582H85.82v.268c0 3.451.8 6.955 2.48 9.666 1.109 1.79 2.644 3.203 3.6 4.026l-1.365.938h-7.863v-16.57c0-6.866 5.533-12.417 12.344-12.292z"/>
            <path fill="#EAEAE9" d="M104.28 111.45h-4.092l1.298-1.911h.669zM85.631 111.45h4.092l-1.299-1.911h-.668zM98.929 105.396l2.518 4.142-5.98 8.602h-.636z"/>
            <path fill="#EAEAE9" d="M90.554 102.33l-2.641 2.748-2.524 6.051h.63l1.573-1.591h.63l2.518-4.142z"/>
            <path fill="#EAEAE9" d="M90.541 104.019V99.43l1.704 1.066c.46.288.99.44 1.531.44h1.9c.678 0 1.335-.24 1.858-.678l1.39-1.166v1.805l-8.383 3.122z"/>
            <path fill="#48515A" d="M95.82 101.736h-1.95c-.946 0-1.739-.268-2.356-.797-.624-.533-2.522-2.158-3.829-4.267-1.669-2.695-2.588-6.263-2.588-10.047v-.268h1.446v.268c0 3.518.842 6.816 2.371 9.286 1.19 1.918 2.958 3.432 3.54 3.93.348.298.825.45 1.416.45h1.95c.517 0 .949-.157 1.322-.48.969-.837 2.34-2.19 3.373-3.878 1.825-2.982 2.208-6.708 2.208-9.308v-.268h1.445v.268c0 2.786-.42 6.794-2.42 10.063-1.13 1.847-2.614 3.312-3.66 4.216a3.413 3.413 0 0 1-2.267.832z"/>
            <path fill="#48515A" d="M98.206 99.104h1.446v3.385h-1.446zM90.023 99.343h1.446v3.345h-1.446zM78.26 112.043l-1.333-.56a9.144 9.144 0 0 1 5.057-4.952l5.675-2.13.508 1.354-5.665 2.126a7.684 7.684 0 0 0-4.243 4.162zM111.028 111.3a7.648 7.648 0 0 0-3.891-3.423l-5.63-2.123.51-1.352 5.639 2.126a9.104 9.104 0 0 1 4.638 4.072l-1.266.7z"/>
            <path fill="#48515A" d="M95.844 118.863h-1.998l4.36-13.58v-4.833l4.169 4.22 2.988 7.182h-2.015l-1.543-1.562-5.96 8.573zm3.807-14.892l-.034 1.646-3.154 9.823 4.607-6.625h1.309l.267.27-1.498-3.6-1.497-1.514z"/>
            <path fill="#48515A" d="M95.823 118.863h-1.999l-5.96-8.573-1.544 1.562h-2.016l2.996-7.182 4.163-4.223v4.835l4.36 13.58zm-8.533-10.048h1.309l4.607 6.626-3.19-10.045v-1.422l-1.49 1.512-1.5 3.595.264-.266z"/>
        </g>
        <path fill="#F58E70" fill-rule="nonzero" d="M22.735 119.135s.828-8.536 1.243-10.193v-.065l.091-.033c-.343 0-.53-.311-.53-.654v-1.554l1.472-1.865 1.42 1.865v1.554a.608.608 0 0 1-.605.62h.008l.004.132c.414 1.657 1.246 10.193 1.246 10.193h-4.35z"/>
        <path d="M20.285 100.097v.03h-.05a.015.015 0 0 0 .014-.015.015.015 0 0 0-.015-.015h.051z"/>
        <path fill="#DFE0E0" fill-rule="nonzero" d="M30.046 100.114v1.357l-4.88 2.641-4.93-2.563-.31-2.485V96.97c0-.176-.181-.364-.345-.554.056.049.2.098.245.147.654.702 1.69 1.604 2.36 2.177.53.453 1.247.876 1.945.876h2.017c.697 0 1.368-.423 1.899-.876.64-.547 1.572-1.326 2.224-1.999.02-.02.042-.081.063-.102-.195.209-.24.399-.478.609.005.002.19-.016.19-.01v2.876z"/>
        <g fill="#48515A" fill-rule="nonzero">
            <path d="M30.046 102.508a.723.723 0 0 1-.723-.723v-4.337a.723.723 0 0 1 1.445 0v4.337c0 .4-.323.723-.722.723zM20.648 101.785a.723.723 0 0 1-.723-.723v-3.715c-.54-.397-.905-.845-1.11-1.36l-1.9-3.546-2.294-1.123-.61-3.028a1.592 1.592 0 0 1 .445-1.167 1.71 1.71 0 0 1 .875-.476 11.154 11.154 0 0 0-.213-.805c-.13-.444-.253-.862-.253-1.367v-.348c0-1.265.328-2.528 1.033-4.046a.722.722 0 1 1 1.311.61c-.613 1.32-.898 2.389-.898 3.365v.42c0 .296.081.574.194.958.132.451.297 1.012.387 1.813l.09.803h-1.239c-.108 0-.2.03-.25.081a.123.123 0 0 0-.036.074l.437 2.127 2.075 1.015 2.18 4.082c.08.21.256.534.88.92l.342.212v4.501c0 .4-.324.723-.723.723z"/>
            <path d="M26.148 100.34h-1.886a.723.723 0 0 1 0-1.446h1.886c.396 0 .89-.244 1.43-.704l.471-.396c.805-.671 2.02-1.684 2.241-2.28l1.922-4.112 1.84-1.083.622-2.103c-.047-.153-.246-.166-.313-.166h-1.173l.077-.793c.071-.73.172-1.258.252-1.681.083-.433.143-.746.143-1.1v-.15c0-2.774-1.382-5.414-3.697-7.06a.723.723 0 0 1 .838-1.179c2.696 1.918 4.305 4.998 4.305 8.24v.148c0 .492-.078.9-.168 1.372-.046.24-.096.5-.142.804.784.175 1.334.82 1.334 1.635l-.03.205-.823 2.785-1.945 1.144-1.71 3.653c-.306.83-1.335 1.738-2.646 2.831l-.46.386c-.815.696-1.612 1.05-2.368 1.05z"/>
        </g>
        <path fill="#48515A" fill-rule="nonzero" d="M45.268 108.522l-13.089-4.598-1.603-2.862h-.53v-1.446h1.378l1.75 3.125 12.573 4.417z"/>
        <path fill="#48515A" fill-rule="nonzero" d="M24.91 104.98l-4.948-2.771a.723.723 0 1 1 .707-1.261l4.24 2.374 4.422-2.476a.723.723 0 0 1 .707 1.262l-5.129 2.871z"/>
        <path fill="#48515A" fill-rule="nonzero" d="M4.423 107.99l-.421-1.383 12.7-3.862 1.98-3.129h1.243v1.446h-.446l-1.844 2.91zM27.706 108.602a.721.721 0 0 1-.538-.24l-2.259-2.51-2.258 2.51a.722.722 0 1 1-1.075-.967l3.333-3.703 3.334 3.703a.723.723 0 0 1-.537 1.207zM48.33 90.029a23.637 23.637 0 0 0-17.849-18.57l.328-1.41A25.086 25.086 0 0 1 49.75 89.759l-1.42.27z"/>
        <path fill="#48515A" fill-rule="nonzero" d="M25.099 119.594C11.259 119.594 0 108.335 0 94.496 0 82.736 7.991 72.68 19.434 70.04l.324 1.409C8.976 73.936 1.446 83.414 1.446 94.496c0 13.042 10.61 23.653 23.653 23.653 10.786 0 20.203-7.284 22.9-17.713l1.4.362c-2.862 11.067-12.855 18.796-24.3 18.796z"/>
        <g fill="#48515A" fill-rule="nonzero">
            <path d="M56.07 27.327h23.854v1.446H56.07z"/>
            <path d="M77.658 31.392l-1.022-1.022 2.38-2.38-2.38-2.38 1.022-1.023 3.403 3.403zM53.176 28.05c0-.399.325-.724.722-.724a.72.72 0 0 1 .723.723.72.72 0 0 1-.723.723.725.725 0 0 1-.722-.723zm-2.892 0c0-.399.325-.724.723-.724a.72.72 0 0 1 .723.723.72.72 0 0 1-.723.723.725.725 0 0 1-.723-.723zm-2.892 0c0-.399.326-.724.723-.724a.72.72 0 0 1 .723.723.72.72 0 0 1-.723.723.725.725 0 0 1-.723-.723zm-2.891 0c0-.399.325-.724.723-.724a.72.72 0 0 1 .723.723.72.72 0 0 1-.723.723.725.725 0 0 1-.723-.723zm-2.892 0c0-.399.326-.724.723-.724a.72.72 0 0 1 .723.723.72.72 0 0 1-.723.723.725.725 0 0 1-.723-.723zm-2.891 0c0-.399.325-.724.723-.724a.72.72 0 0 1 .723.723.72.72 0 0 1-.723.723.725.725 0 0 1-.723-.723z"/>
        </g>
        <g fill="#48515A" fill-rule="nonzero">
            <path d="M39.443 21.544h23.855v1.446H39.443z"/>
            <path d="M41.937 25.61l-3.403-3.403 3.403-3.403 1.022 1.022-2.38 2.38 2.38 2.381zM79.2 22.266c0-.398.325-.723.723-.723a.72.72 0 0 1 .722.723.72.72 0 0 1-.722.723.725.725 0 0 1-.723-.723zm-2.892 0c0-.398.326-.723.723-.723a.72.72 0 0 1 .723.723.72.72 0 0 1-.723.723.725.725 0 0 1-.723-.723zm-2.891 0c0-.398.325-.723.722-.723a.72.72 0 0 1 .723.723.72.72 0 0 1-.723.723.725.725 0 0 1-.722-.723zm-2.892 0c0-.398.325-.723.723-.723.397 0 .723.325.723.723a.725.725 0 0 1-.723.723.725.725 0 0 1-.723-.723zm-2.892 0c0-.398.326-.723.723-.723.398 0 .723.325.723.723a.725.725 0 0 1-.723.723.725.725 0 0 1-.723-.723zm-2.891 0c0-.398.325-.723.723-.723a.72.72 0 0 1 .723.723.72.72 0 0 1-.723.723.725.725 0 0 1-.723-.723z"/>
        </g>
        <g fill="#48515A" fill-rule="nonzero">
            <path d="M56.07 97.448h23.854v1.446H56.07z"/>
            <path d="M77.658 101.555l-1.022-1.022 2.38-2.38-2.38-2.38 1.022-1.023 3.403 3.403zM53.176 98.17c0-.398.325-.723.722-.723a.72.72 0 0 1 .723.723.72.72 0 0 1-.723.722.725.725 0 0 1-.722-.722zm-2.892 0c0-.398.325-.723.723-.723a.72.72 0 0 1 .723.723.72.72 0 0 1-.723.722.725.725 0 0 1-.723-.722zm-2.892 0c0-.398.326-.723.723-.723a.72.72 0 0 1 .723.723.72.72 0 0 1-.723.722.725.725 0 0 1-.723-.722zm-2.891 0c0-.398.325-.723.723-.723a.72.72 0 0 1 .723.723.72.72 0 0 1-.723.722.725.725 0 0 1-.723-.722zm-2.892 0c0-.398.326-.723.723-.723a.72.72 0 0 1 .723.723.72.72 0 0 1-.723.722.725.725 0 0 1-.723-.722zm-2.891 0c0-.398.325-.723.723-.723a.72.72 0 0 1 .723.723.72.72 0 0 1-.723.722.725.725 0 0 1-.723-.722z"/>
        </g>
        <g fill="#48515A" fill-rule="nonzero">
            <path d="M39.443 91.665h23.855v1.446H39.443z"/>
            <path d="M41.937 95.772l-3.403-3.402 3.403-3.403 1.022 1.022-2.38 2.38 2.38 2.381zM79.2 92.386c0-.397.325-.722.723-.722a.72.72 0 0 1 .722.722.72.72 0 0 1-.722.723.725.725 0 0 1-.723-.723zm-2.892 0c0-.397.326-.722.723-.722a.72.72 0 0 1 .723.722.72.72 0 0 1-.723.723.725.725 0 0 1-.723-.723zm-2.891 0c0-.397.325-.722.722-.722a.72.72 0 0 1 .723.722.72.72 0 0 1-.723.723.725.725 0 0 1-.722-.723zm-2.892 0c0-.397.325-.722.723-.722.397 0 .723.325.723.722a.725.725 0 0 1-.723.723.725.725 0 0 1-.723-.723zm-2.892 0c0-.397.326-.722.723-.722.398 0 .723.325.723.722a.725.725 0 0 1-.723.723.725.725 0 0 1-.723-.723zm-2.891 0c0-.397.325-.722.723-.722a.72.72 0 0 1 .723.722.72.72 0 0 1-.723.723.725.725 0 0 1-.723-.723z"/>
        </g>
        <path fill="#48515A" fill-rule="nonzero" d="M27.154 51.911H28.6V64.92h-1.446z"/>
        <path fill="#48515A" fill-rule="nonzero" d="M30.29 55.638l-2.381-2.38-2.38 2.38-1.023-1.022 3.403-3.403 3.402 3.403zM27.151 75.76c0-.398.326-.723.723-.723a.72.72 0 0 1 .723.723.716.716 0 0 1-.723.723.72.72 0 0 1-.723-.723zm0-2.892c0-.397.326-.723.723-.723a.72.72 0 0 1 .723.723.716.716 0 0 1-.723.723.72.72 0 0 1-.723-.723zm0-2.891c0-.398.326-.723.723-.723a.72.72 0 0 1 .723.723.716.716 0 0 1-.723.723.72.72 0 0 1-.723-.723zm0-2.892c0-.398.326-.723.723-.723a.72.72 0 0 1 .723.723.722.722 0 1 1-1.446 0z"/>
        <g fill="#48515A" fill-rule="nonzero">
            <path d="M21.371 62.751h1.446V77.93h-1.446z"/>
            <path d="M21.824 79.273l-3.402-3.403 1.022-1.022 2.38 2.38 2.38-2.38 1.023 1.022zM21.368 60.58c0-.399.326-.724.723-.724a.72.72 0 0 1 .723.723.722.722 0 1 1-1.446 0zm0-2.885a.722.722 0 1 1 1.446 0 .714.714 0 0 1-.723.716.719.719 0 0 1-.723-.716zm0-2.892a.72.72 0 0 1 .723-.723c.405 0 .723.318.723.723a.714.714 0 0 1-.723.716.719.719 0 0 1-.723-.716z"/>
        </g>
        <path fill="#48515A" fill-rule="nonzero" d="M97.274 43.001h1.446V60.58h-1.446z"/>
        <path fill="#48515A" fill-rule="nonzero" d="M100.362 46.235l-2.38-2.38-2.381 2.38-1.023-1.023 3.403-3.402 3.403 3.402zM97.272 77.206c0-.398.325-.723.723-.723a.72.72 0 0 1 .723.723.72.72 0 0 1-.723.723.725.725 0 0 1-.723-.723zm0-2.892c0-.398.325-.723.723-.723a.72.72 0 0 1 .723.723.72.72 0 0 1-.723.723.725.725 0 0 1-.723-.723zm0-2.891c0-.398.325-.723.723-.723a.72.72 0 0 1 .723.723.72.72 0 0 1-.723.722.725.725 0 0 1-.723-.722zm0-2.892c0-.398.325-.723.723-.723a.72.72 0 0 1 .723.723.72.72 0 0 1-.723.723.725.725 0 0 1-.723-.723zm0-2.892c0-.397.325-.722.723-.722a.72.72 0 0 1 .723.722.72.72 0 0 1-.723.723.725.725 0 0 1-.723-.723zm0-2.891c0-.398.325-.723.723-.723a.72.72 0 0 1 .723.723.72.72 0 0 1-.723.723.725.725 0 0 1-.723-.723zM91.491 59.135h1.446v18.072h-1.446z"/>
        <path fill="#48515A" fill-rule="nonzero" d="M91.987 78.55l-3.403-3.403 1.022-1.022 2.38 2.38 2.381-2.38 1.023 1.022zM91.489 56.965c0-.398.325-.723.723-.723a.72.72 0 0 1 .723.723.72.72 0 0 1-.723.723.725.725 0 0 1-.723-.723zm0-2.892c0-.398.325-.723.723-.723a.72.72 0 0 1 .723.723.72.72 0 0 1-.723.723.725.725 0 0 1-.723-.723zm0-2.891c0-.398.325-.723.723-.723a.72.72 0 0 1 .723.723.72.72 0 0 1-.723.723.725.725 0 0 1-.723-.723zm0-2.892c0-.398.325-.723.723-.723a.72.72 0 0 1 .723.723.72.72 0 0 1-.723.723.725.725 0 0 1-.723-.723zm0-2.891c0-.398.325-.723.723-.723a.72.72 0 0 1 .723.723.72.72 0 0 1-.723.722.725.725 0 0 1-.723-.722zm0-2.892c0-.398.325-.723.723-.723a.72.72 0 0 1 .723.723.72.72 0 0 1-.723.723.725.725 0 0 1-.723-.723z"/>
        <g fill="#48515A" fill-rule="nonzero">
            <path d="M53.962 60.62L70.831 43.75l1.022 1.023-16.868 16.868z"/>
            <path d="M71.973 48.291h-1.446v-3.614h-3.614V43.23h5.06zM44.248 71.35a.72.72 0 0 1 0-1.02.729.729 0 0 1 1.026 0 .72.72 0 0 1 0 1.02.716.716 0 0 1-1.026 0zm2.046-2.038a.728.728 0 0 1 0-1.027.728.728 0 0 1 1.026 0 .728.728 0 0 1 0 1.027.74.74 0 0 1-.513.21.741.741 0 0 1-.513-.21zm2.045-2.046a.728.728 0 0 1 0-1.026.72.72 0 0 1 1.02 0 .729.729 0 0 1 0 1.026.725.725 0 0 1-1.02 0zm2.046-2.046a.728.728 0 0 1 0-1.026.733.733 0 0 1 1.02 0 .728.728 0 0 1 0 1.026.723.723 0 0 1-1.02 0zm2.046-2.046a.72.72 0 1 1 1.02 0 .697.697 0 0 1-.514.21.693.693 0 0 1-.506-.21zM46.295 76.466l16.87-16.87 1.022 1.023-16.87 16.869z"/>
            <path d="M51.01 77.93h-5.06v-5.06h1.445v3.614h3.614zM64.698 59.083a.72.72 0 1 1 1.02 0 .705.705 0 0 1-1.02 0zm2.046-2.039a.716.716 0 0 1 0-1.026.72.72 0 0 1 1.02 0 .729.729 0 0 1 0 1.026.724.724 0 0 1-1.02 0zm2.039-2.046a.729.729 0 0 1 0-1.026.728.728 0 0 1 1.026 0 .728.728 0 0 1 0 1.026.74.74 0 0 1-.513.21.754.754 0 0 1-.513-.21zm2.046-2.045a.728.728 0 0 1 0-1.027.729.729 0 0 1 1.026 0 .728.728 0 0 1 0 1.027.738.738 0 0 1-.513.21.74.74 0 0 1-.513-.21zm2.045-2.046a.729.729 0 0 1 0-1.027.742.742 0 0 1 1.027 0 .722.722 0 1 1-.513 1.236.711.711 0 0 1-.514-.209z"/>
        </g>
        <path fill="#48515A" fill-rule="nonzero" d="M9.805 50.46h1.446v2.892H9.805zM9.805 57.689h1.446v2.892H9.805zM5.467 54.797h2.892v1.446H5.467zM12.696 54.797h2.892v1.446h-2.892zM6.943 70.64a2.171 2.171 0 0 1-2.169-2.168c0-1.196.973-2.169 2.169-2.169 1.196 0 2.168.973 2.168 2.169a2.171 2.171 0 0 1-2.168 2.168zm0-2.891a.724.724 0 0 0 0 1.446.724.724 0 0 0 0-1.446zM113.93 57.628a2.171 2.171 0 0 1-2.168-2.168c0-1.196.973-2.169 2.169-2.169 1.195 0 2.168.973 2.168 2.169a2.171 2.171 0 0 1-2.168 2.168zm0-2.891a.724.724 0 0 0 0 1.446.724.724 0 0 0 0-1.446z"/>
    </g>
</svg>
