<svg xmlns="http://www.w3.org/2000/svg" width="120" height="120" viewBox="0 0 120 120">
    <g fill="none" fill-rule="nonzero">
        <g transform="translate(8.705)">
            <g transform="translate(67.151 12.435)">
                <circle cx="35.998" cy="37.63" r="1.244" fill="#5FE0ED"/>
                <path fill="#DEDEDD" d="M12.889 29.528L8.042 17.791l-6.863-2.94 11.606 28.397.104-6.229z"/>
                <path fill="#48515A" d="M14.128 34.158L.022 0l32.292 13.84-9.114 5.467 8.63 8.63-3.886 3.887-8.452-8.452-5.364 10.786zM2.336 2.345l11.897 28.81 4.915-9.885 8.796 8.795 2.128-2.128-8.877-8.877 8.394-5.036L2.336 2.344z"/>
                <circle cx="22.319" cy="43.847" r="1.244" fill="#FFD15D"/>
            </g>
            <path fill="#475059" d="M32.293 13.85H16.75v-1.244h14.3V.622h1.244zM73.954 74.157H23.562v-1.243H72.71V26.148h1.244z"/>
            <path fill="#475059" d="M17.37 70.813h-1.243V12.939L31.444 0h42.51v15.733H72.71V1.243H31.9L17.37 13.518z"/>
            <path fill="#FFD15D" d="M21.848 11.362h7.958V4.64z"/>
            <g fill="#475059">
                <path d="M29.987 79.93h38.136v1.244H29.987zM79.558 42.625h1.244v27.152h-1.244zM80.802 18.687h-1.244V8.26h-4.37V7.017h5.614z"/>
            </g>
            <g fill="#475059">
                <path d="M28.076 28.373h-1.243v-6.84h-1.244V20.29h2.487z"/>
                <path d="M25.59 27.752h3.73v1.244h-3.73zM34.295 28.995a3.113 3.113 0 0 1-3.11-3.109V23.4a3.113 3.113 0 0 1 3.11-3.109 3.113 3.113 0 0 1 3.108 3.109v2.487a3.113 3.113 0 0 1-3.108 3.109zm0-7.461a1.867 1.867 0 0 0-1.866 1.865v2.487c0 1.029.837 1.865 1.866 1.865a1.867 1.867 0 0 0 1.865-1.865V23.4a1.867 1.867 0 0 0-1.865-1.865z"/>
                <g>
                    <path d="M41.755 28.373h-1.243v-6.84h-1.244V20.29h2.487z"/>
                    <path d="M39.269 27.752h3.73v1.244h-3.73z"/>
                </g>
                <g>
                    <path d="M47.975 28.995a3.113 3.113 0 0 1-3.109-3.109V23.4a3.113 3.113 0 0 1 3.11-3.109 3.113 3.113 0 0 1 3.108 3.109v2.487a3.113 3.113 0 0 1-3.109 3.109zm0-7.461a1.867 1.867 0 0 0-1.865 1.865v2.487c0 1.029.837 1.865 1.865 1.865a1.867 1.867 0 0 0 1.866-1.865V23.4a1.867 1.867 0 0 0-1.866-1.865zM55.435 28.373h-1.243v-6.84h-1.243V20.29h2.486z"/>
                    <path d="M52.949 27.752h3.729v1.244h-3.73zM61.654 28.995a3.113 3.113 0 0 1-3.109-3.109V23.4a3.113 3.113 0 0 1 3.11-3.109 3.113 3.113 0 0 1 3.108 3.109v2.487a3.113 3.113 0 0 1-3.109 3.109zm0-7.461a1.867 1.867 0 0 0-1.865 1.865v2.487c0 1.029.837 1.865 1.865 1.865a1.867 1.867 0 0 0 1.866-1.865V23.4a1.867 1.867 0 0 0-1.866-1.865z"/>
                </g>
                <g>
                    <path d="M26.833 40.187a3.113 3.113 0 0 1-3.109-3.11v-2.486a3.113 3.113 0 0 1 3.11-3.109 3.113 3.113 0 0 1 3.108 3.109v2.487a3.113 3.113 0 0 1-3.109 3.109zm0-7.461a1.867 1.867 0 0 0-1.865 1.865v2.487c0 1.029.837 1.865 1.865 1.865a1.867 1.867 0 0 0 1.866-1.865V34.59a1.867 1.867 0 0 0-1.866-1.865zM34.294 39.565H33.05v-6.84h-1.243v-1.243h2.487z"/>
                    <path d="M31.807 38.944h3.73v1.244h-3.73z"/>
                    <g>
                        <path d="M40.514 40.187a3.113 3.113 0 0 1-3.109-3.11v-2.486a3.113 3.113 0 0 1 3.11-3.109 3.113 3.113 0 0 1 3.108 3.109v2.487a3.113 3.113 0 0 1-3.109 3.109zm0-7.461a1.867 1.867 0 0 0-1.865 1.865v2.487c0 1.029.836 1.865 1.865 1.865a1.867 1.867 0 0 0 1.865-1.865V34.59a1.867 1.867 0 0 0-1.865-1.865zM47.974 39.565h-1.243v-6.84h-1.243v-1.243h2.486z"/>
                        <path d="M45.487 38.944h3.73v1.244h-3.73zM54.193 40.187a3.113 3.113 0 0 1-3.109-3.11v-2.486a3.113 3.113 0 0 1 3.109-3.109 3.113 3.113 0 0 1 3.109 3.109v2.487a3.113 3.113 0 0 1-3.109 3.109zm0-7.461a1.867 1.867 0 0 0-1.865 1.865v2.487c0 1.029.836 1.865 1.865 1.865a1.867 1.867 0 0 0 1.865-1.865V34.59a1.867 1.867 0 0 0-1.865-1.865z"/>
                        <g>
                            <path d="M61.653 39.565H60.41v-6.84h-1.243v-1.243h2.486z"/>
                            <path d="M59.166 38.944h3.73v1.244h-3.73z"/>
                        </g>
                    </g>
                </g>
            </g>
            <g fill="#475059">
                <path d="M28.076 50.147h-1.243v-6.84h-1.244v-1.243h2.487z"/>
                <path d="M25.59 49.526h3.73v1.244h-3.73zM34.295 50.769a3.113 3.113 0 0 1-3.11-3.11v-2.486a3.113 3.113 0 0 1 3.11-3.11 3.113 3.113 0 0 1 3.108 3.11v2.487a3.113 3.113 0 0 1-3.108 3.109zm0-7.462a1.867 1.867 0 0 0-1.866 1.866v2.487c0 1.028.837 1.865 1.866 1.865a1.867 1.867 0 0 0 1.865-1.865v-2.487a1.867 1.867 0 0 0-1.865-1.866z"/>
                <g>
                    <path d="M41.755 50.147h-1.243v-6.84h-1.244v-1.243h2.487z"/>
                    <path d="M39.269 49.526h3.73v1.244h-3.73z"/>
                </g>
                <g>
                    <path d="M47.975 50.769a3.113 3.113 0 0 1-3.109-3.11v-2.486a3.113 3.113 0 0 1 3.11-3.11 3.113 3.113 0 0 1 3.108 3.11v2.487a3.113 3.113 0 0 1-3.109 3.109zm0-7.462a1.867 1.867 0 0 0-1.865 1.866v2.487c0 1.028.837 1.865 1.865 1.865a1.867 1.867 0 0 0 1.866-1.865v-2.487a1.867 1.867 0 0 0-1.866-1.866zM55.435 50.147h-1.243v-6.84h-1.243v-1.243h2.486z"/>
                    <path d="M52.949 49.526h3.729v1.244h-3.73zM61.654 50.769a3.113 3.113 0 0 1-3.109-3.11v-2.486a3.113 3.113 0 0 1 3.11-3.11 3.113 3.113 0 0 1 3.108 3.11v2.487a3.113 3.113 0 0 1-3.109 3.109zm0-7.462a1.867 1.867 0 0 0-1.865 1.866v2.487c0 1.028.837 1.865 1.865 1.865a1.867 1.867 0 0 0 1.866-1.865v-2.487a1.867 1.867 0 0 0-1.866-1.866z"/>
                </g>
                <g>
                    <path d="M26.833 61.96a3.113 3.113 0 0 1-3.109-3.108v-2.487a3.113 3.113 0 0 1 3.11-3.11 3.113 3.113 0 0 1 3.108 3.11v2.487a3.113 3.113 0 0 1-3.109 3.109zm0-7.46a1.867 1.867 0 0 0-1.865 1.865v2.487c0 1.028.837 1.865 1.865 1.865a1.867 1.867 0 0 0 1.866-1.865v-2.487a1.867 1.867 0 0 0-1.866-1.866zM34.294 61.339H33.05v-6.84h-1.243v-1.243h2.487z"/>
                    <path d="M31.807 60.718h3.73v1.244h-3.73z"/>
                    <g>
                        <path d="M40.514 61.96a3.113 3.113 0 0 1-3.109-3.108v-2.487a3.113 3.113 0 0 1 3.11-3.11 3.113 3.113 0 0 1 3.108 3.11v2.487a3.113 3.113 0 0 1-3.109 3.109zm0-7.46a1.867 1.867 0 0 0-1.865 1.865v2.487c0 1.028.836 1.865 1.865 1.865a1.867 1.867 0 0 0 1.865-1.865v-2.487a1.867 1.867 0 0 0-1.865-1.866zM47.974 61.339h-1.243v-6.84h-1.243v-1.243h2.486z"/>
                        <path d="M45.487 60.718h3.73v1.244h-3.73zM54.193 61.96a3.113 3.113 0 0 1-3.109-3.108v-2.487a3.113 3.113 0 0 1 3.109-3.11 3.113 3.113 0 0 1 3.109 3.11v2.487a3.113 3.113 0 0 1-3.109 3.109zm0-7.46a1.867 1.867 0 0 0-1.865 1.865v2.487c0 1.028.836 1.865 1.865 1.865a1.867 1.867 0 0 0 1.865-1.865v-2.487a1.867 1.867 0 0 0-1.865-1.866z"/>
                        <g>
                            <path d="M61.653 61.339H60.41v-6.84h-1.243v-1.243h2.486z"/>
                            <path d="M59.166 60.718h3.73v1.244h-3.73z"/>
                        </g>
                    </g>
                </g>
            </g>
            <g>
                <path fill="#48515A" d="M40.082 112.884H38.84v-6.84H15.835v6.84H14.59V104.8h25.491z"/>
                <path fill="#5FE0ED" d="M11.482 111.021H41.4v8.08H11.48z"/>
                <g fill="#48515A">
                    <path d="M20.186 115.992H17.7a.622.622 0 1 1 0-1.243h2.486a.622.622 0 1 1 0 1.243z"/>
                    <path d="M16.456 117.236a1.867 1.867 0 0 1-1.865-1.865c0-1.029.837-1.866 1.865-1.866 1.029 0 1.866.837 1.866 1.866a1.867 1.867 0 0 1-1.866 1.865zm0-2.487a.622.622 0 1 0 .002 1.245.622.622 0 0 0-.002-1.245z"/>
                </g>
                <g>
                    <path fill="#DEDEDD" d="M6.024 67.167v9.82l6.856 5.922a7.726 7.726 0 0 0 5.561 2.262l2.066-.026-7.64-6.557v-6.444c0-1.855-.665-3.493-1.866-4.505v-.472c0-3.075-1.82-5.568-4.894-5.568v.667c-.697-.425-1.532-.667-2.489-.667v.667c1.542.941 2.406 2.783 2.406 4.901z"/>
                    <path fill="#475059" d="M20.507 85.767a.618.618 0 0 1-.405-.15l-7.856-6.743v-6.73c0-1.68-.6-3.148-1.646-4.03l-.22-.186v-.76c0-2.463-1.322-4.947-4.273-4.947H4.24v.045a.622.622 0 1 1-1.243 0v-1.289h3.11c3.247 0 5.516 2.546 5.516 6.19v.194c1.19 1.128 1.867 2.853 1.867 4.783v6.158l7.422 6.371a.622.622 0 0 1-.405 1.094z"/>
                    <path fill="#475059" d="M35.92 105.672a.622.622 0 0 1-.621-.622V91.46a5.671 5.671 0 0 0-1.672-4.036l-14.62-14.62c-1.594 2.07-1.367 5.245.619 7.231l5.986 5.667-7.163.09c-2.232.016-4.426-.862-6.008-2.444l-7.039-6.077V67.167c0-2.282-1.135-4.583-3.65-4.907v18.277l17.395 16.58v7.88a.622.622 0 1 1-1.244 0V97.65L.508 81.07V60.977h.621c3.248 0 5.517 2.546 5.517 6.19v9.535l6.64 5.736a7.164 7.164 0 0 0 5.147 2.111l4.098-.052-3.772-3.57c-2.632-2.632-2.727-6.963-.22-9.47l.438-.44 15.529 15.528a6.906 6.906 0 0 1 2.036 4.915v13.59a.622.622 0 0 1-.621.622z"/>
                </g>
                <g>
                    <path fill="#48515A" d="M85.151 112.884h-1.244v-6.84H60.903v6.84h-1.244V104.8h25.492z"/>
                    <path fill="#5FE0ED" d="M58.34 111.021h29.92v8.08H58.34z"/>
                    <g fill="#48515A">
                        <path d="M82.042 115.992h-2.486a.622.622 0 1 1 0-1.243h2.486a.622.622 0 1 1 0 1.243z"/>
                        <path d="M83.286 117.236a1.867 1.867 0 0 1-1.866-1.865c0-1.029.837-1.866 1.866-1.866 1.028 0 1.865.837 1.865 1.866a1.867 1.867 0 0 1-1.865 1.865zm0-2.487a.622.622 0 1 0 0 1.245.622.622 0 0 0 0-1.245z"/>
                    </g>
                    <g>
                        <path fill="#DEDEDD" d="M93.718 67.167v9.82l-6.856 5.922A7.726 7.726 0 0 1 81.3 85.17l-2.066-.026 7.64-6.557v-6.444c0-1.855.665-3.493 1.866-4.505v-.472c0-3.075 1.82-5.568 4.894-5.568v.667c.697-.425 1.532-.667 2.489-.667v.667c-1.542.941-2.406 2.783-2.406 4.901z"/>
                        <path fill="#475059" d="M79.235 85.767a.62.62 0 0 1-.405-1.094l7.422-6.37v-6.159c0-1.93.678-3.655 1.867-4.783v-.194c0-3.644 2.269-6.19 5.516-6.19h3.11v1.29a.622.622 0 1 1-1.243 0v-.046h-1.867c-2.951 0-4.272 2.484-4.272 4.946v.76l-.221.187c-1.046.882-1.646 2.35-1.646 4.03v6.73l-7.856 6.743a.618.618 0 0 1-.405.15z"/>
                        <path fill="#475059" d="M63.821 105.672a.622.622 0 0 1-.621-.622V91.46c0-1.856.723-3.602 2.036-4.915l15.529-15.528.439.44c2.506 2.507 2.41 6.838-.209 9.457l-3.784 3.583 4.098.052a7.128 7.128 0 0 0 5.113-2.08l6.674-5.767v-9.535c0-3.644 2.269-6.19 5.517-6.19h.621V81.07L81.84 97.65v7.348a.622.622 0 1 1-1.244 0v-7.88l17.396-16.58V62.26c-2.516.324-3.651 2.625-3.651 4.907v10.104l-7.072 6.108c-1.525 1.527-3.672 2.414-5.872 2.414h-.103l-7.163-.09 5.998-5.68c1.976-1.975 2.202-5.149.607-7.22l-14.62 14.62a5.671 5.671 0 0 0-1.672 4.037v13.59a.622.622 0 0 1-.622.622z"/>
                    </g>
                </g>
            </g>
            <g fill="#475059">
                <path d="M7.997 48.328a3.639 3.639 0 0 1-3.635-3.635 3.639 3.639 0 0 1 3.635-3.635 3.639 3.639 0 0 1 3.634 3.635 3.639 3.639 0 0 1-3.634 3.635zm0-6.027a2.394 2.394 0 0 0-2.391 2.392 2.394 2.394 0 0 0 2.39 2.391 2.394 2.394 0 0 0 2.392-2.391A2.394 2.394 0 0 0 7.997 42.3z"/>
                <path d="M7.997 50.91a6.167 6.167 0 0 1-4.48-1.906 6.17 6.17 0 0 1-1.733-4.553c.122-3.226 2.745-5.849 5.971-5.972a6.189 6.189 0 0 1 4.554 1.734 6.167 6.167 0 0 1 1.906 4.48v1.721a1.916 1.916 0 0 1-1.914 1.914 1.916 1.916 0 0 1-1.913-1.914V41.68h1.243v4.735a.67.67 0 0 0 1.34 0v-1.721a4.934 4.934 0 0 0-1.525-3.584 4.897 4.897 0 0 0-3.644-1.387c-2.537.096-4.68 2.239-4.776 4.776a4.937 4.937 0 0 0 1.387 3.644 4.933 4.933 0 0 0 3.584 1.525 4.938 4.938 0 0 0 3.13-1.109l.783.966a6.204 6.204 0 0 1-3.913 1.386z"/>
            </g>
            <circle cx="7.97" cy="31.397" r="1.244" fill="#FFD15D"/>
        </g>
        <g fill="#48515A">
            <path d="M3.73 22.176h1.245v2.487H3.73zM3.73 28.394h1.245v2.487H3.73z"/>
            <g>
                <path d="M6.218 25.907h2.487v1.244H6.218zM0 25.907h2.487v1.244H0z"/>
            </g>
        </g>
        <g fill="#48515A">
            <path d="M114.472 85.013h1.244V87.5h-1.244zM114.472 91.23h1.244v2.487h-1.244z"/>
            <g>
                <path d="M116.96 88.743h2.486v1.244h-2.487zM110.741 88.743h2.487v1.244h-2.487z"/>
            </g>
        </g>
    </g>
</svg>
