<svg xmlns="http://www.w3.org/2000/svg" width="370" height="336" viewBox="0 0 370 336">
    <g fill="none" fill-rule="evenodd">
        <path fill="#FFF" d="M42 100h282v189H42zM108 3h154v49H108z"/>
        <path fill="#FFF" d="M82 33h207v69H82z"/>
        <path fill="#48515A" fill-rule="nonzero" d="M291.117 292.995H48.144c-5.4 0-9.641-4.233-9.641-9.621V106.347c0-5.388 4.242-9.621 9.641-9.621h26.997v3.848H48.144c-3.278 0-5.785 2.502-5.785 5.773v177.027c0 3.271 2.507 5.773 5.785 5.773h242.973v3.848zM327.741 250.736h-3.867V106.352c0-3.273-2.513-5.776-5.8-5.776h-23.2v-3.85h23.2c5.414 0 9.667 4.235 9.667 9.626v144.384z"/>
        <path fill="#FFF" fill-rule="nonzero" d="M143.972 331.626l77.906 1.476-7.885-41.253h-62.336z"/>
        <path fill="#48515A" fill-rule="nonzero" d="M223.503 335.254H142.74v-5.944l5.769-34.895v-5.176h69.224v5.56l5.769 34.895v5.56zm-76.916-3.835h73.07v-1.534l-5.769-34.895v-1.917h-61.532v1.917l-5.77 34.895v1.534z"/>
        <path fill="#48515A" fill-rule="nonzero" d="M133.35 331.497h100.482v3.756H133.35z"/>
        <path fill="#DEDEDD" fill-rule="nonzero" d="M150.254 327.741h64.797l-5.207-30.99H155.46zM46.015 260.127v23.405c0 1.17.77 1.95 1.925 1.95h269.425c1.155 0 1.924-.78 1.924-1.95v-23.405H46.015z"/>
        <g fill="#48515A" fill-rule="nonzero">
            <path d="M354.438 208.477h3.891v7.781h-3.89zM354.438 227.93h3.891v7.781h-3.89zM362.22 220.15H370v3.89h-7.78zM342.766 220.15h7.781v3.89h-7.78z"/>
        </g>
        <g fill="#48515A" fill-rule="nonzero">
            <path d="M11.672 111.751h3.891v7.781h-3.891zM11.672 131.204h3.891v7.781h-3.891zM19.453 123.423h7.781v3.891h-7.781zM0 123.423h7.781v3.891H0z"/>
        </g>
        <g fill="#48515A" fill-rule="nonzero">
            <path d="M38.906 304.264h3.89v7.781h-3.89zM38.906 323.717h3.89v7.781h-3.89zM46.687 315.936h7.78v3.891h-7.78zM27.234 315.936h7.78v3.891h-7.78z"/>
        </g>
        <g fill="#FFD15D" fill-rule="nonzero" transform="translate(310.838 74.188)">
            <circle cx="5.447" cy="5.635" r="4.508"/>
            <path d="M5.447 11.269A5.45 5.45 0 0 1 0 5.822 5.45 5.45 0 0 1 5.447.376a5.45 5.45 0 0 1 5.446 5.446c.188 2.818-2.253 5.447-5.446 5.447zm0-9.203c-2.066 0-3.569 1.69-3.569 3.569 0 1.878 1.69 3.568 3.569 3.568 1.878 0 3.568-1.69 3.568-3.568.188-2.066-1.502-3.569-3.568-3.569z"/>
        </g>
        <circle cx="30.051" cy="56.345" r="4.695" fill="#5FE0ED" fill-rule="nonzero"/>
        <circle cx="110.812" cy="318.35" r="5.635" fill="#FFD15D" fill-rule="nonzero"/>
        <path fill="#DEDEDD" fill-rule="nonzero" d="M275.152 125.172c-5.774-.782-9.816-5.673-9.816-11.543 0 6.457-5.197 11.739-11.55 11.739-6.351 0-11.548-5.282-11.548-11.739 0 6.457-5.197 11.739-11.55 11.739-6.351 0-11.548-5.282-11.548-11.739 0 6.457-5.197 11.739-11.55 11.739-6.351 0-11.548-5.282-11.548-11.739 0 6.457-5.197 11.739-11.55 11.739-6.351 0-11.548-5.282-11.548-11.739 0 6.457-5.198 11.739-11.55 11.739-6.351 0-11.548-5.282-11.548-11.739 0 6.457-5.198 11.739-11.55 11.739-6.351 0-11.549-5.282-11.549-11.739 0 6.457-5.197 11.739-11.549 11.739-6.351 0-11.549-5.282-11.549-11.739 0 6.457-5.197 11.739-11.549 11.739-.962 0-1.924-.196-2.887-.391v12.13h185.94v-11.935zM106.117 213.173h100.482v14.086H106.117z"/>
        <path fill="#48515A" fill-rule="nonzero" d="M273.274 124.898h3.756v127.716h-3.756zM88.274 124.898h3.756v127.716h-3.756zM207.538 229.137H103.3v-86.396h104.24v86.396zm-100.185-3.84h96.517v-78.716h-96.517v78.716zM264.822 252.614h-51.65V142.741h51.65v109.873zm-47.824-3.855h43.998V146.596h-43.998V248.76z"/>
        <path fill="#48515A" fill-rule="nonzero" d="M277.611 127.715c-4.824 0-9.068-2.515-11.576-6.577-3.86 6.384-12.156 8.512-18.523 4.643a13.32 13.32 0 0 1-4.63-4.643c-3.859 6.384-12.155 8.512-18.522 4.643a13.32 13.32 0 0 1-4.63-4.643c-3.86 6.384-12.156 8.512-18.523 4.643a13.32 13.32 0 0 1-4.63-4.643c-3.86 6.384-12.156 8.512-18.523 4.643a13.32 13.32 0 0 1-4.63-4.643c-3.86 6.384-12.156 8.512-18.523 4.643a13.32 13.32 0 0 1-4.63-4.643c-3.859 6.384-12.155 8.512-18.522 4.643a13.32 13.32 0 0 1-4.63-4.643c-3.86 6.384-12.156 8.512-18.523 4.643a13.32 13.32 0 0 1-4.63-4.643c-3.86 6.384-12.156 8.512-18.523 4.643-4.052-2.515-6.56-6.771-6.56-11.607V30.99h25.082v3.869H82.742v79.315c0 5.416 4.245 9.672 9.647 9.672s9.647-4.256 9.647-9.672h3.859c0 5.416 4.244 9.672 9.647 9.672 5.402 0 9.647-4.256 9.647-9.672h3.859c0 5.416 4.244 9.672 9.647 9.672 5.402 0 9.646-4.256 9.646-9.672h3.86c0 5.416 4.244 9.672 9.646 9.672 5.403 0 9.647-4.256 9.647-9.672h3.859c0 5.416 4.245 9.672 9.647 9.672s9.647-4.256 9.647-9.672h3.859c0 5.416 4.244 9.672 9.647 9.672 5.402 0 9.647-4.256 9.647-9.672h3.859c0 5.416 4.244 9.672 9.646 9.672 5.403 0 9.647-4.256 9.647-9.672h3.86c0 5.416 4.244 9.672 9.646 9.672 5.403 0 9.647-4.256 9.647-9.672h3.859c0 5.416 4.245 9.672 9.647 9.672s9.647-4.256 9.647-9.672V34.859h-21.03v-3.87h24.889v83.185c-.193 7.544-6.174 13.541-13.506 13.541z"/>
        <path fill="#48515A" fill-rule="nonzero" d="M262.005 53.528h-18.89v-3.824h15.035V3.824h-146.3v45.88h69.584v3.824h-73.44V0h154.011z"/>
        <path fill="#5FE0ED" fill-rule="nonzero" d="M222.563 193.452h34.746v23.477h-34.746z"/>
        <path fill="#48515A" fill-rule="nonzero" d="M237.589 187.817h3.756v5.635h-3.756z"/>
        <path fill="#48515A" fill-rule="nonzero" d="M239.467 188.756c-4.132 0-7.513-3.38-7.513-7.512s3.381-7.513 7.513-7.513 7.513 3.38 7.513 7.513c0 4.132-3.381 7.512-7.513 7.512zm0-11.269a3.767 3.767 0 0 0-3.756 3.757 3.767 3.767 0 0 0 3.756 3.756 3.767 3.767 0 0 0 3.756-3.756 3.767 3.767 0 0 0-3.756-3.757z"/>
        <path fill="#DEDEDD" fill-rule="nonzero" d="M74.833 119.644V104.24H53.528l30.99 152.132V129.273c-5.423 0-9.685-4.237-9.685-9.629zM294.897 104.239v13.672c0 7.318-5.811 13.095-13.171 13.095v125.365l30.99-152.132h-17.82z"/>
        <path fill="#48515A" d="M203.58 91.091l-27.032-65.736 61.98 26.566L221.537 62.2l15.446 15.512-8.11 8.145-15.06-15.125z"/>
        <path fill="#FFF" fill-rule="nonzero" d="M183.692 32.53l20.274 49.06 8.689-17.452 16.219 16.288 2.703-2.715-16.22-16.288 14.868-8.92z"/>
        <path fill="#F58E70" fill-rule="nonzero" d="M282.665 109.65V38.503h-17.318v60.57h-23.09V57.732h-5.965l-8.852 5.385 14.624 14.614-13.662 13.652-9.428-9.422v17.114h-22.898V83.306L185.493 57.73h-12.508v41.343h-23.09V57.73h-23.09v41.343h-23.091V38.503H86.396v74.992c0 3.27 2.501 5.769 5.773 5.769 3.27 0 5.772-2.5 5.772-5.769h11.545c0 3.27 2.502 5.769 5.773 5.769s5.773-2.5 5.773-5.769h11.545c0 3.27 2.501 5.769 5.773 5.769 3.27 0 5.772-2.5 5.772-5.769h11.545c0 3.27 2.502 5.769 5.773 5.769s5.773-2.5 5.773-5.769h11.545c0 3.27 2.501 5.769 5.772 5.769 3.272 0 5.773-2.5 5.773-5.769h11.545c0 3.27 2.502 5.769 5.773 5.769s5.773-2.5 5.773-5.769h11.545c0 3.27 2.501 5.769 5.772 5.769 3.272 0 5.773-2.5 5.773-5.769h11.545c0 3.27 2.502 5.769 5.773 5.769s5.773-2.5 5.773-5.769h11.545c0 3.27 2.501 5.769 5.772 5.769 3.272 0 5.773-2.5 5.773-5.769v-3.845z"/>
        <path fill="#FFD45C" d="M299.43 272.092l26.674-14.053 24.006 14.154-24.006 13.952zM327.065 286.389l26.21-13.41 1.904 27.698-28.114 13.17z"/>
        <path fill="#D2AD46" d="M295.43 300.092l3.266-25.368 26.017 13.28v26.343z"/>
        <path fill="#48515A" fill-rule="nonzero" d="M325.863 318.35l-30.99-15.681v-31.556l30.99-15.682 30.99 15.682v31.556l-30.99 15.681zm-27.116-18.004l27.116 13.745 27.116-13.745v-26.91l-27.116-13.745-27.116 13.745v26.91z"/>
        <path fill="#48515A" fill-rule="nonzero" d="M325.298 289.239l-29.486-15.26 1.723-3.522 27.763 14.282 27.953-14.282 1.724 3.521z"/>
        <path fill="#48515A" fill-rule="nonzero" d="M323.985 287.36h3.756v29.112h-3.756zM342.766 288.3h-3.873v-7.76l-27.116-13.44 1.743-3.217 29.246 14.196z"/>
    </g>
</svg>
