<svg xmlns="http://www.w3.org/2000/svg" width="370" height="373" viewBox="0 0 370 373">
    <g fill="none" fill-rule="evenodd">
        <path fill="#50E3C2" d="M199 22.887l143.286 82.726a10 10 0 0 1 5 8.66v165.453a10 10 0 0 1-5 8.66L199 371.114a10 10 0 0 1-10 0L45.714 288.387a10 10 0 0 1-5-8.66V114.273a10 10 0 0 1 5-8.66L189 22.886a10 10 0 0 1 10 0z"/>
        <g>
            <path fill="#FFF" d="M109 96h238v141H109z"/>
            <path fill="#FFF" d="M144 42h168v141H144z"/>
            <path fill="#DEDEDD" fill-rule="nonzero" d="M305.492 197.398l15.885-9.686-30.22-12.979-5.037 3.293 15.885 15.885-5.424 5.424-15.69-15.691-3.294 6.393 13.173 31.77 9.492-18.791 13.56 13.754v-11.236zM143.157 43.586v23.246h170.471V43.586h-170.47zm164.66 17.435H195.46V49.398h112.356V61.02zM142.576 222.387V96.86h-30.607z"/>
            <path fill="#DEDEDD" fill-rule="nonzero" d="M313.628 222.387V96.86h30.414zM108.288 227.23v17.822a3.886 3.886 0 0 0 3.874 3.875h232.461a3.886 3.886 0 0 0 3.874-3.875v-17.628l-240.209-.194z"/>
            <path fill="#FFF" d="M90 301h201v70H90z"/>
            <path fill="#DEDEDD" fill-rule="nonzero" d="M201.272 249.12h54.435v22.859h-54.435z"/>
            <g fill="#DEDEDD" fill-rule="nonzero">
                <path d="M154.78 310.916h3.874v3.874h-3.874zM123.785 310.916h3.874v3.874h-3.874zM139.283 310.916h3.874v3.874h-3.874zM170.278 310.916h3.874v3.874h-3.874zM154.78 341.91h3.874v3.875h-3.874zM131.534 326.414h3.874v3.874h-3.874zM100.539 357.409h3.874v3.874h-3.874zM201.272 310.916h3.874v3.874h-3.874zM116.037 357.409h3.874v3.874h-3.874zM100.539 341.91h11.623v3.875h-11.623zM100.539 326.414h3.874v3.874h-3.874zM100.539 310.916h11.623v3.874h-11.623zM162.529 326.414h3.874v3.874h-3.874zM193.524 326.414h3.874v3.874h-3.874zM185.775 341.91h3.874v3.875h-3.874zM147.03 326.414h3.875v3.874h-3.874zM178.026 326.414h3.874v3.874h-3.874zM170.278 341.91h3.874v3.875h-3.874zM116.037 326.414h3.874v3.874h-3.874zM139.283 341.91h3.874v3.875h-3.874zM224.518 326.414h3.874v3.874h-3.874zM216.77 341.91h3.874v3.875h-3.874zM209.02 326.414h3.875v3.874h-3.874zM201.272 341.91h3.874v3.875h-3.874zM216.77 310.916h3.874v3.874h-3.874zM185.775 310.916h3.874v3.874h-3.874zM247.764 310.916h3.874v3.874h-3.874zM263.262 341.91h3.874v3.875h-3.874zM263.262 357.409h3.874v3.874h-3.874zM240.016 326.414h3.874v3.874h-3.874zM247.764 357.409h3.874v3.874h-3.874zM278.759 357.409h3.874v3.874h-3.874zM131.534 357.409h3.874v3.874h-3.874zM278.759 310.916h3.874v3.874h-3.874zM255.513 326.414h3.874v3.874h-3.874z"/>
                <path d="M288.445 301.23H94.728a3.886 3.886 0 0 0-3.875 3.875v61.99a3.886 3.886 0 0 0 3.875 3.874h193.717a3.886 3.886 0 0 0 3.874-3.875v-61.99a3.886 3.886 0 0 0-3.874-3.874zm-29.058 5.812h11.623v11.623h-11.623v-11.623zm3.875 15.497v11.623h-11.623V322.54h11.623zm-19.372-15.497h11.623v11.623H243.89v-11.623zm3.874 15.497v11.623h-11.623V322.54h11.623zm-19.371-15.497h11.623v11.623h-11.623v-11.623zM119.91 338.037h11.623v11.623h-11.623v-11.623zm-7.749-3.875V322.54h11.623v11.623h-11.623zm15.498 0V322.54h11.623v11.623H127.66zm7.748 3.875h11.623v11.623h-11.623v-11.623zm7.75-3.875V322.54h11.622v11.623h-11.623zm7.748 3.875h11.623v11.623h-11.623v-11.623zm7.748-3.875V322.54h11.623v11.623h-11.623zm7.75 3.875h11.622v11.623h-11.623v-11.623zm7.748-3.875V322.54h11.623v11.623h-11.623zm7.749 3.875h11.623v11.623H181.9v-11.623zm7.748-3.875V322.54h11.623v11.623H189.65zm7.749 3.875h11.623v11.623h-11.623v-11.623zm7.749-3.875V322.54h11.623v11.623h-11.623zm7.748 3.875h11.623v11.623h-11.623v-11.623zm7.749-3.875V322.54h11.623v11.623h-11.623zm-7.749-27.12h11.623v11.623h-11.623v-11.623zm-15.497 0h11.623v11.623h-11.623v-11.623zm-15.497 0h11.623v11.623H181.9v-11.623zm-15.498 0h11.623v11.623h-11.623v-11.623zm-15.497 0h11.623v11.623h-11.623v-11.623zm-15.498 0h11.623v11.623h-11.623v-11.623zm-15.497 0h11.623v11.623h-11.623v-11.623zm-23.246 0h19.372v11.623H96.665v-11.623zm0 15.497h11.623v11.623H96.665V322.54zm0 15.498h19.372v11.623H96.665v-11.623zm11.623 27.12H96.665v-11.623h11.623v11.623zm15.497 0h-11.623v-11.623h11.623v11.623zm15.498 0H127.66v-11.623h11.623v11.623zm15.497 0h-11.623v-11.623h11.623v11.623zm85.236 0h-81.362v-11.623h81.362v11.623zm0-15.497h-11.623v-11.623h11.623v11.623zm15.497 15.497H243.89v-11.623h11.623v11.623zm0-15.497H243.89v-11.623h11.623v11.623zm15.497 15.497h-11.623v-11.623h11.623v11.623zm0-15.497h-11.623v-11.623h11.623v11.623zm15.498 15.497h-11.623v-11.623h11.623v11.623zm0-15.497h-11.623v-11.623h11.623v11.623zm0-15.498h-19.372V322.54h19.372v11.623zm0-15.497h-11.623v-11.623h11.623v11.623z"/>
                <path d="M263.262 310.916h3.874v3.874h-3.874zM278.759 341.91h3.874v3.875h-3.874zM271.01 326.414h11.624v3.874H271.01zM247.764 341.91h3.874v3.875h-3.874zM232.267 310.916h3.874v3.874h-3.874zM162.529 357.409h73.613v3.874h-73.613zM232.267 341.91h3.874v3.875h-3.874zM147.03 357.409h3.875v3.874h-3.874zM123.785 341.91h3.874v3.875h-3.874z"/>
            </g>
            <path fill="#48515A" fill-rule="nonzero" d="M288.445 372.906H94.728c-3.293 0-5.812-2.519-5.812-5.812v-61.99c0-3.292 2.519-5.81 5.812-5.81h193.717c3.293 0 5.812 2.518 5.812 5.81v61.99c0 3.1-2.519 5.812-5.812 5.812zM94.728 303.168c-1.163 0-1.937.774-1.937 1.937v61.99c0 1.162.774 1.936 1.937 1.936h193.717c1.162 0 1.937-.774 1.937-1.937v-61.99c0-1.162-.775-1.936-1.937-1.936H94.728z"/>
            <g fill="#475059" fill-rule="nonzero">
                <path d="M110.225 117.199h-3.874v-16.853c0-3.294 2.518-5.812 5.811-5.812h29.445v3.874h-29.445c-1.162 0-1.937.775-1.937 1.938v16.853zM344.623 250.864h-232.46c-3.294 0-5.812-2.518-5.812-5.812v-65.864h3.874v65.864c0 1.163.775 1.938 1.937 1.938h232.461c1.162 0 1.937-.775 1.937-1.938V100.346c0-1.163-.775-1.938-1.937-1.938h-30.414v-3.874h30.414c3.293 0 5.812 2.518 5.812 5.812v144.706c0 3.294-2.519 5.812-5.812 5.812zM185.775 270.235h85.236v3.874h-85.236z"/>
                <path d="M199.335 248.926h3.874v23.246h-3.874zM253.576 248.926h3.874v23.246h-3.874zM141.22 138.508h3.874v89.11h-3.874zM315.565 227.618h-3.874V45.524H145.094v77.486h-3.874V41.65h174.345z"/>
                <path d="M154.78 61.02c-3.293 0-5.811-2.517-5.811-5.81 0-3.294 2.518-5.812 5.811-5.812s5.812 2.518 5.812 5.811c0 3.294-2.519 5.812-5.812 5.812zm0-7.748c-1.162 0-1.937.775-1.937 1.937 0 1.163.775 1.938 1.937 1.938s1.937-.775 1.937-1.938c0-1.162-.775-1.937-1.937-1.937zM170.277 61.02c-3.293 0-5.811-2.517-5.811-5.81 0-3.294 2.518-5.812 5.811-5.812 3.294 0 5.812 2.518 5.812 5.811 0 3.294-2.518 5.812-5.812 5.812zm0-7.748c-1.162 0-1.937.775-1.937 1.937 0 1.163.775 1.938 1.937 1.938 1.163 0 1.938-.775 1.938-1.938 0-1.162-.775-1.937-1.938-1.937zM185.775 61.02c-3.293 0-5.812-2.517-5.812-5.81 0-3.294 2.519-5.812 5.812-5.812s5.811 2.518 5.811 5.811c0 3.294-2.518 5.812-5.811 5.812zm0-7.748c-1.162 0-1.937.775-1.937 1.937 0 1.163.775 1.938 1.937 1.938s1.937-.775 1.937-1.938c0-1.162-.775-1.937-1.937-1.937z"/>
            </g>
            <g fill-rule="nonzero">
                <path fill="#475059" d="M18.294 200.865l2.811-2.666 55.585 58.614-2.811 2.666z"/>
                <path fill="#DEDEDD" d="M32.932 271.204c0-10.46 8.523-18.984 18.984-18.984H83.88c10.46 0 18.984 8.523 18.984 18.984v.194"/>
                <path fill="#FFD15D" d="M130.178 142.77c8.524 8.523 8.524 22.083 0 30.607-8.524 8.524-22.084 8.524-30.607 0"/>
                <path fill="#475059" d="M25.764 270.235h84.267v3.874H25.764zM18.037 184.157L55.06 142.42l2.898 2.57-37.022 41.737z"/>
                <path fill="#F58E70" d="M12.204 204.76c-6.586 0-12.01-5.425-12.01-12.011 0-6.587 5.424-12.01 12.01-12.01 6.587 0 12.01 5.423 12.01 12.01.194 6.586-5.23 12.01-12.01 12.01zm0-20.341c-4.455 0-8.136 3.68-8.136 8.136 0 4.455 3.68 8.136 8.136 8.136 4.456 0 8.136-3.68 8.136-8.136.194-4.456-3.487-8.136-8.136-8.136z"/>
                <path fill="#DEDEDD" d="M86.592 186.356l-14.53-42.424-14.14-14.141a20.227 20.227 0 0 1 0-28.67 20.227 20.227 0 0 1 28.67 0l14.141 14.14 42.424 14.53-56.565 56.565z"/>
            </g>
            <path fill="#48515A" fill-rule="nonzero" d="M60.246 147.225c-1.743 0-3.487-.775-4.843-2.13-2.712-2.713-2.712-7.168 0-9.88l4.456-4.456 2.712 2.712-4.456 4.65c-1.162 1.162-1.162 3.099 0 4.455 1.162 1.162 3.1 1.162 4.456 0l4.455-4.456 2.712 2.712-4.455 4.456c-1.356 1.356-3.293 1.937-5.037 1.937zM189.65 299.293h-3.875v-3.874c0-5.424 4.262-9.686 9.686-9.686h164.66c3.293 0 5.81-2.518 5.81-5.812 0-3.293-2.517-5.811-5.81-5.811h-61.99c-5.424 0-9.686-4.262-9.686-9.686v-15.497h3.874v15.497c0 3.293 2.519 5.812 5.812 5.812h61.99c5.424 0 9.685 4.261 9.685 9.685 0 5.425-4.261 9.686-9.686 9.686H195.46c-3.292 0-5.81 2.519-5.81 5.812v3.874z"/>
            <path fill="#FAFAFA" fill-rule="nonzero" d="M344.623 365.157h-23.246c-4.262 0-7.749-3.487-7.749-7.749v-42.617c0-4.262 3.487-7.75 7.749-7.75h23.246c4.262 0 7.749 3.488 7.749 7.75v42.617c0 4.262-3.487 7.75-7.749 7.75z"/>
            <path fill="#48515A" fill-rule="nonzero" d="M331.063 307.042h3.874v15.497h-3.874z"/>
            <path fill="#475059" fill-rule="nonzero" d="M85.817 189.843L70.319 144.9l-13.754-13.754c-8.717-8.718-8.717-22.859 0-31.576 8.718-8.718 22.86-8.718 31.576 0l13.754 13.754 44.943 15.497-61.021 61.02zm-13.56-92.79c-4.65 0-9.493 1.743-12.98 5.423-7.167 7.168-7.167 18.791 0 25.959l14.53 14.528L87.56 182.87l52.11-52.11-39.906-13.754-14.528-14.529c-3.487-3.68-8.137-5.424-12.98-5.424z"/>
            <path fill="#48515A" fill-rule="nonzero" d="M253.576 55.21c0-1.163.775-1.938 1.937-1.938.969 0 1.937.775 1.937 1.937 0 .969-.968 1.938-1.937 1.938-.968 0-1.937-.775-1.937-1.938zm-7.749 0c0-1.163.775-1.938 1.937-1.938.969 0 1.938.775 1.938 1.937 0 .969-.969 1.938-1.938 1.938-.968 0-1.937-.775-1.937-1.938zm-7.748 0c0-1.163.774-1.938 1.937-1.938.968 0 1.937.775 1.937 1.937 0 .969-.969 1.938-1.937 1.938-.969 0-1.937-.775-1.937-1.938zm-7.75 0c0-1.163.776-1.938 1.938-1.938.969 0 1.937.775 1.937 1.937 0 .969-.968 1.938-1.937 1.938-.969 0-1.937-.775-1.937-1.938zm-7.748 0c0-1.163.775-1.938 1.937-1.938.969 0 1.937.775 1.937 1.937 0 .969-.968 1.938-1.937 1.938-.968 0-1.937-.775-1.937-1.938zm-7.749 0c0-1.163.775-1.938 1.938-1.938.968 0 1.937.775 1.937 1.937 0 .969-.969 1.938-1.937 1.938-.969 0-1.938-.775-1.938-1.938zm-7.748 0c0-1.163.775-1.938 1.937-1.938.969 0 1.937.775 1.937 1.937 0 .969-.968 1.938-1.937 1.938-.969 0-1.937-.775-1.937-1.938zm-7.749 0c0-1.163.775-1.938 1.937-1.938.969 0 1.937.775 1.937 1.937 0 .969-.968 1.938-1.937 1.938-.968 0-1.937-.775-1.937-1.938zM271.204 207.084l-27.12-65.67 62.183 26.539-17.047 10.267 15.497 15.497-8.136 8.136-15.11-15.11-10.267 20.34zm-19.759-58.31l20.34 49.011 8.718-17.434 16.272 16.272 2.712-2.712-16.272-16.272 14.916-8.911-46.686-19.953z"/>
            <path fill="#475059" fill-rule="nonzero" d="M240.016 111.387h38.743v3.874h-38.743zM240.016 119.136h38.743v3.874h-38.743zM240.016 126.885h38.743v3.874h-38.743z"/>
            <g fill="#475059" fill-rule="nonzero">
                <path d="M212.12 219.87H65.67c-5.424 0-9.686-4.263-9.686-9.687 0-5.424 4.262-9.686 9.686-9.686h146.45l20.922 9.686-20.922 9.686zM65.67 204.371c-3.293 0-5.811 2.518-5.811 5.811s2.518 5.812 5.811 5.812h145.676l12.591-5.812-12.591-5.811H65.67z"/>
                <path d="M76.518 203.21h3.874v14.723h-3.874z"/>
                <path d="M78.456 208.246h131.728v3.874H78.456z"/>
            </g>
            <g fill-rule="nonzero">
                <g fill="#FFD15D">
                    <path d="M304.911 10.655h59.277V47.46h-59.277z"/>
                    <path d="M365.932 49.398H302.78V8.718h63.152v40.68zm-59.084-3.874h55.403V12.592h-55.403v32.932z"/>
                </g>
                <path fill="#48515A" d="M334.356 31.382a1.48 1.48 0 0 1-.969-.387l-25.57-16.079c-.969-.58-1.163-1.743-.581-2.712.58-.968 1.743-1.162 2.712-.581L334.55 27.12l23.052-14.722c.969-.581 2.131-.388 2.712.581.581.969.388 2.13-.581 2.712l-24.021 15.497c-.581.194-.969.194-1.356.194zM359.54 44.749c-.582 0-1.163-.194-1.55-.775l-12.01-14.335c-.776-.775-.582-2.131.193-2.712.775-.775 2.13-.581 2.712.193l12.01 14.335c.775.775.581 2.131-.193 2.713-.388.387-.775.58-1.163.58zM309.366 44.749c-.387 0-.968-.194-1.162-.388-.775-.775-.968-1.937-.194-2.712l12.01-14.335c.776-.775 1.938-.968 2.713-.194.775.775.969 1.938.194 2.712l-12.01 14.336c-.388.193-.97.58-1.55.58zM334.937 57.147h3.874v23.246h-3.874zM336.874 88.141h-.387c-.194 0-.194 0-.388-.193-.193 0-.193-.194-.387-.194s-.194-.194-.194-.194c-.193-.194-.387-.387-.387-.58-.194-.195-.194-.388-.194-.776 0-.194 0-.581.194-.775.194-.193.194-.387.387-.58.775-.776 1.937-.776 2.712 0 .388.387.582.774.582 1.355 0 .194 0 .581-.194.775-.194.194-.194.387-.388.581-.387.388-.775.581-1.356.581zM346.56 57.147h3.874V68.77h-3.874zM348.497 76.518c-.58 0-.968-.193-1.356-.58-.387-.388-.58-.776-.58-1.357s.193-.968.58-1.356c.582-.581 1.356-.775 2.131-.387.194 0 .388.193.581.387.388.388.582.775.582 1.356 0 .581-.194.969-.582 1.356-.193.194-.387.388-.58.388-.194.193-.582.193-.776.193zM323.314 57.147h3.874v15.497h-3.874zM325.251 80.393c-.193 0-.387 0-.775-.194-.193-.194-.387-.194-.58-.387-.194-.194-.388-.388-.388-.582 0-.193-.194-.387-.194-.775 0-.193 0-.58.194-.774 0-.194.194-.388.387-.582.194-.193.388-.387.581-.387.775-.194 1.55-.194 2.131.387.194.194.388.388.388.582 0 .193.193.387.193.774 0 .194 0 .388-.193.775-.194.194-.194.388-.388.582-.387.387-.775.58-1.356.58z"/>
            </g>
            <circle cx="140.832" cy="279.921" r="7.749" fill="#5FE0ED" fill-rule="nonzero"/>
            <circle cx="24.408" cy="99.764" r="7.749" fill="#5FE0ED" fill-rule="nonzero"/>
            <g fill="#48515A" fill-rule="nonzero">
                <path d="M39.905 305.298h3.874v7.75h-3.874zM39.905 324.67h3.874v7.75h-3.874z"/>
                <g>
                    <path d="M47.654 316.921h7.75v3.874h-7.75zM28.282 316.921h7.75v3.874h-7.75z"/>
                </g>
            </g>
            <g fill="#48515A" fill-rule="nonzero">
                <path d="M39.905 41.65h3.874v7.749h-3.874zM39.905 61.02h3.874v7.75h-3.874z"/>
                <g>
                    <path d="M47.654 53.273h7.75v3.874h-7.75zM28.282 53.273h7.75v3.874h-7.75z"/>
                </g>
            </g>
            <g fill="#48515A" fill-rule="nonzero">
                <path d="M252.994 8.718h3.874v7.749h-3.874zM252.994 28.089h3.874v7.749h-3.874z"/>
                <g>
                    <path d="M260.743 20.34h7.75v3.875h-7.75zM241.371 20.34h7.75v3.875h-7.75z"/>
                </g>
            </g>
            <path fill="#48515A" fill-rule="nonzero" d="M344.623 367.094h-23.246c-5.424 0-9.686-4.262-9.686-9.686v-42.617c0-5.425 4.262-9.686 9.686-9.686h23.246c5.424 0 9.686 4.261 9.686 9.686v42.617c0 5.424-4.262 9.686-9.686 9.686zm-23.246-58.115c-3.293 0-5.812 2.518-5.812 5.812v42.617c0 3.294 2.519 5.812 5.812 5.812h23.246c3.293 0 5.812-2.518 5.812-5.812v-42.617c0-3.294-2.519-5.812-5.812-5.812h-23.246z"/>
            <g fill-rule="nonzero">
                <path fill="#F58E70" d="M194.105 136.183c-2.325 0-4.843-.968-6.587-2.712-3.68-3.68-3.68-9.492 0-13.173 3.681-3.68 9.492-3.68 13.173 0 1.744 1.744 2.712 4.068 2.712 6.587 0 2.518-.968 4.843-2.712 6.586-1.743 1.937-4.262 2.712-6.586 2.712zm0-14.722c-1.356 0-2.712.58-3.875 1.55-2.13 2.13-2.13 5.617 0 7.748 2.131 2.131 5.618 2.131 7.75 0 .968-.968 1.549-2.324 1.549-3.874 0-1.356-.581-2.906-1.55-3.875-1.162-.968-2.518-1.55-3.874-1.55z"/>
                <path fill="#48515A" d="M193.717 165.047l-.968-6.78c-.388-1.937-1.744-2.906-3.1-3.1-1.356-.193-2.906.194-3.874 1.938l-3.1 6.005-11.429-5.812 3.1-6.005c.968-1.743.193-3.293-.582-4.262-.968-.968-2.518-1.55-4.261-.58l-6.006 3.099-5.811-11.236 6.005-3.1c1.744-.968 2.131-2.518 1.937-3.874-.193-1.356-1.162-2.712-3.1-3.1l-6.78-1.161 1.938-12.592 6.78 1.162c1.937.388 3.293-.775 3.874-1.937s.775-2.906-.58-4.262l-4.844-4.843 9.105-9.104 4.843 4.843c1.356 1.356 3.1 1.162 4.262.58 1.162-.58 2.324-1.936 1.937-3.874l-.969-6.78 12.592-1.937.968 6.78c.388 1.937 1.744 2.906 3.1 3.1 1.356.193 2.906-.194 3.874-1.938l3.1-6.005 11.43 5.812-3.1 6.005c-.969 1.743-.194 3.293.58 4.262.97.968 2.52 1.55 4.263.58l6.005-3.099 5.811 11.236-6.005 3.1c-1.743.968-2.13 2.518-1.937 3.874.194 1.356 1.162 2.712 3.1 3.1l6.78 1.162-1.938 12.591-6.78-1.162c-1.937-.387-3.293.775-3.874 1.937s-.775 2.906.581 4.262l4.843 4.843-9.105 9.105-4.843-4.843c-1.356-1.356-3.1-1.163-4.262-.582-1.162.582-2.324 1.938-1.937 3.875l.969 6.78-12.592 1.937zm-4.843-13.56c.388 0 .775 0 1.163.194 3.293.58 5.811 2.905 6.199 6.199l.387 2.905 5.037-.775-.194-3.099c-.581-3.293.969-6.393 4.068-7.942 2.906-1.55 6.393-.969 8.717 1.356l2.131 2.13 3.487-3.486-2.13-2.131c-2.325-2.325-2.907-5.812-1.357-8.718 1.55-2.905 4.65-4.455 7.943-4.068l2.905.388.775-5.037-2.906-.387c-3.293-.581-5.811-2.906-6.198-6.2-.582-3.292.968-6.392 4.068-7.942l2.712-1.356-2.131-4.455-2.712 1.356c-2.906 1.55-6.393.968-8.718-1.356-2.324-2.325-2.905-5.812-1.356-8.717l1.356-2.712-4.455-2.325-1.356 2.712c-1.55 2.906-4.65 4.455-7.943 4.068-3.293-.581-5.811-2.906-6.198-6.199l-.388-2.906-5.037.775.388 2.906c.581 3.293-.969 6.393-4.068 7.942-2.906 1.55-6.393.969-8.717-1.356l-2.131-2.13-3.681 3.68 2.13 2.13c2.326 2.326 2.907 5.812 1.357 8.718-1.55 2.906-4.65 4.456-7.942 4.068l-2.906-.387-.775 5.036 2.906.388c3.293.581 5.811 2.906 6.199 6.199.58 3.293-.969 6.393-4.068 7.942l-2.712 1.356 2.13 4.456 2.712-1.356c2.906-1.55 6.393-.969 8.718 1.356 2.324 2.324 2.905 5.811 1.356 8.717l-1.356 2.712 4.455 2.325 1.356-2.712c1.55-2.906 4.068-4.262 6.78-4.262z"/>
                <path fill="#48515A" d="M194.298 147.613c0-.969.582-1.938 1.744-2.131.968 0 1.937.775 2.13 1.743.194 1.162-.58 2.131-1.743 2.131h-.193c-.969 0-1.744-.775-1.938-1.743zm-6.199.968c-.968-.387-1.743-1.356-1.356-2.324.194-.969 1.356-1.55 2.325-1.356.969.193 1.744 1.356 1.356 2.324-.194.775-.969 1.356-1.937 1.356 0 .194-.194.194-.388 0zm13.754-2.518c-.58-.969-.193-2.131.775-2.712.969-.581 2.131-.194 2.519.775.58.968.193 2.13-.775 2.518-.194.194-.581.194-.969.194-.387.387-1.162 0-1.55-.775zm-21.308-1.162c-.775-.582-.97-1.938-.388-2.713.581-.774 1.937-.968 2.712-.387.775.581.969 1.937.388 2.712-.388.581-.969.775-1.55.775-.388 0-.775 0-1.162-.387zm27.895-2.906c-.775-.775-.969-1.937-.194-2.712.775-.775 1.937-.969 2.712-.194.775.775.775 1.937.194 2.712-.388.387-.969.581-1.55.581-.387 0-.775-.194-1.162-.387zm-33.513-3.293c-.581-.969-.194-2.131.58-2.712.97-.582 2.132-.194 2.713.58.581.97.194 2.132-.581 2.713-.388.193-.581.193-.969.193-.775.194-1.356-.193-1.743-.774zm37.968-3.1c-.968-.387-1.55-1.55-1.162-2.518.387-.969 1.55-1.55 2.518-1.163.969.388 1.55 1.55 1.163 2.519-.388.775-.969 1.356-1.938 1.356-.193 0-.387 0-.58-.194zm-41.068-4.843c-.193-.968.581-2.13 1.55-2.13.969-.194 2.13.58 2.325 1.549.193.969-.582 2.13-1.55 2.325h-.388c-.968 0-1.743-.775-1.937-1.744zm41.068-4.455c0-1.163.775-1.938 1.937-1.938 1.163 0 1.938.775 1.938 1.938 0 1.162-.775 1.937-1.938 1.937-1.162-.194-1.937-.969-1.937-1.937zm-39.324-1.55c-.969-.194-1.744-1.162-1.55-2.325.194-.968 1.162-1.743 2.325-1.55.968.194 1.743 1.163 1.55 2.325-.194.969-.97 1.55-1.938 1.55h-.387zm37.775-5.23c-.388-.969 0-2.131.968-2.519.969-.387 2.131 0 2.518.969.388.968 0 2.13-.968 2.518-.194.194-.581.194-.775.194-.775 0-1.55-.581-1.743-1.162zm-35.644-2.325c-.969-.581-1.163-1.744-.582-2.712.582-.969 1.744-1.162 2.712-.581.969.58 1.163 1.743.582 2.712-.388.581-.969.968-1.55.968-.388 0-.775-.193-1.162-.387zm31.575-3.487c-.774-.775-.774-1.937 0-2.712.775-.775 1.938-.775 2.713 0 .774.775.774 1.937 0 2.712-.388.387-.97.581-1.356.581-.388 0-.97-.194-1.357-.581zm-26.732-2.518c-.582-.775-.388-2.131.58-2.712.776-.581 2.132-.388 2.713.387.58.969.387 2.131-.388 2.712-.387.194-.775.388-1.162.388-.775 0-1.356-.194-1.743-.775zm22.664-.581c-.968-.582-1.162-1.744-.774-2.712.58-.97 1.743-1.356 2.712-.775.968.58 1.162 1.743.774 2.712-.387.58-.968.968-1.743.968-.387 0-.581 0-.969-.193zm-15.884-3.294c-.194-.968.387-2.13 1.356-2.324.968-.194 2.13.387 2.324 1.356.194.968-.387 2.13-1.356 2.324h-.387c-.969.194-1.744-.387-1.937-1.356zm9.298.969c-.969-.194-1.743-1.162-1.743-2.13.193-1.163 1.162-1.744 2.13-1.744.97.193 1.744 1.162 1.744 2.13-.194.97-.969 1.744-1.937 1.744 0 .194-.194 0-.194 0z"/>
            </g>
            <g transform="translate(66.864)">
                <circle cx="43" cy="44" r="42" fill="#FFF"/>
                <path fill="#F58E70" fill-rule="nonzero" d="M43.361 86.204C19.921 86.204.743 67.026.743 43.586S19.921.97 43.361.97 85.98 20.147 85.98 43.586c0 23.44-18.984 42.618-42.618 42.618zm0-81.361c-21.309 0-38.743 17.434-38.743 38.743 0 21.31 17.434 38.744 38.743 38.744 21.31 0 38.744-17.435 38.744-38.744S64.864 4.843 43.36 4.843z"/>
                <g fill="#48515A" fill-rule="nonzero">
                    <path d="M45.298 64.12h-3.874V40.1h17.047v3.874H45.298zM15.466 45.524H9.461c-1.163 0-1.937-.775-1.937-1.938 0-1.162.774-1.937 1.937-1.937h6.005c1.162 0 1.937.775 1.937 1.937 0 1.163-.775 1.938-1.937 1.938z"/>
                    <path d="M15.466 45.524H9.461c-1.163 0-1.937-.775-1.937-1.938 0-1.162.774-1.937 1.937-1.937h6.005c1.162 0 1.937.775 1.937 1.937 0 1.163-.775 1.938-1.937 1.938zM26.12 75.162c-.387 0-.58 0-.968-.193-.969-.582-1.162-1.744-.775-2.712l3.1-5.23c.58-.97 1.743-1.163 2.711-.776.97.581 1.163 1.744.775 2.712l-3.1 5.23c-.387.582-.968.97-1.743.97zM19.34 31.188c-.387 0-.58 0-.968-.193l-5.23-3.1c-.97-.58-1.163-1.743-.776-2.712.582-.968 1.744-1.162 2.713-.775l5.23 3.1c.968.581 1.162 1.743.775 2.712-.388.581-.969.968-1.744.968zM13.529 62.183c-.581 0-1.356-.387-1.744-.968-.58-.969-.193-2.131.775-2.712l5.23-3.1c.97-.581 2.131-.194 2.713.775.58.969.193 2.13-.775 2.712l-5.23 3.1c-.194.193-.582.193-.97.193zM29.607 20.728c-.58 0-1.356-.388-1.743-.969l-3.1-5.23c-.58-.969-.193-2.131.775-2.712.969-.581 2.131-.194 2.712.775l3.1 5.23c.58.969.194 2.13-.775 2.712-.194.194-.581.194-.969.194zM77.068 45.524h-6.005c-1.162 0-1.937-.775-1.937-1.938 0-1.162.775-1.937 1.937-1.937h6.005c1.162 0 1.937.775 1.937 1.937 0 1.163-.775 1.938-1.937 1.938zM43.168 16.853c-1.163 0-1.938-.774-1.938-1.937V8.911c0-1.162.775-1.937 1.938-1.937 1.162 0 1.937.775 1.937 1.937v6.005c0 1.163-.775 1.937-1.937 1.937zM43.168 80.199c-1.163 0-1.938-.775-1.938-1.937v-6.005c0-1.163.775-1.938 1.938-1.938 1.162 0 1.937.775 1.937 1.938v6.005c0 1.162-.775 1.937-1.937 1.937z"/>
                    <path d="M77.068 45.524h-6.005c-1.162 0-1.937-.775-1.937-1.938 0-1.162.775-1.937 1.937-1.937h6.005c1.162 0 1.937.775 1.937 1.937 0 1.163-.775 1.938-1.937 1.938zM60.408 75.162c-.58 0-1.356-.387-1.743-.968l-3.1-5.23c-.58-.97-.193-2.132.775-2.713.969-.58 2.131-.193 2.712.775l3.1 5.23c.581.97.194 2.131-.775 2.713-.194.193-.581.193-.969.193zM67.188 31.188c-.58 0-1.356-.387-1.743-.968-.581-.969-.194-2.131.775-2.712l5.23-3.1c.969-.58 2.131-.193 2.712.775.581.969.194 2.131-.775 2.712l-5.23 3.1c-.194.193-.581.193-.969.193zM73 62.183c-.387 0-.581 0-.969-.193l-5.23-3.1c-.969-.581-1.162-1.743-.775-2.712.581-.969 1.744-1.162 2.712-.775l5.23 3.1c.97.58 1.163 1.743.775 2.712-.387.58-.968.968-1.743.968zM56.921 20.728c-.387 0-.58 0-.968-.194-.969-.581-1.162-1.743-.775-2.712l3.1-5.23c.58-.969 1.743-1.163 2.712-.775.968.58 1.162 1.743.774 2.712l-3.1 5.23c-.387.581-.968.969-1.743.969z"/>
                </g>
            </g>
        </g>
    </g>
</svg>
