<svg xmlns="http://www.w3.org/2000/svg" width="120" height="102" viewBox="0 0 120 102">
    <g fill="none" fill-rule="nonzero">
        <path fill="#FFD15D" d="M58.26 9.078V24H47.066v55.959H17.223V9.078zM93.575 25.803v12.435h12.435"/>
        <path fill="#DFE0E0" d="M74.425 27.668h6.84v61.555H50.797v-5.596h23.627s-.124-55.834 0-55.959z"/>
        <g fill="#48515A">
            <path d="M91.15 23.378a.564.564 0 0 1-.435-.186l-3.357-3.358h9.575c2.86 0 5.16-2.3 5.16-5.16 0-2.86-2.3-5.161-5.16-5.161-.373 0-.622-.249-.622-.622s.249-.622.622-.622a6.395 6.395 0 0 1 6.404 6.405 6.395 6.395 0 0 1-6.404 6.404h-6.591l1.243 1.243a.601.601 0 0 1 0 .87.672.672 0 0 1-.435.187zM83.067 21.078a6.395 6.395 0 0 1-6.404-6.404 6.395 6.395 0 0 1 6.404-6.405h6.591l-1.243-1.243a.601.601 0 0 1 0-.87.601.601 0 0 1 .87 0l3.357 3.357h-9.575c-2.86 0-5.16 2.3-5.16 5.16 0 2.86 2.3 5.161 5.16 5.161.373 0 .622.249.622.622 0 .31-.31.622-.622.622z"/>
        </g>
        <g fill="#48515A">
            <path d="M73.057 82.383H60c-.373 0-.622-.248-.622-.621s.249-.622.622-.622h11.813V19.834L59.751 7.772H15.855V81.14h27.98c.372 0 .621.249.621.622s-.249.621-.622.621H14.611V6.528H60.25l12.808 12.809v63.046z"/>
            <path d="M72.435 20.207H59.378V7.15c0-.373.249-.622.622-.622s.622.25.622.622v11.814h11.813c.373 0 .622.248.622.621 0 .374-.31.622-.622.622z"/>
        </g>
        <path fill="#48515A" d="M106.632 101.036H48.187V25.181h9.326c.373 0 .622.25.622.622 0 .373-.249.622-.622.622H49.43v73.368h55.959V38.487L93.326 26.425H77.41c-.373 0-.621-.249-.621-.622s.248-.622.621-.622h16.415l12.808 12.809v63.046z"/>
        <path fill="#48515A" d="M60.622 85.244l-6.964-3.482 6.964-3.482v6.964zm-4.228-3.482l2.984 1.492v-2.985l-2.984 1.493zM56.891 29.285v-6.964l6.964 3.482-6.964 3.482zm1.244-4.974v2.984l2.984-1.492-2.984-1.492zM74.922 26.425c-.062 0-.186 0-.248-.062-.063-.062-.125-.062-.187-.125a.564.564 0 0 1-.186-.435c0-.062 0-.186.062-.249 0-.062.062-.124.124-.186s.124-.124.187-.124c.124-.063.248-.063.373-.063.062 0 .062 0 .124.063.062 0 .062.062.124.062 0 0 .063.062.125.062.062.062.124.124.124.186 0 .063.062.125.062.25v.123c0 .063 0 .063-.062.125 0 .062 0 .062-.062.124l-.062.062s-.062.063-.125.063c-.062 0-.062.062-.124.062s-.062 0-.124.062h-.125zM46.321 82.383c-.062 0-.186 0-.248-.062-.063 0-.125-.062-.187-.124s-.124-.124-.124-.187c-.063-.062-.063-.124-.063-.248 0-.063 0-.187.063-.249 0-.062.062-.124.124-.187.124-.124.373-.186.56-.186.062 0 .062 0 .124.062.062 0 .062 0 .124.062 0 0 .062.062.125.062.124.125.186.311.186.436 0 .062 0 .186-.062.248 0 .063-.062.125-.124.187-.063.062-.125.124-.187.124s-.249.062-.31.062z"/>
        <g fill="#48515A">
            <path d="M53.782 44.456a2.494 2.494 0 0 1-2.487-2.487v-1.244a2.494 2.494 0 0 1 2.487-2.487 2.494 2.494 0 0 1 2.487 2.487v1.244a2.494 2.494 0 0 1-2.487 2.487zm0-4.974c-.684 0-1.243.56-1.243 1.243v1.244c0 .684.56 1.243 1.243 1.243.684 0 1.244-.56 1.244-1.243v-1.244c0-.684-.56-1.243-1.244-1.243zM59.378 44.456c-.373 0-.622-.249-.622-.622v-4.352h-.621c-.373 0-.622-.249-.622-.622s.249-.622.622-.622H60v5.596c0 .373-.249.622-.622.622zM63.109 44.456c-.373 0-.622-.249-.622-.622v-4.352h-.622c-.373 0-.621-.249-.621-.622s.248-.622.621-.622h1.866v5.596c0 .373-.25.622-.622.622zM67.461 44.456a2.494 2.494 0 0 1-2.487-2.487v-1.244a2.494 2.494 0 0 1 2.487-2.487 2.494 2.494 0 0 1 2.487 2.487v1.244a2.494 2.494 0 0 1-2.487 2.487zm0-4.974c-.684 0-1.243.56-1.243 1.243v1.244c0 .684.56 1.243 1.243 1.243.684 0 1.244-.56 1.244-1.243v-1.244c0-.684-.56-1.243-1.244-1.243z"/>
        </g>
        <g fill="#48515A">
            <path d="M57.513 52.539a2.494 2.494 0 0 1-2.487-2.487v-1.244a2.494 2.494 0 0 1 2.487-2.487A2.494 2.494 0 0 1 60 48.808v1.244a2.494 2.494 0 0 1-2.487 2.487zm0-4.974c-.684 0-1.244.56-1.244 1.243v1.244c0 .684.56 1.243 1.244 1.243.684 0 1.243-.56 1.243-1.243v-1.244c0-.684-.56-1.243-1.243-1.243zM63.109 52.539c-.373 0-.622-.249-.622-.622v-4.352h-.622c-.373 0-.621-.249-.621-.622s.248-.622.621-.622h1.866v5.596c0 .373-.25.622-.622.622zM67.461 52.539a2.494 2.494 0 0 1-2.487-2.487v-1.244a2.494 2.494 0 0 1 2.487-2.487 2.494 2.494 0 0 1 2.487 2.487v1.244a2.494 2.494 0 0 1-2.487 2.487zm0-4.974c-.684 0-1.243.56-1.243 1.243v1.244c0 .684.56 1.243 1.243 1.243.684 0 1.244-.56 1.244-1.243v-1.244c0-.684-.56-1.243-1.244-1.243zM53.16 52.539c-.372 0-.621-.249-.621-.622v-4.352h-.622c-.373 0-.622-.249-.622-.622s.249-.622.622-.622h1.865v5.596c0 .373-.248.622-.621.622z"/>
        </g>
        <g fill="#48515A">
            <path d="M57.513 60.622a2.494 2.494 0 0 1-2.487-2.487V56.89a2.494 2.494 0 0 1 2.487-2.487A2.494 2.494 0 0 1 60 56.891v1.244a2.494 2.494 0 0 1-2.487 2.487zm0-4.974c-.684 0-1.244.56-1.244 1.243v1.244c0 .684.56 1.243 1.244 1.243.684 0 1.243-.56 1.243-1.243V56.89c0-.684-.56-1.243-1.243-1.243zM53.16 60.622c-.372 0-.621-.249-.621-.622v-4.352h-.622c-.373 0-.622-.249-.622-.622s.249-.622.622-.622h1.865V60c0 .373-.248.622-.621.622zM68.705 60.622c-.373 0-.622-.249-.622-.622v-4.352h-.622c-.373 0-.622-.249-.622-.622s.25-.622.622-.622h1.865V60c0 .373-.248.622-.621.622zM63.73 60.622a2.494 2.494 0 0 1-2.486-2.487V56.89a2.494 2.494 0 0 1 2.487-2.487 2.494 2.494 0 0 1 2.487 2.487v1.244a2.494 2.494 0 0 1-2.487 2.487zm0-4.974c-.683 0-1.243.56-1.243 1.243v1.244c0 .684.56 1.243 1.244 1.243.684 0 1.243-.56 1.243-1.243V56.89c0-.684-.56-1.243-1.243-1.243z"/>
        </g>
        <g fill="#48515A">
            <path d="M60 68.705a2.494 2.494 0 0 1-2.487-2.487v-1.244A2.494 2.494 0 0 1 60 62.487a2.494 2.494 0 0 1 2.487 2.487v1.244A2.494 2.494 0 0 1 60 68.705zm0-4.974c-.684 0-1.244.56-1.244 1.243v1.244c0 .684.56 1.243 1.244 1.243.684 0 1.244-.56 1.244-1.243v-1.244c0-.684-.56-1.243-1.244-1.243zM53.782 68.705a2.494 2.494 0 0 1-2.487-2.487v-1.244a2.494 2.494 0 0 1 2.487-2.487 2.494 2.494 0 0 1 2.487 2.487v1.244a2.494 2.494 0 0 1-2.487 2.487zm0-4.974c-.684 0-1.243.56-1.243 1.243v1.244c0 .684.56 1.243 1.243 1.243.684 0 1.244-.56 1.244-1.243v-1.244c0-.684-.56-1.243-1.244-1.243zM64.974 68.705c-.373 0-.622-.249-.622-.622V63.73h-.621c-.373 0-.622-.25-.622-.622 0-.373.249-.622.622-.622h1.865v5.596c0 .373-.249.622-.622.622zM68.705 68.705c-.373 0-.622-.249-.622-.622V63.73h-.622c-.373 0-.622-.25-.622-.622 0-.373.25-.622.622-.622h1.865v5.596c0 .373-.248.622-.621.622z"/>
        </g>
        <g fill="#48515A">
            <path d="M83.627 55.026H98.55v1.244H83.627zM83.627 57.513H98.55v1.244H83.627zM83.627 60H98.55v1.244H83.627zM83.627 69.948H98.55v1.244H83.627zM83.627 72.435H98.55v1.244H83.627zM83.627 74.922H98.55v1.244H83.627z"/>
        </g>
        <g fill="#475059">
            <path d="M40.912 85.306l-1.181-.373.186-.622-.808-.249a2.278 2.278 0 0 1-1.555-2.176c0-.995.622-1.865 1.555-2.176l.808-.249-.435-1.368-.808.249c-.933.31-1.99 0-2.55-.808-.621-.809-.56-1.866 0-2.674l.498-.684-1.12-.808-.497.684c-.622.808-1.616 1.119-2.549.808a2.278 2.278 0 0 1-1.554-2.176v-.808h-1.43v.808c0 .995-.622 1.865-1.555 2.176-.933.311-1.99 0-2.55-.808l-.497-.684-1.119.808.498.684c.621.808.56 1.865 0 2.674-.622.808-1.617 1.119-2.55.808l-.808-.249-.186.622-1.182-.373.56-1.803 1.99.622c.497.186.932-.063 1.18-.373.187-.311.312-.747 0-1.244l-1.243-1.679 3.171-2.3 1.244 1.679c.31.435.808.497 1.181.373.373-.125.746-.436.746-.995V70.57h3.917v2.052c0 .56.373.87.747.995.373.124.808.062 1.18-.373l1.244-1.68 3.171 2.301-1.243 1.679c-.311.435-.187.933 0 1.244.186.31.622.56 1.181.373l1.99-.622 1.181 3.73-1.99.622c-.559.187-.746.622-.746.995s.187.808.747.995l1.99.622-.81 1.803z"/>
            <path d="M35.192 83.503l-1.182-.373c.684-2.114-.497-4.415-2.549-5.099-.995-.31-2.114-.249-3.046.249-.933.497-1.68 1.305-1.99 2.362l-1.181-.373a5.088 5.088 0 0 1 2.61-3.046 5.35 5.35 0 0 1 4.042-.311c2.674.808 4.166 3.793 3.296 6.59z"/>
            <g>
                <path d="M30.218 87.047c-.56 0-1.12-.063-1.617-.25-2.736-.87-4.29-3.854-3.357-6.652l1.18.373c-.683 2.114.498 4.415 2.55 5.099 2.114.684 4.415-.498 5.099-2.55l1.18.373a5.088 5.088 0 0 1-2.61 3.047c-.809.373-1.617.56-2.425.56z"/>
                <path d="M32.145 93.078h-3.917v-2.052c0-.56-.373-.87-.746-.995-.373-.124-.808-.062-1.181.373l-1.244 1.679-3.171-2.3 1.244-1.68c.31-.435.186-.932 0-1.243-.187-.31-.622-.56-1.182-.373l-1.99.622-1.18-3.73 1.989-.623c.56-.186.746-.621.746-.994s-.187-.809-.746-.995l-1.99-.622.684-2.052 1.181.373-.248.87.808.25a2.278 2.278 0 0 1 1.554 2.176c0 .994-.621 1.865-1.554 2.176l-.808.249.435 1.367.808-.248c.933-.311 1.99 0 2.55.808.621.808.56 1.865 0 2.674l-.498.684 1.12.808.497-.684c.621-.808 1.616-1.12 2.549-.808a2.278 2.278 0 0 1 1.554 2.176v.808h1.43v-.808c0-.995.622-1.866 1.555-2.176.932-.311 1.99 0 2.549.808l.497.684 1.244-.746-.497-.684c-.622-.809-.56-1.866 0-2.674.621-.808 1.616-1.119 2.549-.808l.808.249.31-.933 1.182.373-.684 2.114-1.99-.622c-.559-.186-.932.062-1.18.373-.187.311-.312.746 0 1.244l1.243 1.679-3.171 2.3-1.244-1.679c-.31-.435-.808-.497-1.181-.373-.373.125-.746.435-.746.995l.062 1.99z"/>
            </g>
            <path d="M30.155 84.995a3.079 3.079 0 0 1-3.108-3.109 3.079 3.079 0 0 1 3.108-3.109 3.079 3.079 0 0 1 3.11 3.109 3.079 3.079 0 0 1-3.11 3.109zm0-4.974a1.832 1.832 0 0 0-1.865 1.865c0 1.057.808 1.865 1.865 1.865a1.832 1.832 0 0 0 1.866-1.865 1.832 1.832 0 0 0-1.866-1.865z"/>
        </g>
        <circle cx="38.238" cy="97.306" r="1.865" fill="#FFD15D"/>
        <circle cx="9.637" cy="74.922" r="1.865" fill="#FFD15D"/>
        <circle cx="104.767" cy="24.56" r="1.244" fill="#FFD15D"/>
        <g fill="#48515A">
            <path d="M24.56 35.13h14.922v1.244H24.56zM24.56 37.617h14.922v1.244H24.56zM24.56 40.104h14.922v1.244H24.56zM24.56 50.052h14.922v1.244H24.56zM24.56 52.539h14.922v1.244H24.56zM24.56 55.026h14.922v1.244H24.56z"/>
        </g>
        <g fill="#48515A">
            <path d="M3.979 51.295h1.244v2.487H3.979zM3.979 57.512h1.244V60H3.979zM6.466 55.026h2.487v1.244H6.466zM.249 55.026h2.487v1.244H.249z"/>
        </g>
        <g fill="#48515A">
            <path d="M114.778 45.078h1.244v2.487h-1.244zM114.778 51.295h1.244v2.487h-1.244zM117.265 48.808h2.487v1.244h-2.487zM111.047 48.808h2.487v1.244h-2.487z"/>
        </g>
        <circle cx="110.984" cy="36.995" r="1.244" fill="#FFD15D"/>
        <g fill="#48515A">
            <path d="M96.062 88.041h1.244v2.487h-1.244zM96.062 94.26h1.244v2.486h-1.244zM98.549 91.772h2.487v1.244h-2.487zM92.332 91.772h2.487v1.244h-2.487z"/>
        </g>
        <circle cx="54.964" cy="1.554" r="1.244" fill="#FFD15D"/>
    </g>
</svg>
